<svg width="78" height="52" viewBox="0 0 78 52" fill="none" xmlns="http://www.w3.org/2000/svg">
<path fill-rule="evenodd" clip-rule="evenodd" d="M78 1.57516L65.1183 0.576172C62.5946 6.91186 59.4924 12.38 55.8383 17.0595C42.8514 6.30721 26.0263 0.970509 6.3357 0.681328L0 0.576172V11.5913V25.8926V40.1939V51.2091L6.3357 51.104C26.0526 50.7885 42.8777 45.4518 55.8383 34.7258C59.4924 39.4053 62.6209 44.8734 65.1183 51.2091L78 50.2101C74.6613 40.6409 70.1132 32.5964 64.5925 25.8664C70.1132 19.1363 74.6613 11.0918 78 1.52258V1.57516ZM12.4611 13.4053C26.3681 14.562 37.909 18.6368 47.0839 25.9189C37.909 33.201 26.3681 37.2758 12.4611 38.4326V13.4316V13.4053Z" fill="white"/>
</svg>
