<svg width="81" height="73" viewBox="0 0 81 73" fill="none" xmlns="http://www.w3.org/2000/svg">
<path fill-rule="evenodd" clip-rule="evenodd" d="M29.4531 49.7561C31.6486 52.383 34.1023 54.5721 36.8402 56.2461C40.0946 58.2292 43.8657 59.4911 48.2567 59.8775C52.6476 59.4911 56.3928 58.2292 59.6473 56.2461C62.3852 54.5721 64.8389 52.383 67.0344 49.7561C64.0382 42.2616 60.138 35.8488 55.3596 30.595C56.4186 29.8481 57.5034 29.1527 58.6141 28.5089C61.0162 27.0924 63.5216 25.6244 66.2337 24.4912C71.8902 31.2388 76.3845 39.3514 79.7164 48.7774L80.7496 51.7391L78.9157 54.3146C75.2997 59.3624 71.0637 63.5603 66.0012 66.6508C60.8871 69.7413 55.0497 71.6729 48.2567 72.1107C41.4636 71.6729 35.6004 69.7671 30.512 66.6508C25.4495 63.5861 21.2136 59.3624 17.5975 54.3146L15.7637 51.7391L29.4789 49.7303L29.4531 49.7561Z" fill="white"/>
<path fill-rule="evenodd" clip-rule="evenodd" d="M51.5133 23.0232C49.3178 20.3963 46.8641 18.2072 44.1262 16.5332C40.8717 14.5501 37.1006 13.2881 32.7097 12.9018C28.3188 13.2881 24.5735 14.5501 21.3191 16.5332C18.5812 18.2072 16.1275 20.3963 13.932 23.0232C16.9282 30.5177 20.8283 36.9305 25.6067 42.1843C24.5477 42.9312 23.463 43.6266 22.3523 44.2704C19.9502 45.6869 17.4448 47.1549 14.7327 48.2881C9.07615 41.5405 4.58189 33.4279 1.24994 24.0019L0.216797 21.0401L2.05064 18.4647C5.6667 13.4169 9.90267 9.21897 14.9652 6.12847C20.0793 3.03796 25.9167 1.1064 32.7097 0.668579C39.5027 1.1064 45.3659 3.01221 50.4543 6.12847C55.5167 9.19321 59.7527 13.4169 63.3688 18.4647L65.2027 21.0401L51.4875 23.049L51.5133 23.0232Z" fill="white"/>
</svg>
