<svg width="97" height="81" viewBox="0 0 97 81" fill="none" xmlns="http://www.w3.org/2000/svg">
<path fill-rule="evenodd" clip-rule="evenodd" d="M97 27.7936L95.659 27.9776C89.8216 27.9776 84.2998 27.8725 79.1198 27.7147V0.5L72.7829 0.605178C41.9133 1.07848 18.1431 13.8575 5.12742 40.5464C4.81189 40.5464 4.49636 40.5464 4.20712 40.5464C2.36651 40.5464 1.44619 40.6252 0 40.783V53.0099C0 53.0099 0.0526056 53.0099 0.0789 53.0099L0 53.2202L1.34102 53.0362C7.17837 53.0362 12.7002 53.1414 17.8802 53.2991V80.5138L24.2171 80.4086C55.0868 79.9353 78.8569 67.1563 91.8726 40.4675C92.1881 40.4675 92.5037 40.4675 92.7929 40.4675C94.6335 40.4675 95.5538 40.3886 97 40.2308V28.0039C97 28.0039 96.9474 28.0039 96.9211 28.0039L97 27.7936ZM30.37 67.6559V41.3089L24.3749 41.0722C22.4817 40.9934 20.72 40.9408 19.0372 40.8619C29.1868 23.8494 45.0949 15.0934 66.6563 13.3054V39.6523L72.6514 39.889C74.5446 39.9679 76.3063 40.0205 77.9892 40.0993C67.8395 57.1118 51.9314 65.8679 30.37 67.6559Z" fill="white"/>
</svg>
