<svg width="84" height="51" viewBox="0 0 84 51" fill="none" xmlns="http://www.w3.org/2000/svg">
<g clip-path="url(#clip0_3451_122)">
<path fill-rule="evenodd" clip-rule="evenodd" d="M84 49.8924C82.244 44.9231 80.1473 40.3722 77.7885 36.1874V0.486328L71.4721 0.590947C60.7264 0.747875 50.8718 2.42177 41.9869 5.61264C33.1282 2.39562 23.2474 0.747875 12.5279 0.590947L6.21154 0.486328V36.1874C3.85273 40.3983 1.75601 44.9231 0 49.8924L12.8424 50.8863C14.4936 46.7016 16.4331 42.9092 18.6084 39.4567V39.4044C24.5317 29.9888 32.342 23.267 41.9607 18.9254C51.6056 23.267 59.3897 29.9888 65.313 39.4044V39.4567C67.4883 42.9092 69.4016 46.7016 71.0789 50.8863L83.9214 49.8924H84ZM15.3847 23.0055V10.1635C20.0499 10.5559 24.5579 11.1574 28.961 11.8898C24.2172 15.2637 19.6568 18.9254 15.3847 22.9793V23.0055ZM55.039 11.9159C59.4421 11.1836 63.9239 10.582 68.6153 10.1897V23.0316C64.3432 18.9515 59.7828 15.316 55.039 11.9421V11.9159Z" fill="white"/>
</g>
<defs>
<clipPath id="clip0_3451_122">
<rect width="84" height="50.4" fill="white" transform="translate(0 0.486328)"/>
</clipPath>
</defs>
</svg>
