<svg width="67" height="73" viewBox="0 0 67 73" fill="none" xmlns="http://www.w3.org/2000/svg">
<path fill-rule="evenodd" clip-rule="evenodd" d="M65.451 49.1211C64.6897 46.942 63.8495 44.8417 62.9569 42.8201C62.6681 42.1638 62.3531 41.5337 62.0643 40.9036C61.4079 39.5122 60.7516 38.1469 60.0427 36.8343C59.6752 36.1517 59.3076 35.469 58.9138 34.8127C58.1787 33.5263 57.4173 32.2923 56.6297 31.1109C56.2621 30.5333 55.8946 29.9557 55.5008 29.3781C54.3456 27.6979 53.1379 26.0964 51.8777 24.5474C51.8515 24.4949 51.8252 24.4687 51.7727 24.4161C49.6724 21.8958 47.4146 19.5854 45.0255 17.4589C51.5364 14.7284 58.8613 13.0482 67 12.3919L66.0286 0.0262539C53.873 1.0239 42.9514 4.09561 33.5 9.3464C24.0486 4.06936 13.127 0.997649 0.971395 0L0 12.3656C8.13871 13.0482 15.4636 14.7284 21.9745 17.4326C19.5854 19.5592 17.3276 21.8695 15.2273 24.3899C15.201 24.4424 15.1748 24.4687 15.1223 24.5212C13.8621 26.0439 12.6544 27.6716 11.4992 29.3519C11.1054 29.9032 10.7379 30.5071 10.3703 31.0846C9.58268 32.2923 8.82132 33.5263 8.08621 34.7864C7.6924 35.4428 7.32484 36.1254 6.95729 36.808C6.24843 38.1207 5.59208 39.4859 4.93574 40.8774C4.64694 41.5075 4.3319 42.1375 4.0431 42.7939C3.15047 44.8154 2.31034 46.9158 1.54898 49.0948C1.54898 49.0948 1.54898 49.1211 1.54898 49.1473L0.498824 52.1665L2.36285 54.7919C6.0384 59.9377 10.344 64.2171 15.4898 67.3676C20.6881 70.518 26.6215 72.4871 33.5263 72.9334C40.431 72.4871 46.3907 70.5443 51.5627 67.3676C56.7085 64.2433 61.0141 59.9377 64.6897 54.7919L66.5537 52.1665L65.5035 49.1473C65.5035 49.1473 65.5035 49.1211 65.5035 49.0948L65.451 49.1211ZM40.7198 30.6121C43.1089 33.2375 45.2355 36.1254 47.1783 39.2759C47.3096 39.4859 47.4408 39.6959 47.5458 39.906C48.3335 41.2187 49.0686 42.5576 49.7774 43.9491C49.9612 44.3166 50.145 44.6579 50.3288 45.0255C51.1426 46.6795 51.904 48.3597 52.5866 50.145C50.355 52.8229 47.8609 55.0545 45.078 56.761C43.424 57.7586 41.6387 58.5988 39.7222 59.2288C39.5384 59.2814 39.3546 59.3076 39.1971 59.3601C38.3832 59.5964 37.5956 59.8327 36.7292 59.9902C36.598 59.9902 36.4667 60.0165 36.3354 60.0427C35.4165 60.2265 34.4714 60.3578 33.5 60.4365C32.5286 60.3578 31.5835 60.2002 30.6646 60.0427C30.5333 60.0427 30.402 60.0165 30.2708 59.9902C29.4306 59.8064 28.6168 59.5964 27.8029 59.3601C27.6191 59.3076 27.4353 59.2814 27.2778 59.2288C25.3613 58.5988 23.576 57.7849 21.922 56.761C19.1391 55.0545 16.645 52.8229 14.4134 50.145C15.1223 48.386 15.8836 46.6795 16.6712 45.0255C16.855 44.6579 17.0388 44.3166 17.2226 43.9491C17.9314 42.5576 18.6665 41.2187 19.4279 39.906C19.5592 39.6959 19.6904 39.4859 19.7955 39.2759C21.7382 36.1254 23.8911 33.2112 26.2539 30.6121C28.4855 28.1705 30.9009 25.9651 33.5 24.0223C36.0991 25.9651 38.5145 28.1705 40.7461 30.6121H40.7198Z" fill="white"/>
</svg>
