<svg width="261" height="123" viewBox="0 0 261 123" fill="none" xmlns="http://www.w3.org/2000/svg">
<path fill-rule="evenodd" clip-rule="evenodd" d="M248.472 45.3869C254.044 32.0449 257.108 17.8147 257.525 3.39833H141.426L141.426 118.553C155.961 118.14 170.308 115.1 183.759 109.574C198.266 103.613 211.448 94.8772 222.551 83.8641C233.655 72.8509 242.463 59.7763 248.472 45.3869ZM141.426 121.953C140.285 121.984 139.143 122 138 122L138 0H261C261 1.13367 260.984 2.26656 260.952 3.39833C260.535 18.2611 257.381 32.933 251.637 46.6874C245.456 61.4891 236.396 74.9383 224.974 86.267C213.553 97.5958 199.993 106.582 185.07 112.713C171.203 118.411 156.411 121.539 141.426 121.953Z" fill="white"/>
<path fill-rule="evenodd" clip-rule="evenodd" d="M12.5282 77.2411C6.95646 90.6925 3.89191 105.039 3.47529 119.574L119.574 119.574L119.574 3.47528C105.039 3.8919 90.6925 6.95646 77.2411 12.5282C62.7337 18.5373 49.552 27.3451 38.4485 38.4485C27.3451 49.552 18.5373 62.7337 12.5282 77.2411ZM119.574 0.0477145C120.715 0.0159304 121.857 -7.52947e-06 123 -7.62939e-06L123 123L0 123C-9.99211e-08 121.857 0.0159376 120.715 0.0477216 119.574C0.465269 104.589 3.61889 89.797 9.36283 75.9299C15.5442 61.0069 24.6043 47.4475 36.0259 36.0259C47.4475 24.6043 61.0069 15.5441 75.9299 9.36282C89.797 3.61888 104.589 0.465257 119.574 0.0477145Z" fill="white"/>
</svg>
