<svg width="355" height="105" viewBox="0 0 355 105" fill="none" xmlns="http://www.w3.org/2000/svg">
<mask id="path-1-inside-1_4650_1747" fill="white">
<path fill-rule="evenodd" clip-rule="evenodd" d="M10.6948 65.9375C5.93844 77.4204 3.32235 89.6677 2.9667 102.075L102.075 102.075L102.075 2.96671C89.6677 3.32236 77.4204 5.93845 65.9375 10.6948C53.5532 15.8246 42.3005 23.3434 32.8219 32.8219C23.3434 42.3005 15.8246 53.5532 10.6948 65.9375ZM102.075 0.0407407C103.049 0.013603 104.024 7.5441e-06 105 7.62939e-06L105 105L-7.62939e-06 105C-7.5441e-06 104.024 0.0135958 103.049 0.0407336 102.075C0.397172 89.2835 3.08929 76.656 7.99266 64.8182C13.2694 52.079 21.0036 40.5039 30.7538 30.7538C40.5039 21.0036 52.0791 13.2694 64.8182 7.99266C76.656 3.08929 89.2835 0.397177 102.075 0.0407407Z"/>
</mask>
<path fill-rule="evenodd" clip-rule="evenodd" d="M10.6948 65.9375C5.93844 77.4204 3.32235 89.6677 2.9667 102.075L102.075 102.075L102.075 2.96671C89.6677 3.32236 77.4204 5.93845 65.9375 10.6948C53.5532 15.8246 42.3005 23.3434 32.8219 32.8219C23.3434 42.3005 15.8246 53.5532 10.6948 65.9375ZM102.075 0.0407407C103.049 0.013603 104.024 7.5441e-06 105 7.62939e-06L105 105L-7.62939e-06 105C-7.5441e-06 104.024 0.0135958 103.049 0.0407336 102.075C0.397172 89.2835 3.08929 76.656 7.99266 64.8182C13.2694 52.079 21.0036 40.5039 30.7538 30.7538C40.5039 21.0036 52.0791 13.2694 64.8182 7.99266C76.656 3.08929 89.2835 0.397177 102.075 0.0407407Z" fill="white"/>
<path d="M2.9667 102.075L-7.0292 101.789L-7.32405 112.075L2.9667 112.075L2.9667 102.075ZM10.6948 65.9375L1.456 62.1107L1.456 62.1107L10.6948 65.9375ZM102.075 102.075L102.075 112.075L112.075 112.075L112.075 102.075L102.075 102.075ZM102.075 2.96671L112.075 2.96671L112.075 -7.32404L101.789 -7.02918L102.075 2.96671ZM65.9375 10.6948L62.1107 1.45601L62.1107 1.45601L65.9375 10.6948ZM102.075 0.0407407L101.797 -9.95538L101.797 -9.95538L102.075 0.0407407ZM105 7.62939e-06L115 8.50362e-06L115 -9.99999L105 -9.99999L105 7.62939e-06ZM105 105L105 115L115 115L115 105L105 105ZM-7.62939e-06 105L-10 105L-10 115L-8.50362e-06 115L-7.62939e-06 105ZM0.0407336 102.075L-9.95538 101.797L-9.95539 101.797L0.0407336 102.075ZM7.99266 64.8182L17.2314 68.6451L17.2314 68.6451L7.99266 64.8182ZM30.7538 30.7538L37.8249 37.8249L37.8249 37.8249L30.7538 30.7538ZM64.8182 7.99266L68.6451 17.2315L68.6451 17.2314L64.8182 7.99266ZM12.9626 102.362C13.2834 91.1697 15.6432 80.1223 19.9336 69.7643L1.456 62.1107C-3.76632 74.7185 -6.63869 88.1656 -7.0292 101.789L12.9626 102.362ZM102.075 92.0752L2.9667 92.0752L2.9667 112.075L102.075 112.075L102.075 92.0752ZM92.0752 2.96671L92.0752 102.075L112.075 102.075L112.075 2.96671L92.0752 2.96671ZM69.7643 19.9336C80.1223 15.6432 91.1697 13.2834 102.362 12.9626L101.789 -7.02918C88.1656 -6.63868 74.7185 -3.76631 62.1107 1.45601L69.7643 19.9336ZM39.893 39.893C48.443 31.343 58.5933 24.5608 69.7643 19.9336L62.1107 1.45601C48.5131 7.08831 36.158 15.3437 25.7509 25.7509L39.893 39.893ZM19.9336 69.7643C24.5608 58.5933 31.343 48.443 39.893 39.893L25.7509 25.7509C15.3437 36.158 7.08831 48.5131 1.456 62.1107L19.9336 69.7643ZM102.354 10.0369C103.235 10.0123 104.117 10 105 10L105 -9.99999C103.931 -9.99999 102.864 -9.9851 101.797 -9.95538L102.354 10.0369ZM9.99999 105C9.99999 104.117 10.0123 103.235 10.0369 102.354L-9.95539 101.797C-9.98511 102.863 -10 103.931 -10 105L9.99999 105ZM10.0369 102.354C10.3593 90.7803 12.7951 79.3554 17.2314 68.6451L-1.24614 60.9914C-6.61649 73.9566 -9.56499 87.7867 -9.95538 101.797L10.0369 102.354ZM17.2314 68.6451C22.0056 57.1191 29.0033 46.6464 37.8249 37.8249L23.6827 23.6827C13.004 34.3614 4.53315 47.039 -1.24614 60.9914L17.2314 68.6451ZM37.8249 37.8249C46.6464 29.0033 57.1192 22.0056 68.6451 17.2315L60.9914 -1.24614C47.039 4.53313 34.3615 13.004 23.6827 23.6827L37.8249 37.8249ZM68.6451 17.2314C79.3554 12.7951 90.7803 10.3594 102.354 10.0369L101.797 -9.95538C87.7867 -9.56499 73.9566 -6.61649 60.9914 -1.24614L68.6451 17.2314ZM115 105L115 8.50362e-06L95 6.75517e-06L95 105L115 105ZM105 95L-6.75517e-06 95L-8.50362e-06 115L105 115L105 95Z" fill="white" mask="url(#path-1-inside-1_4650_1747)"/>
<path fill-rule="evenodd" clip-rule="evenodd" d="M135.695 65.9375C130.938 77.4204 128.322 89.6677 127.967 102.075L227.075 102.075L227.075 2.96671C214.668 3.32236 202.42 5.93845 190.938 10.6948C178.553 15.8246 167.3 23.3434 157.822 32.8219C148.343 42.3005 140.825 53.5532 135.695 65.9375ZM227.075 0.0407407C228.049 0.013603 229.024 7.5441e-06 230 7.62939e-06L230 105L125 105C125 104.024 125.014 103.049 125.041 102.075C125.397 89.2835 128.089 76.656 132.993 64.8182C138.269 52.079 146.004 40.5039 155.754 30.7538C165.504 21.0036 177.079 13.2694 189.818 7.99266C201.656 3.08929 214.283 0.397177 227.075 0.0407407Z" fill="white"/>
<path fill-rule="evenodd" clip-rule="evenodd" d="M260.695 65.9375C255.938 77.4204 253.322 89.6677 252.967 102.075L352.075 102.075L352.075 2.96671C339.668 3.32236 327.42 5.93845 315.938 10.6948C303.553 15.8246 292.3 23.3434 282.822 32.8219C273.343 42.3005 265.825 53.5532 260.695 65.9375ZM352.075 0.0407407C353.049 0.013603 354.024 7.5441e-06 355 7.62939e-06L355 105L250 105C250 104.024 250.014 103.049 250.041 102.075C250.397 89.2835 253.089 76.656 257.993 64.8182C263.269 52.079 271.004 40.5039 280.754 30.7538C290.504 21.0036 302.079 13.2694 314.818 7.99266C326.656 3.08929 339.283 0.397177 352.075 0.0407407Z" fill="white"/>
</svg>
