<svg width="180" height="180" viewBox="0 0 180 180" fill="none" xmlns="http://www.w3.org/2000/svg">
<path fill-rule="evenodd" clip-rule="evenodd" d="M161.217 66.7783C169.348 47.148 173.82 26.211 174.428 5H5.00002L5 174.428C26.211 173.82 47.148 169.348 66.7783 161.217C87.9496 152.448 107.186 139.594 123.39 123.39C139.594 107.186 152.448 87.9496 161.217 66.7783ZM5 179.43C3.33481 179.477 1.66798 179.5 0 179.5L1.52588e-05 0H179.5C179.5 1.66798 179.477 3.33481 179.43 5C178.821 26.8677 174.219 48.4547 165.836 68.6917C156.816 90.4696 143.594 110.258 126.926 126.926C110.258 143.594 90.4696 156.816 68.6917 165.836C48.4548 174.219 26.8678 178.821 5 179.43Z" fill="white"/>
</svg>
