<svg width="109" height="204" viewBox="0 0 109 204" fill="none" xmlns="http://www.w3.org/2000/svg">
<path fill-rule="evenodd" clip-rule="evenodd" d="M40.5506 105.204C28.6303 100.221 15.9164 97.4806 3.03621 97.108L3.03621 200.936L105.92 200.936C105.551 187.938 102.835 175.107 97.8978 163.077C92.5726 150.103 84.7674 138.315 74.9277 128.385C65.0881 118.455 53.4067 110.578 40.5506 105.204ZM108.958 200.936C108.986 201.956 109 202.978 109 204L0 204L-4.80825e-06 94C1.01287 94 2.02503 94.0143 3.03621 94.0427C16.3152 94.4161 29.4238 97.2364 41.7125 102.373C54.937 107.901 66.9531 116.004 77.0746 126.218C87.1962 136.433 95.2251 148.559 100.703 161.905C105.793 174.306 108.588 187.535 108.958 200.936Z" fill="white"/>
<path fill-rule="evenodd" clip-rule="evenodd" d="M68.4494 98.7959C80.3697 103.779 93.0836 106.519 105.964 106.892L105.964 3.06408L3.07973 3.06406C3.44894 16.0624 6.16468 28.8929 11.1022 40.9226C16.4274 53.8967 24.2326 65.6852 34.0723 75.6151C43.9119 85.545 55.5933 93.4219 68.4494 98.7959ZM0.0422972 3.06406C0.0141295 2.04361 7.58471e-06 1.02216 7.62939e-06 -4.76454e-06L109 9.35079e-06L109 110C107.987 110 106.975 109.986 105.964 109.957C92.6848 109.584 79.5762 106.764 67.2875 101.627C54.063 96.0987 42.0469 87.9962 31.9254 77.7817C21.8038 67.5673 13.7749 55.441 8.29715 42.0952C3.20699 29.6937 0.412315 16.4649 0.0422972 3.06406Z" fill="white"/>
</svg>
