<svg width="963" height="925" viewBox="0 0 963 925" fill="none" xmlns="http://www.w3.org/2000/svg">
<path fill-rule="evenodd" clip-rule="evenodd" d="M443.467 683.805C400.53 668.979 363.489 667.045 319.078 666.308V761.62C299.544 762.265 281.3 762.541 259.002 762.541C134.429 636.103 119.502 485.815 281.484 385.07C292.173 393.726 302.953 404.869 311.983 417.301C321.473 430.47 328.844 444.836 331.609 458.741C331.056 473.015 325.804 487.565 316.498 501.654C308.205 514.086 296.688 526.058 282.222 536.832C258.541 521.361 238.363 504.509 221.501 486.644C213.116 499.72 206.39 513.534 201.415 528.268C221.225 547.33 244.628 565.103 271.533 581.495L283.143 588.586L294.568 581.311C319.446 565.379 339.164 546.317 352.801 525.781C367.175 504.141 374.915 480.658 375.099 456.899V454.689L374.822 453.124C371.137 431.759 360.725 410.579 347.18 391.885C332.069 370.981 312.72 352.747 294.568 340.776L283.419 333.408L271.902 339.947C74.5374 452.018 78.0387 655.35 231.452 798.363L231.729 798.087C238.639 803.428 251.815 806.007 271.165 806.007C286.091 806.007 309.587 805.362 341.744 804.073L362.752 803.244V710.971C378.047 712.261 392.698 714.563 406.611 717.97C412.508 708.025 427.619 694.58 443.467 683.437V683.805Z" fill="white" fill-opacity="0.5"/>
<path fill-rule="evenodd" clip-rule="evenodd" d="M593.538 83.1947L597.221 72.623L590.685 63.4302C577.798 45.4124 562.701 30.4281 544.659 19.3968C526.617 8.36543 505.721 1.56277 481.511 0C457.301 1.56277 436.406 8.36543 418.271 19.4887C400.229 30.4281 385.133 45.5043 372.245 63.5221L365.71 72.7149L369.392 83.2866C381.174 116.84 397.099 145.706 417.167 169.791C427.293 165.746 436.682 160.138 445.611 154.898C449.201 152.784 452.699 150.578 456.105 148.188C438.983 129.434 425.083 106.544 414.497 79.7934C422.322 70.4167 431.067 62.6029 440.824 56.6275C452.423 49.5491 465.862 45.0446 481.419 43.6657C497.068 45.0446 510.508 49.5491 522.106 56.6275C531.864 62.6029 540.609 70.4167 548.433 79.7934C514.098 166.389 450.213 204.907 364.053 212.078V121.712L343.065 120.885C310.939 119.598 287.466 118.955 272.553 118.955C253.222 118.955 240.059 121.621 233.155 126.86L232.879 126.585C146.81 206.746 88.6331 309.521 133.923 427.281C136.96 422.592 140.09 418.088 143.128 413.583C150.216 403.104 158.04 393.543 166.509 384.81C146.074 294.261 196.794 224.947 257.733 162.436C279.917 162.436 300.813 162.804 320.328 163.356V256.754L342.513 256.387C462.733 254.548 552.667 199.483 593.538 83.0108V83.1947Z" fill="white" fill-opacity="0.5"/>
<path fill-rule="evenodd" clip-rule="evenodd" d="M726.596 106.369L726.32 106.645C719.412 101.305 706.242 98.7278 686.902 98.7278C671.982 98.7278 648.497 99.3722 616.354 100.661L595.356 101.49V191.985C580.252 190.696 565.792 188.394 552.07 185.08C545.715 195.207 530.334 208.463 514.678 219.419C545.623 230.098 579.699 235.897 616.815 236.542L639.011 236.91V143.377C658.535 142.733 676.771 142.456 699.059 142.456C823.576 268.855 838.496 417.348 676.587 518.062C665.903 509.408 655.128 498.269 646.102 485.841C636.616 472.676 629.248 458.315 626.485 444.414C627.038 430.144 632.287 415.599 641.589 401.514C649.878 389.086 661.39 377.118 675.85 366.347C699.703 381.997 720.149 399.028 737.003 417.072C745.292 403.815 751.739 389.822 756.528 374.908H756.712C736.911 355.944 713.518 338.084 686.533 321.697L674.929 314.609L663.509 321.882C638.642 337.808 618.933 356.864 605.303 377.394C590.935 399.028 583.199 422.503 583.015 446.255V448.464L583.291 450.029C586.975 471.387 597.382 492.561 610.921 511.249C626.025 532.147 645.365 550.375 663.509 562.343L674.653 569.708L686.165 563.171C880.032 453.067 883.348 252.836 726.596 106.645V106.369Z" fill="white" fill-opacity="0.5"/>
<path fill-rule="evenodd" clip-rule="evenodd" d="M598.171 711.575V803.825L619.09 804.654C651.109 805.943 674.505 806.587 689.368 806.587C708.634 806.587 721.754 803.917 728.635 798.669L728.91 798.946C814.418 718.848 872.402 614.536 827.813 496.875C824.327 502.399 820.657 507.647 817.171 512.895C810.473 522.746 803.225 531.861 795.427 540.147C814.877 630.28 764.416 700.895 704.139 763.04C682.028 763.04 661.201 762.671 641.751 762.027V666.738L619.64 667.106C499.636 668.948 410.183 724.096 369.447 840.744L365.777 851.332L372.291 860.538C385.136 878.583 400.182 893.59 418.165 904.638C436.33 915.686 457.065 922.591 481.195 924.156C505.324 922.591 526.15 915.778 544.225 904.638C562.207 893.682 577.253 878.583 590.098 860.538L596.612 851.332L592.942 840.744C581.198 807.048 565.234 778.047 545.05 753.925C535.509 757.976 526.517 763.224 517.985 768.288C514.04 770.589 510.186 773.075 506.425 775.745C523.49 794.527 537.344 817.451 547.894 844.242C540.096 853.633 531.38 861.459 521.655 867.443C510.095 874.532 496.7 879.044 481.195 880.425C465.598 879.044 452.203 874.532 440.643 867.443C430.917 861.459 422.202 853.633 414.403 844.242C447.432 760.738 508.994 719.216 598.171 711.759V711.575Z" fill="white"/>
<path fill-rule="evenodd" clip-rule="evenodd" d="M480.691 432.136C497.65 432.136 511.442 445.565 511.442 462.078C511.442 478.592 497.65 492.02 480.691 492.02C463.731 492.02 449.939 478.592 449.939 462.078C449.939 445.565 463.731 432.136 480.691 432.136Z" fill="white" fill-opacity="0.5"/>
<path fill-rule="evenodd" clip-rule="evenodd" d="M933.057 432.136C949.571 432.136 962.999 445.565 962.999 462.078C962.999 478.592 949.571 492.02 933.057 492.02C916.544 492.02 903.115 478.592 903.115 462.078C903.115 445.565 916.544 432.136 933.057 432.136Z" fill="white" fill-opacity="0.5"/>
<path fill-rule="evenodd" clip-rule="evenodd" d="M30.7513 432.136C47.711 432.136 61.5025 445.565 61.5025 462.078C61.5025 478.592 47.711 492.02 30.7513 492.02C13.7915 492.02 0 478.592 0 462.078C0 445.565 13.7915 432.136 30.7513 432.136Z" fill="white" fill-opacity="0.5"/>
</svg>
