<svg width="901" height="864" viewBox="0 0 901 864" fill="none" xmlns="http://www.w3.org/2000/svg">
<path d="M299.287 623.772V712.313V712.797L298.804 712.813C280.557 713.416 263.516 713.674 242.69 713.674H242.481L242.334 713.525C184.119 654.405 151.46 589.647 152.344 527.829C153.229 465.982 187.686 407.206 263.419 360.077L263.722 359.889L263.998 360.113C274.012 368.228 284.109 378.67 292.567 390.321L292.568 390.323C301.454 402.66 308.379 416.149 310.979 429.235L310.99 429.293L310.988 429.352C310.468 442.798 305.524 456.48 296.796 469.702L296.794 469.704C289.015 481.373 278.218 492.598 264.671 502.694L264.391 502.903L264.098 502.712C242.162 488.372 223.434 472.76 207.749 456.211C200.157 468.147 194.045 480.74 189.491 494.151C207.911 511.85 229.659 528.36 254.652 543.595L254.652 543.595L265.227 550.058L275.631 543.429L299.287 623.772ZM299.287 623.772C340.091 624.459 374.203 626.276 413.526 639.655M299.287 623.772L413.526 639.655M413.526 639.655C406.506 644.657 399.684 650.115 393.908 655.451C387.966 660.94 383.107 666.321 380.285 670.958C367.372 667.816 353.786 665.689 339.612 664.494L339.07 664.448V664.992V750.722L319.933 751.478C289.906 752.682 267.975 753.284 254.047 753.284C245.032 753.284 237.475 752.683 231.377 751.465C225.274 750.247 220.67 748.418 217.529 745.989L217.18 745.72L216.953 745.948C145.639 679.278 109.223 598.655 113.519 521.68C117.82 444.594 162.956 371.063 254.983 318.778L265.471 312.82L275.625 319.534L275.626 319.534C292.523 330.685 310.548 347.678 324.624 367.161L324.624 367.162C337.242 384.586 346.923 404.304 350.348 424.169L350.348 424.171L350.599 425.591L350.599 427.608C350.599 427.609 350.599 427.609 350.599 427.61C350.427 449.698 343.236 471.544 329.861 491.692L330.277 491.969L329.861 491.692C317.171 510.813 298.812 528.576 275.632 543.428L413.526 639.655Z" stroke="white" stroke-opacity="0.5"/>
<path d="M557.065 68.0497L553.765 77.5371L553.708 77.5275C534.639 131.944 504.135 171.988 464.4 198.646C424.661 225.306 375.655 238.602 319.545 239.462L319.545 239.462L299.318 239.797V152.891V152.405L298.832 152.391C280.588 151.874 261.052 151.53 240.311 151.53H240.1L239.953 151.681C183.045 210.137 135.495 275.111 154.5 360.004C146.637 368.146 139.368 377.052 132.779 386.808L132.779 386.808C131.936 388.06 131.084 389.313 130.229 390.572C128.389 393.28 126.531 396.013 124.706 398.81C83.1983 289.426 137.097 193.887 217.069 119.17L217.294 119.395L217.642 119.131C220.784 116.743 225.391 114.914 231.494 113.685C237.592 112.457 245.15 111.834 254.164 111.834C268.091 111.834 290.023 112.436 320.049 113.64L320.049 113.64L339.186 114.396V198.491V199.034L339.727 198.989C380.057 195.629 415.207 184.918 444.302 164.875C473.401 144.828 496.409 115.469 512.486 74.8656L512.595 74.5895L512.405 74.3614C505.062 65.5496 496.848 58.1983 487.676 52.5735L487.675 52.5731C476.765 45.9059 464.129 41.6673 449.429 40.3703L449.385 40.3664L449.341 40.3703C434.728 41.6673 422.091 45.9061 411.181 52.5731L411.181 52.5735C402.008 58.1983 393.794 65.5496 386.451 74.3614L386.261 74.5893L386.37 74.8653C396.205 99.7514 409.099 121.086 424.972 138.61C421.949 140.713 418.846 142.667 415.663 144.544C415.277 144.77 414.891 144.998 414.504 145.225C406.601 149.873 398.342 154.731 389.482 158.313C370.878 135.879 356.098 109.011 345.148 77.7855L341.792 68.1358L347.75 59.7433C359.765 42.9225 373.828 28.8639 390.622 18.6676L390.624 18.6662C407.494 8.30471 426.935 1.96261 449.471 0.501047C472.008 1.96262 491.449 8.3048 508.233 18.5806C525.029 28.8639 539.092 42.8375 551.106 59.6572L557.065 68.0497Z" stroke="white" stroke-opacity="0.5"/>
<path d="M709.205 369.555C690.811 351.986 669.106 335.433 644.087 320.233L644.086 320.233L633.512 313.77L623.107 320.399L709.205 369.555ZM709.205 369.555C704.816 383.184 698.94 395.986 691.416 408.125M709.205 369.555L691.416 408.125M691.416 408.125C675.726 391.405 656.744 375.625 634.641 361.117L634.348 360.925L634.068 361.134C620.52 371.23 609.723 382.455 601.944 394.124L601.943 394.126C593.214 407.348 588.271 421.03 587.75 434.476L587.748 434.535L587.759 434.593C590.359 447.679 597.284 461.168 606.17 473.505L606.171 473.507C614.629 485.158 624.726 495.6 634.74 503.715L635.017 503.939L635.319 503.751C711.051 456.623 745.509 398.256 746.394 336.817C747.278 275.406 714.619 211.056 656.404 151.938L656.257 151.789H656.048C635.222 151.789 618.181 152.047 599.934 152.65L599.451 152.665V153.149V240.056L579.224 239.72C544.968 239.125 513.496 233.821 484.888 224.062C491.942 219.084 498.904 213.625 504.858 208.252C510.903 202.798 515.933 197.413 518.961 192.695C531.704 195.753 545.12 197.88 559.126 199.076L559.669 199.122V198.578V114.482L578.805 113.727L578.805 113.727C608.832 112.522 630.763 111.921 644.691 111.921C653.706 111.921 661.263 112.522 667.361 113.739C673.464 114.958 678.069 116.786 681.21 119.215L681.558 119.485L681.652 119.39C754.642 187.586 790.311 268.304 785.22 344.767C780.125 421.294 734.194 493.666 643.756 545.05L633.268 551.008L623.113 544.294L623.113 544.294C606.215 533.143 588.191 516.15 574.114 496.667L574.114 496.666C561.497 479.242 551.815 459.524 548.39 439.659L548.39 439.657L548.14 438.237V436.218C548.311 414.13 555.503 392.284 568.877 372.136C581.568 353.015 599.926 335.252 623.106 320.4L691.416 408.125Z" stroke="white" stroke-opacity="0.5"/>
<path d="M579.312 624.28L599.538 623.945V712.486V712.97L600.022 712.986C618.268 713.588 637.804 713.933 658.545 713.933H658.756L658.903 713.781C715.385 655.752 762.844 589.663 744.697 505.285C751.961 497.572 758.715 489.098 764.957 479.947L764.96 479.943C766.039 478.325 767.139 476.703 768.247 475.07C770.304 472.037 772.387 468.966 774.41 465.806C815.396 574.936 761.497 671.748 681.787 746.292L681.562 746.067L681.214 746.331C678.072 748.72 673.465 750.549 667.362 751.778C661.264 753.006 653.706 753.629 644.692 753.629C630.765 753.629 608.834 753.027 578.807 751.822L559.67 751.067V665.969V665.509V665.337H559.17H559.156L559.129 665.011C517.247 668.501 481.815 679.966 452.968 700.355C424.119 720.746 401.887 750.04 386.37 789.134L386.26 789.41L386.451 789.639C393.794 798.45 402.008 805.802 411.181 811.427L411.181 811.427C422.091 818.094 434.728 822.333 449.427 823.63L449.471 823.634L449.515 823.63C464.129 822.333 476.765 818.094 487.675 811.427L487.675 811.427C496.848 805.802 505.062 798.45 512.405 789.639L512.595 789.411L512.486 789.135C502.651 764.248 489.757 742.913 473.882 725.389C477.251 723.025 480.698 720.819 484.224 718.769L484.227 718.767C492.128 714.094 500.421 709.271 509.209 705.52C527.981 727.953 542.844 754.905 553.794 786.214L557.151 795.864L551.192 804.257C539.177 821.078 525.114 835.136 508.32 845.332L508.318 845.334C491.448 855.695 472.007 862.037 449.471 863.499C426.937 862.038 407.58 855.61 390.622 845.332C373.826 835.049 359.764 821.076 347.75 804.257L341.791 795.864L345.148 786.214C345.148 786.214 345.148 786.214 345.148 786.214C364.217 731.797 394.678 691.754 434.392 665.096C474.109 638.436 523.115 625.14 579.311 624.28L579.312 624.28Z" stroke="white" stroke-opacity="0.5"/>
<path d="M449.389 404.021C464.772 404.021 477.282 416.531 477.282 431.914C477.282 447.297 464.772 459.807 449.389 459.807C434.006 459.807 421.496 447.297 421.496 431.914C421.496 416.531 434.006 404.021 449.389 404.021Z" stroke="white" stroke-opacity="0.5"/>
<path d="M872.412 404.021C887.795 404.021 900.305 416.531 900.305 431.914C900.305 447.297 887.795 459.807 872.412 459.807C857.029 459.807 844.52 447.297 844.52 431.914C844.52 416.531 857.029 404.021 872.412 404.021Z" stroke="white" stroke-opacity="0.5"/>
<path d="M28.3927 404.021C43.7756 404.021 56.2855 416.531 56.2855 431.914C56.2855 447.297 43.7756 459.807 28.3927 459.807C13.0098 459.807 0.5 447.297 0.5 431.914C0.5 416.531 13.0098 404.021 28.3927 404.021Z" stroke="white" stroke-opacity="0.5"/>
</svg>
