<svg width="264" height="206" viewBox="0 0 264 206" fill="none" xmlns="http://www.w3.org/2000/svg">
<g clip-path="url(#clip0_284_1516)">
<path fill-rule="evenodd" clip-rule="evenodd" d="M126.903 92.0761C121.13 90.082 116.151 89.8219 110.181 89.7228V102.542C107.555 102.629 105.102 102.666 102.104 102.666C85.3574 85.6602 83.3507 65.4467 105.127 51.8967C106.564 53.0609 108.013 54.5596 109.227 56.2317C110.503 58.0028 111.494 59.935 111.865 61.8053C111.791 63.7251 111.085 65.682 109.834 67.577C108.719 69.2491 107.171 70.8593 105.226 72.3084C102.042 70.2276 99.3297 67.961 97.0629 65.5582C95.9357 67.3169 95.0315 69.1748 94.3626 71.1565C97.0258 73.7204 100.172 76.1108 103.789 78.3155L105.35 79.2692L106.886 78.2907C110.23 76.148 112.881 73.5841 114.714 70.8221C116.646 67.9114 117.687 64.7531 117.712 61.5576V61.2603L117.675 61.0497C117.179 58.1762 115.779 55.3275 113.959 52.8132C111.927 50.0016 109.326 47.5493 106.886 45.9391L105.387 44.9482L103.839 45.8276C77.306 60.9011 77.7767 88.2489 98.4007 107.484L98.4379 107.447C99.3669 108.165 101.138 108.512 103.739 108.512C105.746 108.512 108.905 108.425 113.228 108.252L116.052 108.14V95.7299C118.108 95.9033 120.078 96.2129 121.948 96.6712C122.741 95.3335 124.772 93.5252 126.903 92.0265V92.0761Z" fill="white"/>
<path fill-rule="evenodd" clip-rule="evenodd" d="M146.945 11.2091L147.44 9.78475L146.561 8.54618C144.826 6.11857 142.795 4.09969 140.367 2.6134C137.939 1.1271 135.128 0.210558 131.87 0C128.612 0.210558 125.8 1.1271 123.36 2.62578C120.932 4.09969 118.901 6.13095 117.167 8.55856L116.287 9.79714L116.783 11.2215C118.368 15.7423 120.511 19.6314 123.211 22.8765C124.574 22.3315 125.837 21.576 127.039 20.87C127.522 20.5851 127.993 20.2879 128.451 19.9658C126.147 17.4392 124.277 14.3551 122.852 10.7508C123.905 9.48749 125.082 8.4347 126.395 7.62963C127.956 6.67593 129.764 6.06902 131.857 5.88324C133.963 6.06902 135.772 6.67593 137.332 7.62963C138.645 8.4347 139.822 9.48749 140.875 10.7508C136.255 22.4182 127.658 27.6079 116.064 28.574V16.3987L113.24 16.2873C108.917 16.1139 105.758 16.0272 103.752 16.0272C101.151 16.0272 99.3792 16.3864 98.4502 17.0924L98.4131 17.0552C86.8314 27.8556 79.0029 41.7029 85.0972 57.569C85.506 56.9373 85.9272 56.3304 86.3359 55.7235C87.2897 54.3116 88.3426 53.0234 89.4822 51.8468C86.7323 39.6468 93.5574 30.308 101.757 21.8856C104.743 21.8856 107.555 21.9352 110.181 22.0095V34.5934L113.166 34.5439C129.343 34.2962 141.445 26.8771 146.945 11.1843V11.2091Z" fill="white"/>
<path fill-rule="evenodd" clip-rule="evenodd" d="M165.315 17.0681L165.277 17.1052C164.348 16.3868 162.577 16.04 159.976 16.04C157.969 16.04 154.811 16.1267 150.488 16.3001L147.663 16.4116V28.5868C145.632 28.4134 143.687 28.1038 141.842 27.6579C140.987 29.0203 138.918 30.8039 136.812 32.2778C140.974 33.7145 145.558 34.4948 150.549 34.5815L153.535 34.6311V22.0471C156.161 21.9604 158.613 21.9233 161.611 21.9233C178.358 38.9289 180.365 58.9072 158.589 72.4572C157.152 71.2929 155.702 69.7942 154.488 68.1222C153.213 66.351 152.222 64.4188 151.85 62.5486C151.924 60.6288 152.63 58.6718 153.882 56.7768C154.996 55.1047 156.545 53.4946 158.489 52.0454C161.698 54.151 164.447 56.4424 166.714 58.87C167.829 57.0865 168.696 55.2038 169.34 53.1973H169.365C166.702 50.6459 163.556 48.243 159.926 46.0384L158.366 45.0847L156.83 46.0631C153.485 48.2059 150.834 50.7697 149.001 53.5317C147.069 56.4424 146.028 59.6008 146.004 62.7963V63.0935L146.041 63.3041C146.536 66.1776 147.936 69.0263 149.757 71.5406C151.788 74.3522 154.389 76.8046 156.83 78.4147L158.328 79.4056L159.877 78.5262C185.951 63.7128 186.397 36.7738 165.315 17.1052V17.0681Z" fill="white"/>
<path fill-rule="evenodd" clip-rule="evenodd" d="M147.663 95.7791V108.19L150.487 108.301C154.81 108.475 157.969 108.561 159.975 108.561C162.577 108.561 164.348 108.202 165.277 107.496L165.314 107.533C176.859 96.7576 184.687 82.7245 178.667 66.8955C178.196 67.6387 177.701 68.3446 177.23 69.0506C176.326 70.3759 175.347 71.6021 174.295 72.7168C176.921 84.8425 170.108 94.3424 161.97 102.703C158.984 102.703 156.173 102.653 153.547 102.567V89.7472L150.561 89.7968C134.359 90.0445 122.282 97.4636 116.783 113.156L116.287 114.581L117.167 115.819C118.901 118.247 120.932 120.266 123.36 121.752C125.813 123.238 128.612 124.167 131.87 124.378C135.127 124.167 137.939 123.251 140.379 121.752C142.807 120.278 144.839 118.247 146.573 115.819L147.452 114.581L146.957 113.156C145.371 108.623 143.216 104.722 140.491 101.477C139.203 102.022 137.989 102.728 136.837 103.409C136.304 103.718 135.784 104.053 135.276 104.412C137.58 106.939 139.45 110.023 140.875 113.627C139.822 114.89 138.645 115.943 137.332 116.748C135.772 117.702 133.963 118.309 131.87 118.495C129.764 118.309 127.955 117.702 126.395 116.748C125.082 115.943 123.905 114.89 122.852 113.627C127.311 102.393 135.623 96.8071 147.663 95.8039V95.7791Z" fill="white"/>
<path fill-rule="evenodd" clip-rule="evenodd" d="M131.858 58.0889C134.112 58.0889 135.945 59.922 135.945 62.1762C135.945 64.4304 134.112 66.2635 131.858 66.2635C129.603 66.2635 127.77 64.4304 127.77 62.1762C127.77 59.922 129.603 58.0889 131.858 58.0889Z" fill="white"/>
<path fill-rule="evenodd" clip-rule="evenodd" d="M192.763 58.0889C195.018 58.0889 196.851 59.922 196.851 62.1762C196.851 64.4304 195.018 66.2635 192.763 66.2635C190.509 66.2635 188.676 64.4304 188.676 62.1762C188.676 59.922 190.509 58.0889 192.763 58.0889Z" fill="white"/>
<path fill-rule="evenodd" clip-rule="evenodd" d="M71.2488 58.0889C73.5032 58.0889 75.3364 59.922 75.3364 62.1762C75.3364 64.4304 73.5032 66.2635 71.2488 66.2635C68.9944 66.2635 67.1611 64.4304 67.1611 62.1762C67.1611 59.922 68.9944 58.0889 71.2488 58.0889Z" fill="white"/>
<path fill-rule="evenodd" clip-rule="evenodd" d="M29.0223 176.708H23.6464C19.2491 168.087 19.8065 168.966 14.4926 157.832C11.2101 164.247 7.8904 171.382 5.45019 176.708H0L14.4926 147.304L29.0223 176.708ZM57.7597 157.175C56.9422 154.525 54.663 153.261 50.8974 153.36V153.398H45.9427V148.518H51.7025C55.1832 148.518 57.8712 149.273 59.754 150.772C61.996 152.704 63.1603 155.454 63.2594 159.008C63.1603 161.659 62.2932 163.789 60.6706 165.412L58.8373 167.245L65.551 176.708H59.5186L51.6654 165.424C54.7125 165.015 56.6944 163.641 57.611 161.3C58.218 159.875 58.2675 158.5 57.7597 157.175ZM112.782 163.665C112.782 166.514 112.026 169.065 110.515 171.332C109.004 173.599 106.911 175.246 104.235 176.286C102.402 176.992 100.717 177.352 99.1564 177.352C97.5956 177.352 96.4313 177.252 95.4775 177.067V172.224C96.4313 172.583 97.4594 172.769 98.537 172.769C100.593 172.769 102.464 172.199 104.148 171.047C105.957 169.796 107.034 168.211 107.394 166.279H100.184V161.696H112.769V163.641L112.782 163.665ZM83.9206 161.671C84.094 158.104 85.6052 154.97 88.4418 152.27C91.4642 149.385 94.9077 147.935 98.7724 147.935C101.621 147.935 104.024 148.406 105.982 149.347L107.394 149.991L104.074 153.62C102.649 152.828 100.94 152.444 98.9582 152.444C96.3446 152.444 94.0035 153.41 91.9349 155.342C90.0025 157.163 88.9744 159.268 88.8506 161.671H83.8958H83.9206ZM158.378 176.708H153.002C148.778 168.421 148.964 168.545 143.848 157.832C140.603 164.173 137.221 171.431 134.806 176.708H129.355L143.848 147.304L158.378 176.708ZM191.351 152.902L185.666 153.014V176.695H180.711V153.014L174.877 152.902L175.026 148.48H191.351V152.902ZM215.085 176.708H210.093V153.051H215.085V176.708ZM264 162.588C264 166.712 262.476 170.193 259.417 173.054C256.37 175.915 252.765 177.339 248.628 177.339C244.491 177.339 240.861 175.927 237.839 173.091C234.817 170.255 233.305 166.749 233.305 162.588C233.305 158.426 234.841 154.971 237.926 152.097C240.923 149.323 244.503 147.935 248.64 147.935C252.778 147.935 256.37 149.323 259.392 152.097C262.464 154.971 264.012 158.463 264.012 162.588H264ZM259.008 162.588C259.008 159.739 257.992 157.336 255.973 155.379C253.954 153.422 251.502 152.444 248.628 152.444C245.754 152.444 243.302 153.422 241.283 155.367C239.264 157.311 238.248 159.727 238.248 162.6C238.248 165.474 239.276 167.815 241.32 169.771C243.364 171.728 245.804 172.707 248.628 172.707C251.452 172.707 253.88 171.716 255.936 169.747C257.992 167.777 259.008 165.387 259.008 162.6V162.588Z" fill="white"/>
<path fill-rule="evenodd" clip-rule="evenodd" d="M212.632 141.829C214.527 141.829 216.063 143.365 216.063 145.26C216.063 147.155 214.527 148.691 212.632 148.691C210.737 148.691 209.201 147.155 209.201 145.26C209.201 143.365 210.737 141.829 212.632 141.829Z" fill="white"/>
<mask id="path-10-outside-1_284_1516" maskUnits="userSpaceOnUse" x="63" y="194" width="137" height="12" fill="black">
<rect fill="white" x="63" y="194" width="137" height="12"/>
<path d="M64.125 203.5C63.99 203.38 63.975 203.17 64.08 203.035C64.2 202.885 64.41 202.87 64.545 202.99C65.325 203.62 66.63 204.355 67.995 204.34C68.91 204.34 69.735 204.07 70.305 203.65C70.89 203.23 71.205 202.675 71.205 202.09C71.205 201.49 70.92 201.04 70.35 200.65C69.78 200.275 68.94 199.99 67.92 199.795H67.89C66.915 199.615 66.06 199.345 65.415 198.91C64.77 198.49 64.335 197.86 64.335 197.08C64.335 196.285 64.77 195.595 65.43 195.115C66.09 194.635 66.975 194.35 67.965 194.35C69.345 194.35 70.38 195.025 71.205 195.565C71.355 195.67 71.4 195.865 71.295 196.03C71.205 196.18 70.995 196.225 70.845 196.12C70.02 195.58 69.12 195.01 67.965 195.01C67.11 195.01 66.345 195.265 65.82 195.64C65.295 196.03 64.995 196.54 64.995 197.08C65.01 197.605 65.25 197.995 65.775 198.355C66.3 198.715 67.08 198.97 68.025 199.15H68.055C69.105 199.345 70.035 199.645 70.725 200.11C71.415 200.56 71.88 201.25 71.88 202.09C71.88 202.93 71.4 203.68 70.695 204.19C69.99 204.7 69.045 205.015 67.995 205.015C66.39 205 64.995 204.19 64.125 203.5ZM87.9149 204.655V200.65C87.8849 199.405 86.8949 198.37 85.6349 198.37C84.3899 198.37 83.3699 199.405 83.3699 200.65V204.655V204.7C83.3699 204.715 83.3549 204.73 83.3549 204.73V204.76C83.3249 204.85 83.2499 204.91 83.1749 204.955C83.1149 204.985 83.0549 205 82.9949 205H82.9499H82.9199C82.9049 205 82.8899 204.985 82.8899 204.985C82.8599 204.985 82.8299 204.955 82.7999 204.94C82.7849 204.94 82.7699 204.925 82.7549 204.91L82.7099 204.865C82.6949 204.85 82.6949 204.835 82.6799 204.835C82.6799 204.82 82.6799 204.82 82.6649 204.805C82.6649 204.805 82.6649 204.79 82.6499 204.775C82.6499 204.76 82.6499 204.745 82.6349 204.73V204.685V204.655V200.65C82.6349 199.405 81.6299 198.37 80.3699 198.37C79.1099 198.37 78.1049 199.405 78.1049 200.65V204.655C78.1049 204.775 78.0449 204.88 77.9399 204.94C77.9249 204.955 77.8799 204.985 77.8499 204.985C77.8349 205 77.8199 205 77.7899 205H77.7449H77.6999C77.5649 204.985 77.4449 204.865 77.3999 204.73V204.655V200.65V200.53V198.01C77.3999 197.815 77.5649 197.665 77.7449 197.665C77.9549 197.665 78.1049 197.815 78.1049 198.01V198.715C78.6449 198.07 79.4549 197.665 80.3699 197.665C81.5099 197.665 82.4849 198.295 82.9949 199.225C83.5199 198.295 84.5099 197.665 85.6349 197.665C87.2849 197.665 88.6199 199 88.6199 200.65V204.655C88.6199 204.835 88.4699 205 88.2599 205C88.0649 205 87.9149 204.835 87.9149 204.655ZM100.472 197.65C100.667 197.65 100.832 197.8 100.832 198.01V204.64C100.832 204.835 100.667 205 100.472 205C100.277 205 100.112 204.835 100.112 204.64V203.545C99.4825 204.415 98.4775 205 97.3525 205C95.4175 205 93.8725 203.335 93.8725 201.325C93.8725 199.315 95.4175 197.65 97.3525 197.65C98.4775 197.65 99.4825 198.22 100.112 199.09V198.01C100.112 197.8 100.277 197.65 100.472 197.65ZM97.3525 204.28C98.8675 204.28 100.112 202.975 100.112 201.325C100.112 199.675 98.8675 198.355 97.3525 198.355C95.8525 198.355 94.5925 199.675 94.5925 201.325C94.5925 202.975 95.8525 204.28 97.3525 204.28ZM106.955 204.64V198.025C106.955 197.815 107.12 197.665 107.33 197.665C107.51 197.665 107.675 197.815 107.675 198.025V199.645C107.705 199.585 107.735 199.525 107.78 199.465C108.335 198.595 109.31 197.665 110.72 197.665C110.915 197.665 111.08 197.815 111.08 198.025C111.08 198.22 110.915 198.385 110.72 198.385C109.76 198.385 109.1 198.925 108.59 199.585C108.095 200.245 107.81 200.995 107.705 201.295C107.675 201.355 107.675 201.385 107.675 201.415V204.64C107.675 204.85 107.51 205 107.33 205C107.12 205 106.955 204.85 106.955 204.64ZM118.751 197.65C118.931 197.65 119.111 197.83 119.111 198.01C119.111 198.19 118.931 198.37 118.751 198.37H117.806V203.725C117.806 204.085 118.166 204.265 118.346 204.265C118.526 204.265 118.721 204.46 118.721 204.64C118.721 204.82 118.526 205 118.346 205C117.611 205 117.056 204.46 117.056 203.725V198.37H116.141C115.781 198.37 115.781 198.19 115.781 198.01C115.781 197.83 115.781 197.65 116.141 197.65H117.056V194.92C117.056 194.74 117.236 194.56 117.416 194.56C117.611 194.56 117.806 194.74 117.806 194.92V197.65H118.751ZM132.704 201.325C132.704 199.33 134.264 197.65 136.184 197.65C138.119 197.65 139.664 199.33 139.664 201.325C139.664 203.32 138.119 205 136.184 205C134.264 205 132.704 203.32 132.704 201.325ZM133.424 201.325C133.424 202.96 134.684 204.28 136.184 204.28C137.684 204.28 138.944 202.96 138.944 201.325C138.944 199.69 137.684 198.355 136.184 198.355C134.684 198.355 133.424 199.69 133.424 201.325ZM147.344 204.97C147.314 204.97 147.299 204.955 147.284 204.94C147.209 204.91 147.164 204.85 147.134 204.775L144.374 198.205C144.299 198.025 144.389 197.815 144.554 197.74C144.734 197.665 144.959 197.755 145.019 197.935L147.464 203.725L149.159 199.69C149.219 199.555 149.369 199.465 149.504 199.465C149.654 199.465 149.804 199.555 149.864 199.69L151.559 203.725L153.989 197.935C154.064 197.755 154.289 197.665 154.454 197.74C154.634 197.815 154.724 198.025 154.649 198.205L151.904 204.745C151.874 204.82 151.829 204.88 151.769 204.925C151.709 204.97 151.649 205 151.589 205H151.559H151.514C151.394 204.985 151.259 204.895 151.229 204.775L151.214 204.76L149.504 200.695L147.809 204.745C147.809 204.745 147.794 204.76 147.794 204.775C147.749 204.91 147.599 205 147.479 205C147.434 205 147.389 204.985 147.344 204.97ZM165.994 204.64V200.65C165.994 199.405 164.989 198.385 163.729 198.385C162.484 198.385 161.479 199.405 161.449 200.65V204.64V204.7C161.434 204.76 161.419 204.82 161.374 204.865C161.314 204.955 161.209 205 161.104 205H161.014C160.909 204.97 160.819 204.895 160.774 204.805C160.759 204.79 160.759 204.775 160.759 204.76C160.759 204.745 160.744 204.73 160.744 204.73V204.64V200.65V200.53V198.025C160.744 197.83 160.894 197.665 161.104 197.665C161.299 197.665 161.449 197.83 161.449 198.025V198.73C161.989 198.085 162.814 197.665 163.729 197.665C165.379 197.665 166.714 199.015 166.714 200.65V204.64C166.714 204.85 166.549 205 166.354 205C166.159 205 165.994 204.85 165.994 204.64ZM175.988 205C174.008 205 172.418 203.35 172.418 201.34C172.418 199.3 174.008 197.65 175.988 197.65C177.878 197.65 179.378 199.15 179.528 201.07V201.085V201.13C179.528 201.325 179.363 201.46 179.168 201.46H173.138C173.213 203.065 174.473 204.28 175.988 204.28C176.963 204.28 177.863 203.77 178.358 202.945C178.463 202.765 178.688 202.735 178.838 202.825C179.003 202.945 179.063 203.155 178.958 203.335C178.328 204.34 177.233 205 175.988 205ZM175.988 198.37C174.608 198.37 173.453 199.36 173.183 200.755H178.748C178.508 199.375 177.338 198.37 175.988 198.37ZM184.761 204.64V198.025C184.761 197.815 184.926 197.665 185.136 197.665C185.316 197.665 185.481 197.815 185.481 198.025V199.645C185.511 199.585 185.541 199.525 185.586 199.465C186.141 198.595 187.116 197.665 188.526 197.665C188.721 197.665 188.886 197.815 188.886 198.025C188.886 198.22 188.721 198.385 188.526 198.385C187.566 198.385 186.906 198.925 186.396 199.585C185.901 200.245 185.616 200.995 185.511 201.295C185.481 201.355 185.481 201.385 185.481 201.415V204.64C185.481 204.85 185.316 205 185.136 205C184.926 205 184.761 204.85 184.761 204.64ZM193.888 203.95C193.738 203.815 193.723 203.62 193.843 203.47C193.963 203.32 194.188 203.29 194.353 203.425C194.863 203.8 195.673 204.28 196.603 204.28C197.173 204.28 197.668 204.1 197.998 203.83C198.358 203.59 198.553 203.26 198.553 202.93C198.538 202.585 198.403 202.345 198.028 202.03C197.713 201.79 197.188 201.61 196.468 201.49L196.438 201.475C195.778 201.355 195.193 201.205 194.773 200.905C194.308 200.635 193.978 200.155 193.978 199.585C193.978 199 194.308 198.49 194.773 198.145C195.208 197.845 195.823 197.65 196.573 197.65C197.518 197.65 198.193 198.085 198.763 198.445C198.928 198.565 198.973 198.79 198.868 198.955C198.763 199.12 198.538 199.165 198.373 199.06C197.833 198.7 197.293 198.325 196.573 198.325C195.973 198.325 195.493 198.49 195.178 198.745C194.878 198.985 194.713 199.285 194.713 199.585C194.713 199.885 194.848 200.095 195.133 200.32C195.463 200.545 195.958 200.725 196.633 200.83H196.663C197.368 200.935 197.938 201.145 198.448 201.43C198.928 201.745 199.273 202.315 199.273 202.93C199.273 203.545 198.928 204.04 198.433 204.415C197.923 204.79 197.323 205 196.603 205C195.418 204.985 194.488 204.43 193.888 203.95Z"/>
</mask>
<path d="M64.125 203.5C63.99 203.38 63.975 203.17 64.08 203.035C64.2 202.885 64.41 202.87 64.545 202.99C65.325 203.62 66.63 204.355 67.995 204.34C68.91 204.34 69.735 204.07 70.305 203.65C70.89 203.23 71.205 202.675 71.205 202.09C71.205 201.49 70.92 201.04 70.35 200.65C69.78 200.275 68.94 199.99 67.92 199.795H67.89C66.915 199.615 66.06 199.345 65.415 198.91C64.77 198.49 64.335 197.86 64.335 197.08C64.335 196.285 64.77 195.595 65.43 195.115C66.09 194.635 66.975 194.35 67.965 194.35C69.345 194.35 70.38 195.025 71.205 195.565C71.355 195.67 71.4 195.865 71.295 196.03C71.205 196.18 70.995 196.225 70.845 196.12C70.02 195.58 69.12 195.01 67.965 195.01C67.11 195.01 66.345 195.265 65.82 195.64C65.295 196.03 64.995 196.54 64.995 197.08C65.01 197.605 65.25 197.995 65.775 198.355C66.3 198.715 67.08 198.97 68.025 199.15H68.055C69.105 199.345 70.035 199.645 70.725 200.11C71.415 200.56 71.88 201.25 71.88 202.09C71.88 202.93 71.4 203.68 70.695 204.19C69.99 204.7 69.045 205.015 67.995 205.015C66.39 205 64.995 204.19 64.125 203.5ZM87.9149 204.655V200.65C87.8849 199.405 86.8949 198.37 85.6349 198.37C84.3899 198.37 83.3699 199.405 83.3699 200.65V204.655V204.7C83.3699 204.715 83.3549 204.73 83.3549 204.73V204.76C83.3249 204.85 83.2499 204.91 83.1749 204.955C83.1149 204.985 83.0549 205 82.9949 205H82.9499H82.9199C82.9049 205 82.8899 204.985 82.8899 204.985C82.8599 204.985 82.8299 204.955 82.7999 204.94C82.7849 204.94 82.7699 204.925 82.7549 204.91L82.7099 204.865C82.6949 204.85 82.6949 204.835 82.6799 204.835C82.6799 204.82 82.6799 204.82 82.6649 204.805C82.6649 204.805 82.6649 204.79 82.6499 204.775C82.6499 204.76 82.6499 204.745 82.6349 204.73V204.685V204.655V200.65C82.6349 199.405 81.6299 198.37 80.3699 198.37C79.1099 198.37 78.1049 199.405 78.1049 200.65V204.655C78.1049 204.775 78.0449 204.88 77.9399 204.94C77.9249 204.955 77.8799 204.985 77.8499 204.985C77.8349 205 77.8199 205 77.7899 205H77.7449H77.6999C77.5649 204.985 77.4449 204.865 77.3999 204.73V204.655V200.65V200.53V198.01C77.3999 197.815 77.5649 197.665 77.7449 197.665C77.9549 197.665 78.1049 197.815 78.1049 198.01V198.715C78.6449 198.07 79.4549 197.665 80.3699 197.665C81.5099 197.665 82.4849 198.295 82.9949 199.225C83.5199 198.295 84.5099 197.665 85.6349 197.665C87.2849 197.665 88.6199 199 88.6199 200.65V204.655C88.6199 204.835 88.4699 205 88.2599 205C88.0649 205 87.9149 204.835 87.9149 204.655ZM100.472 197.65C100.667 197.65 100.832 197.8 100.832 198.01V204.64C100.832 204.835 100.667 205 100.472 205C100.277 205 100.112 204.835 100.112 204.64V203.545C99.4825 204.415 98.4775 205 97.3525 205C95.4175 205 93.8725 203.335 93.8725 201.325C93.8725 199.315 95.4175 197.65 97.3525 197.65C98.4775 197.65 99.4825 198.22 100.112 199.09V198.01C100.112 197.8 100.277 197.65 100.472 197.65ZM97.3525 204.28C98.8675 204.28 100.112 202.975 100.112 201.325C100.112 199.675 98.8675 198.355 97.3525 198.355C95.8525 198.355 94.5925 199.675 94.5925 201.325C94.5925 202.975 95.8525 204.28 97.3525 204.28ZM106.955 204.64V198.025C106.955 197.815 107.12 197.665 107.33 197.665C107.51 197.665 107.675 197.815 107.675 198.025V199.645C107.705 199.585 107.735 199.525 107.78 199.465C108.335 198.595 109.31 197.665 110.72 197.665C110.915 197.665 111.08 197.815 111.08 198.025C111.08 198.22 110.915 198.385 110.72 198.385C109.76 198.385 109.1 198.925 108.59 199.585C108.095 200.245 107.81 200.995 107.705 201.295C107.675 201.355 107.675 201.385 107.675 201.415V204.64C107.675 204.85 107.51 205 107.33 205C107.12 205 106.955 204.85 106.955 204.64ZM118.751 197.65C118.931 197.65 119.111 197.83 119.111 198.01C119.111 198.19 118.931 198.37 118.751 198.37H117.806V203.725C117.806 204.085 118.166 204.265 118.346 204.265C118.526 204.265 118.721 204.46 118.721 204.64C118.721 204.82 118.526 205 118.346 205C117.611 205 117.056 204.46 117.056 203.725V198.37H116.141C115.781 198.37 115.781 198.19 115.781 198.01C115.781 197.83 115.781 197.65 116.141 197.65H117.056V194.92C117.056 194.74 117.236 194.56 117.416 194.56C117.611 194.56 117.806 194.74 117.806 194.92V197.65H118.751ZM132.704 201.325C132.704 199.33 134.264 197.65 136.184 197.65C138.119 197.65 139.664 199.33 139.664 201.325C139.664 203.32 138.119 205 136.184 205C134.264 205 132.704 203.32 132.704 201.325ZM133.424 201.325C133.424 202.96 134.684 204.28 136.184 204.28C137.684 204.28 138.944 202.96 138.944 201.325C138.944 199.69 137.684 198.355 136.184 198.355C134.684 198.355 133.424 199.69 133.424 201.325ZM147.344 204.97C147.314 204.97 147.299 204.955 147.284 204.94C147.209 204.91 147.164 204.85 147.134 204.775L144.374 198.205C144.299 198.025 144.389 197.815 144.554 197.74C144.734 197.665 144.959 197.755 145.019 197.935L147.464 203.725L149.159 199.69C149.219 199.555 149.369 199.465 149.504 199.465C149.654 199.465 149.804 199.555 149.864 199.69L151.559 203.725L153.989 197.935C154.064 197.755 154.289 197.665 154.454 197.74C154.634 197.815 154.724 198.025 154.649 198.205L151.904 204.745C151.874 204.82 151.829 204.88 151.769 204.925C151.709 204.97 151.649 205 151.589 205H151.559H151.514C151.394 204.985 151.259 204.895 151.229 204.775L151.214 204.76L149.504 200.695L147.809 204.745C147.809 204.745 147.794 204.76 147.794 204.775C147.749 204.91 147.599 205 147.479 205C147.434 205 147.389 204.985 147.344 204.97ZM165.994 204.64V200.65C165.994 199.405 164.989 198.385 163.729 198.385C162.484 198.385 161.479 199.405 161.449 200.65V204.64V204.7C161.434 204.76 161.419 204.82 161.374 204.865C161.314 204.955 161.209 205 161.104 205H161.014C160.909 204.97 160.819 204.895 160.774 204.805C160.759 204.79 160.759 204.775 160.759 204.76C160.759 204.745 160.744 204.73 160.744 204.73V204.64V200.65V200.53V198.025C160.744 197.83 160.894 197.665 161.104 197.665C161.299 197.665 161.449 197.83 161.449 198.025V198.73C161.989 198.085 162.814 197.665 163.729 197.665C165.379 197.665 166.714 199.015 166.714 200.65V204.64C166.714 204.85 166.549 205 166.354 205C166.159 205 165.994 204.85 165.994 204.64ZM175.988 205C174.008 205 172.418 203.35 172.418 201.34C172.418 199.3 174.008 197.65 175.988 197.65C177.878 197.65 179.378 199.15 179.528 201.07V201.085V201.13C179.528 201.325 179.363 201.46 179.168 201.46H173.138C173.213 203.065 174.473 204.28 175.988 204.28C176.963 204.28 177.863 203.77 178.358 202.945C178.463 202.765 178.688 202.735 178.838 202.825C179.003 202.945 179.063 203.155 178.958 203.335C178.328 204.34 177.233 205 175.988 205ZM175.988 198.37C174.608 198.37 173.453 199.36 173.183 200.755H178.748C178.508 199.375 177.338 198.37 175.988 198.37ZM184.761 204.64V198.025C184.761 197.815 184.926 197.665 185.136 197.665C185.316 197.665 185.481 197.815 185.481 198.025V199.645C185.511 199.585 185.541 199.525 185.586 199.465C186.141 198.595 187.116 197.665 188.526 197.665C188.721 197.665 188.886 197.815 188.886 198.025C188.886 198.22 188.721 198.385 188.526 198.385C187.566 198.385 186.906 198.925 186.396 199.585C185.901 200.245 185.616 200.995 185.511 201.295C185.481 201.355 185.481 201.385 185.481 201.415V204.64C185.481 204.85 185.316 205 185.136 205C184.926 205 184.761 204.85 184.761 204.64ZM193.888 203.95C193.738 203.815 193.723 203.62 193.843 203.47C193.963 203.32 194.188 203.29 194.353 203.425C194.863 203.8 195.673 204.28 196.603 204.28C197.173 204.28 197.668 204.1 197.998 203.83C198.358 203.59 198.553 203.26 198.553 202.93C198.538 202.585 198.403 202.345 198.028 202.03C197.713 201.79 197.188 201.61 196.468 201.49L196.438 201.475C195.778 201.355 195.193 201.205 194.773 200.905C194.308 200.635 193.978 200.155 193.978 199.585C193.978 199 194.308 198.49 194.773 198.145C195.208 197.845 195.823 197.65 196.573 197.65C197.518 197.65 198.193 198.085 198.763 198.445C198.928 198.565 198.973 198.79 198.868 198.955C198.763 199.12 198.538 199.165 198.373 199.06C197.833 198.7 197.293 198.325 196.573 198.325C195.973 198.325 195.493 198.49 195.178 198.745C194.878 198.985 194.713 199.285 194.713 199.585C194.713 199.885 194.848 200.095 195.133 200.32C195.463 200.545 195.958 200.725 196.633 200.83H196.663C197.368 200.935 197.938 201.145 198.448 201.43C198.928 201.745 199.273 202.315 199.273 202.93C199.273 203.545 198.928 204.04 198.433 204.415C197.923 204.79 197.323 205 196.603 205C195.418 204.985 194.488 204.43 193.888 203.95Z" fill="white"/>
<path d="M64.125 203.5L63.9257 203.724L63.932 203.73L63.9386 203.735L64.125 203.5ZM64.08 203.035L63.8457 202.848L63.8432 202.851L64.08 203.035ZM64.545 202.99L64.3457 203.214L64.351 203.219L64.3565 203.223L64.545 202.99ZM67.995 204.34V204.04L67.9917 204.04L67.995 204.34ZM70.305 203.65L70.13 203.406L70.127 203.408L70.305 203.65ZM70.35 200.65L70.5194 200.402L70.5149 200.399L70.35 200.65ZM67.92 199.795L67.9763 199.5L67.9484 199.495H67.92V199.795ZM67.89 199.795L67.8355 200.09L67.8625 200.095H67.89V199.795ZM65.415 198.91L65.5828 198.661L65.5787 198.659L65.415 198.91ZM65.43 195.115L65.2535 194.872H65.2535L65.43 195.115ZM71.205 195.565L71.3771 195.319L71.3693 195.314L71.205 195.565ZM71.295 196.03L71.0418 195.869L71.0378 195.876L71.295 196.03ZM70.845 196.12L71.0171 195.874L71.0093 195.869L70.845 196.12ZM65.82 195.64L65.6456 195.396L65.6411 195.399L65.82 195.64ZM64.995 197.08H64.6949L64.6951 197.089L64.995 197.08ZM65.775 198.355L65.6053 198.602L65.775 198.355ZM68.025 199.15L67.9689 199.445L67.9967 199.45H68.025V199.15ZM68.055 199.15L68.1098 198.855L68.0826 198.85H68.055V199.15ZM70.725 200.11L70.5573 200.359L70.5611 200.361L70.725 200.11ZM70.695 204.19L70.8708 204.433L70.695 204.19ZM67.995 205.015L67.9922 205.315H67.995V205.015ZM64.3243 203.276C64.3187 203.271 64.3126 203.261 64.3113 203.247C64.3099 203.231 64.3149 203.222 64.3168 203.219L63.8432 202.851C63.6421 203.109 63.6714 203.498 63.9257 203.724L64.3243 203.276ZM64.3143 203.222C64.3189 203.217 64.3228 203.214 64.3255 203.213C64.3283 203.211 64.331 203.21 64.3334 203.21C64.3381 203.21 64.3419 203.211 64.3457 203.214L64.7443 202.766C64.4792 202.53 64.0716 202.565 63.8457 202.848L64.3143 203.222ZM64.3565 203.223C65.1618 203.874 66.5337 204.656 67.9983 204.64L67.9917 204.04C66.7263 204.054 65.4882 203.366 64.7335 202.757L64.3565 203.223ZM67.995 204.64C68.9652 204.64 69.8547 204.354 70.483 203.892L70.127 203.408C69.6153 203.786 68.8548 204.04 67.995 204.04V204.64ZM70.48 203.894C71.1254 203.43 71.505 202.792 71.505 202.09H70.905C70.905 202.558 70.6546 203.03 70.13 203.406L70.48 203.894ZM71.505 202.09C71.505 201.366 71.1486 200.833 70.5194 200.402L70.1806 200.898C70.6914 201.247 70.905 201.614 70.905 202.09H71.505ZM70.5149 200.399C69.8971 199.993 69.0125 199.698 67.9763 199.5L67.8637 200.09C68.8675 200.282 69.6629 200.557 70.1851 200.901L70.5149 200.399ZM67.92 199.495H67.89V200.095H67.92V199.495ZM67.9445 199.5C66.9855 199.323 66.1776 199.062 65.5827 198.661L65.2473 199.159C65.9424 199.628 66.8445 199.907 67.8355 200.09L67.9445 199.5ZM65.5787 198.659C64.9966 198.28 64.635 197.735 64.635 197.08H64.035C64.035 197.985 64.5434 198.7 65.2513 199.161L65.5787 198.659ZM64.635 197.08C64.635 196.403 65.0043 195.796 65.6065 195.358L65.2535 194.872C64.5357 195.394 64.035 196.167 64.035 197.08H64.635ZM65.6065 195.358C66.2097 194.919 67.0313 194.65 67.965 194.65V194.05C66.9187 194.05 65.9703 194.351 65.2535 194.872L65.6065 195.358ZM67.965 194.65C69.2452 194.65 70.2111 195.273 71.0407 195.816L71.3693 195.314C70.5489 194.777 69.4448 194.05 67.965 194.05V194.65ZM71.033 195.811C71.0471 195.821 71.0507 195.83 71.0517 195.835C71.0523 195.838 71.0525 195.842 71.0516 195.846C71.0507 195.851 71.0484 195.859 71.0419 195.869L71.5481 196.191C71.7408 195.888 71.6563 195.515 71.377 195.319L71.033 195.811ZM71.0378 195.876C71.0398 195.872 71.04 195.875 71.0324 195.877C71.0252 195.878 71.0202 195.876 71.017 195.874L70.673 196.366C70.9616 196.568 71.3703 196.488 71.5522 196.184L71.0378 195.876ZM71.0093 195.869C70.1898 195.333 69.2203 194.71 67.965 194.71V195.31C69.0197 195.31 69.8502 195.827 70.6807 196.371L71.0093 195.869ZM67.965 194.71C67.0539 194.71 66.2265 194.981 65.6456 195.396L65.9944 195.884C66.4635 195.549 67.1661 195.31 67.965 195.31V194.71ZM65.6411 195.399C65.0617 195.83 64.695 196.421 64.695 197.08H65.295C65.295 196.659 65.5283 196.23 65.9989 195.881L65.6411 195.399ZM64.6951 197.089C64.704 197.398 64.7802 197.679 64.9379 197.936C65.0938 198.19 65.3196 198.406 65.6053 198.602L65.9447 198.108C65.7054 197.944 65.5487 197.785 65.4496 197.623C65.3523 197.464 65.301 197.287 65.2949 197.071L64.6951 197.089ZM65.6053 198.602C66.1821 198.998 67.0112 199.262 67.9689 199.445L68.0811 198.855C67.1488 198.678 66.4179 198.432 65.9447 198.108L65.6053 198.602ZM68.025 199.45H68.055V198.85H68.025V199.45ZM68.0002 199.445C69.0331 199.637 69.9167 199.927 70.5573 200.359L70.8927 199.861C70.1533 199.363 69.1769 199.053 68.1098 198.855L68.0002 199.445ZM70.5611 200.361C71.1857 200.769 71.58 201.373 71.58 202.09H72.18C72.18 201.127 71.6443 200.351 70.8889 199.859L70.5611 200.361ZM71.58 202.09C71.58 202.81 71.1679 203.478 70.5192 203.947L70.8708 204.433C71.6321 203.882 72.18 203.05 72.18 202.09H71.58ZM70.5192 203.947C69.8687 204.417 68.9861 204.715 67.995 204.715V205.315C69.1039 205.315 70.1113 204.983 70.8708 204.433L70.5192 203.947ZM67.9978 204.715C66.488 204.701 65.157 203.936 64.3114 203.265L63.9386 203.735C64.833 204.444 66.292 205.299 67.9922 205.315L67.9978 204.715ZM87.9149 200.65H88.215L88.2148 200.643L87.9149 200.65ZM83.3549 204.73L83.1428 204.518L83.0549 204.606V204.73H83.3549ZM83.3549 204.76L83.6395 204.855L83.6549 204.809V204.76H83.3549ZM83.1749 204.955L83.309 205.223L83.3194 205.218L83.3292 205.212L83.1749 204.955ZM82.8899 204.985L83.102 204.773L83.0141 204.685H82.8899V204.985ZM82.7999 204.94L82.934 204.672L82.8707 204.64H82.7999V204.94ZM82.7549 204.91L82.5428 205.122L82.5428 205.122L82.7549 204.91ZM82.7099 204.865L82.922 204.653L82.922 204.653L82.7099 204.865ZM82.6799 204.835H82.3799V205.135H82.6799V204.835ZM82.6649 204.805H82.3649V204.929L82.4527 205.017L82.6649 204.805ZM82.6499 204.775H82.3499V204.899L82.4378 204.987L82.6499 204.775ZM82.6349 204.73H82.3349V204.854L82.4228 204.942L82.6349 204.73ZM77.9399 204.94L77.791 204.68L77.7562 204.699L77.7278 204.728L77.9399 204.94ZM77.8499 204.985V204.685H77.7256L77.6378 204.773L77.8499 204.985ZM77.6999 205L77.6668 205.298L77.6833 205.3H77.6999V205ZM77.3999 204.73H77.0999V204.779L77.1153 204.825L77.3999 204.73ZM78.1049 198.715H77.8049V199.541L78.3349 198.908L78.1049 198.715ZM82.9949 199.225L82.7318 199.369L82.9911 199.842L83.2561 199.372L82.9949 199.225ZM88.2149 204.655V200.65H87.6149V204.655H88.2149ZM88.2148 200.643C88.1811 199.246 87.0682 198.07 85.6349 198.07V198.67C86.7216 198.67 87.5886 199.564 87.615 200.657L88.2148 200.643ZM85.6349 198.07C84.2216 198.07 83.0699 199.242 83.0699 200.65H83.6699C83.6699 199.568 84.5581 198.67 85.6349 198.67V198.07ZM83.0699 200.65V204.655H83.6699V200.65H83.0699ZM83.0699 204.655V204.7H83.6699V204.655H83.0699ZM83.0699 204.7C83.0699 204.655 83.0808 204.62 83.089 204.6C83.0974 204.579 83.1067 204.563 83.1128 204.554C83.1191 204.545 83.125 204.537 83.1295 204.532C83.1318 204.529 83.1341 204.527 83.1362 204.525C83.1373 204.523 83.1384 204.522 83.1395 204.521C83.14 204.521 83.1406 204.52 83.1411 204.52C83.1414 204.519 83.1417 204.519 83.1419 204.519C83.1421 204.519 83.1422 204.518 83.1423 204.518C83.1424 204.518 83.1425 204.518 83.1425 204.518C83.1426 204.518 83.1426 204.518 83.1426 204.518C83.1427 204.518 83.1428 204.518 83.3549 204.73C83.567 204.942 83.5671 204.942 83.5671 204.942C83.5671 204.942 83.5672 204.942 83.5672 204.942C83.5673 204.942 83.5674 204.942 83.5674 204.942C83.5676 204.942 83.5677 204.941 83.5679 204.941C83.5681 204.941 83.5684 204.941 83.5687 204.94C83.5693 204.94 83.57 204.939 83.5706 204.938C83.5719 204.937 83.5733 204.936 83.5748 204.934C83.5778 204.931 83.5813 204.927 83.585 204.923C83.5922 204.914 83.6019 204.902 83.612 204.887C83.6257 204.866 83.6699 204.798 83.6699 204.7H83.0699ZM83.0549 204.73V204.76H83.6549V204.73H83.0549ZM83.0703 204.665C83.0732 204.656 83.0765 204.655 83.0696 204.662C83.0616 204.67 83.0468 204.682 83.0205 204.698L83.3292 205.212C83.4198 205.158 83.5743 205.05 83.6395 204.855L83.0703 204.665ZM83.0407 204.687C83.0174 204.698 83.0031 204.7 82.9949 204.7V205.3C83.1067 205.3 83.2124 205.272 83.309 205.223L83.0407 204.687ZM82.9949 204.7H82.9499V205.3H82.9949V204.7ZM82.9499 204.7H82.9199V205.3H82.9499V204.7ZM82.9199 204.7C82.965 204.7 82.9999 204.711 83.0203 204.719C83.0413 204.728 83.0566 204.737 83.0657 204.743C83.0752 204.749 83.0826 204.755 83.0877 204.76C83.0904 204.762 83.0929 204.764 83.0953 204.766C83.0964 204.767 83.0976 204.769 83.0987 204.77C83.0992 204.77 83.0998 204.771 83.1004 204.771C83.1006 204.771 83.1009 204.772 83.1012 204.772C83.1013 204.772 83.1015 204.772 83.1016 204.772C83.1017 204.773 83.1017 204.773 83.1018 204.773C83.1018 204.773 83.1019 204.773 83.1019 204.773C83.102 204.773 83.102 204.773 82.8899 204.985C82.6777 205.197 82.6778 205.197 82.6779 205.197C82.6779 205.197 82.6779 205.197 82.678 205.197C82.678 205.197 82.6781 205.197 82.6782 205.198C82.6783 205.198 82.6785 205.198 82.6786 205.198C82.6789 205.198 82.6792 205.199 82.6795 205.199C82.6801 205.199 82.6808 205.2 82.6814 205.201C82.6828 205.202 82.6843 205.203 82.6859 205.205C82.6891 205.208 82.6929 205.211 82.6972 205.215C82.7056 205.222 82.7177 205.232 82.7328 205.242C82.7534 205.256 82.8222 205.3 82.9199 205.3V204.7ZM82.8899 204.685C82.9323 204.685 82.9641 204.696 82.9803 204.702C82.9888 204.706 82.995 204.709 82.9985 204.711C83.0003 204.712 83.0017 204.712 83.0025 204.713C83.0034 204.713 83.0039 204.714 83.0039 204.714C83.0039 204.714 83.0036 204.714 83.0028 204.713C83.0021 204.713 83.0011 204.712 82.9996 204.711C82.9978 204.71 82.9915 204.706 82.987 204.703C82.9772 204.696 82.9578 204.684 82.934 204.672L82.6657 205.208C82.6569 205.204 82.6525 205.201 82.6578 205.204C82.6607 205.206 82.662 205.207 82.6677 205.211C82.6721 205.214 82.6786 205.218 82.6859 205.223C82.6995 205.231 82.7238 205.246 82.7545 205.258C82.7857 205.271 82.8324 205.285 82.8899 205.285V204.685ZM82.7999 204.64C82.8468 204.64 82.8842 204.652 82.9089 204.663C82.9329 204.673 82.9494 204.685 82.9574 204.691C82.9703 204.7 82.9784 204.709 82.967 204.698L82.5428 205.122C82.5463 205.126 82.5695 205.15 82.5974 205.171C82.6221 205.189 82.6945 205.24 82.7999 205.24V204.64ZM82.967 204.698L82.922 204.653L82.4978 205.077L82.5428 205.122L82.967 204.698ZM82.922 204.653C82.9425 204.673 82.9702 204.717 82.9445 204.678C82.9367 204.666 82.9099 204.626 82.8608 204.592C82.8034 204.552 82.7392 204.535 82.6799 204.535V205.135C82.628 205.135 82.5695 205.12 82.5168 205.083C82.4724 205.052 82.4493 205.017 82.4453 205.011C82.4427 205.007 82.4406 205.004 82.4426 205.007C82.4435 205.008 82.447 205.014 82.4514 205.02C82.4608 205.035 82.4759 205.055 82.4978 205.077L82.922 204.653ZM82.9799 204.835C82.9799 204.834 82.9799 204.829 82.9798 204.824C82.9797 204.819 82.9794 204.809 82.9782 204.796C82.9753 204.767 82.9675 204.728 82.9463 204.686C82.9277 204.649 82.9057 204.623 82.8965 204.613C82.8879 204.604 82.8785 204.594 82.877 204.593L82.4527 205.017C82.4588 205.023 82.455 205.019 82.4506 205.015C82.4456 205.009 82.4264 204.988 82.4097 204.954C82.3904 204.916 82.3836 204.88 82.3811 204.856C82.3795 204.84 82.3799 204.826 82.3799 204.835H82.9799ZM82.6649 204.805C82.9649 204.805 82.9649 204.805 82.9649 204.805C82.9649 204.805 82.9649 204.805 82.9649 204.804C82.9649 204.804 82.9649 204.804 82.9649 204.804C82.9649 204.803 82.9649 204.803 82.9649 204.803C82.9649 204.802 82.9649 204.801 82.9648 204.8C82.9648 204.799 82.9648 204.797 82.9647 204.795C82.9646 204.792 82.9644 204.788 82.9642 204.784C82.9637 204.777 82.9629 204.769 82.9616 204.76C82.9591 204.743 82.9549 204.723 82.9476 204.701C82.9328 204.656 82.9062 204.607 82.862 204.563L82.4378 204.987C82.4086 204.958 82.3895 204.924 82.3784 204.89C82.373 204.874 82.3697 204.859 82.3677 204.845C82.3667 204.838 82.366 204.831 82.3655 204.824C82.3653 204.821 82.3651 204.818 82.365 204.815C82.365 204.813 82.3649 204.811 82.3649 204.81C82.3649 204.809 82.3649 204.808 82.3649 204.807C82.3649 204.807 82.3649 204.807 82.3649 204.806C82.3649 204.806 82.3649 204.806 82.3649 204.806C82.3649 204.805 82.3649 204.805 82.3649 204.805C82.3649 204.805 82.3649 204.805 82.6649 204.805ZM82.9499 204.775C82.9499 204.756 82.9553 204.626 82.847 204.518L82.4228 204.942C82.391 204.91 82.368 204.869 82.357 204.825C82.3485 204.791 82.3499 204.762 82.3499 204.775H82.9499ZM82.9349 204.73V204.685H82.3349V204.73H82.9349ZM82.9349 204.685V204.655H82.3349V204.685H82.9349ZM82.9349 204.655V200.65H82.3349V204.655H82.9349ZM82.9349 200.65C82.9349 199.243 81.7994 198.07 80.3699 198.07V198.67C81.4603 198.67 82.3349 199.567 82.3349 200.65H82.9349ZM80.3699 198.07C78.9403 198.07 77.8049 199.243 77.8049 200.65H78.4049C78.4049 199.567 79.2794 198.67 80.3699 198.67V198.07ZM77.8049 200.65V204.655H78.4049V200.65H77.8049ZM77.8049 204.655C77.8049 204.664 77.8028 204.669 77.8019 204.67C77.8011 204.671 77.7987 204.675 77.791 204.68L78.0887 205.2C78.2882 205.086 78.4049 204.881 78.4049 204.655H77.8049ZM77.7278 204.728C77.739 204.717 77.7468 204.711 77.7478 204.71C77.7501 204.709 77.7522 204.707 77.7548 204.706C77.757 204.705 77.7638 204.701 77.775 204.697C77.7841 204.694 77.8111 204.685 77.8499 204.685V205.285C77.945 205.285 78.0201 205.245 78.0462 205.23C78.0801 205.212 78.1196 205.185 78.152 205.152L77.7278 204.728ZM77.6378 204.773C77.6522 204.758 77.6722 204.742 77.698 204.729C77.7239 204.715 77.748 204.708 77.7667 204.704C77.7837 204.701 77.7959 204.7 77.7978 204.7C77.7992 204.7 77.7991 204.7 77.7899 204.7V205.3C77.7956 205.3 77.9454 205.314 78.062 205.197L77.6378 204.773ZM77.7899 204.7H77.7449V205.3H77.7899V204.7ZM77.7449 204.7H77.6999V205.3H77.7449V204.7ZM77.733 204.702C77.743 204.703 77.7367 204.705 77.7203 204.69C77.7042 204.675 77.6909 204.654 77.6845 204.635L77.1153 204.825C77.1864 205.038 77.3849 205.267 77.6668 205.298L77.733 204.702ZM77.6999 204.73V204.655H77.0999V204.73H77.6999ZM77.6999 204.655V200.65H77.0999V204.655H77.6999ZM77.6999 200.65V200.53H77.0999V200.65H77.6999ZM77.6999 200.53V198.01H77.0999V200.53H77.6999ZM77.6999 198.01C77.6999 198 77.7036 197.99 77.7138 197.98C77.7254 197.968 77.738 197.965 77.7449 197.965V197.365C77.4077 197.365 77.0999 197.641 77.0999 198.01H77.6999ZM77.7449 197.965C77.7768 197.965 77.7904 197.975 77.7947 197.98C77.7989 197.984 77.8049 197.992 77.8049 198.01H78.4049C78.4049 197.641 78.1121 197.365 77.7449 197.365V197.965ZM77.8049 198.01V198.715H78.4049V198.01H77.8049ZM78.3349 198.908C78.8194 198.329 79.5459 197.965 80.3699 197.965V197.365C79.3639 197.365 78.4704 197.811 77.8749 198.522L78.3349 198.908ZM80.3699 197.965C81.3949 197.965 82.2718 198.53 82.7318 199.369L83.2579 199.081C82.6979 198.06 81.6249 197.365 80.3699 197.365V197.965ZM83.2561 199.372C83.7313 198.531 84.6247 197.965 85.6349 197.965V197.365C84.3951 197.365 83.3085 198.059 82.7336 199.078L83.2561 199.372ZM85.6349 197.965C87.1192 197.965 88.3199 199.166 88.3199 200.65H88.9199C88.9199 198.834 87.4506 197.365 85.6349 197.365V197.965ZM88.3199 200.65V204.655H88.9199V200.65H88.3199ZM88.3199 204.655C88.3199 204.669 88.3042 204.7 88.2599 204.7V205.3C88.6356 205.3 88.9199 205.001 88.9199 204.655H88.3199ZM88.2599 204.7C88.2499 204.7 88.2395 204.696 88.2295 204.686C88.2183 204.675 88.2149 204.662 88.2149 204.655H87.6149C87.6149 204.992 87.8908 205.3 88.2599 205.3V204.7ZM100.112 203.545H100.412V202.619L99.8695 203.369L100.112 203.545ZM100.112 199.09L99.8695 199.266L100.412 200.016V199.09H100.112ZM100.472 197.95C100.492 197.95 100.507 197.957 100.517 197.966C100.525 197.974 100.532 197.987 100.532 198.01H101.132C101.132 197.626 100.825 197.35 100.472 197.35V197.95ZM100.532 198.01V204.64H101.132V198.01H100.532ZM100.532 204.64C100.532 204.652 100.527 204.667 100.513 204.681C100.499 204.695 100.484 204.7 100.472 204.7V205.3C100.833 205.3 101.132 205.001 101.132 204.64H100.532ZM100.472 204.7C100.461 204.7 100.445 204.695 100.431 204.681C100.417 204.667 100.412 204.652 100.412 204.64H99.8125C99.8125 205.001 100.112 205.3 100.472 205.3V204.7ZM100.412 204.64V203.545H99.8125V204.64H100.412ZM99.8695 203.369C99.2893 204.17 98.3705 204.7 97.3525 204.7V205.3C98.5844 205.3 99.6756 204.66 100.355 203.721L99.8695 203.369ZM97.3525 204.7C95.6001 204.7 94.1725 203.187 94.1725 201.325H93.5725C93.5725 203.483 95.2349 205.3 97.3525 205.3V204.7ZM94.1725 201.325C94.1725 199.463 95.6001 197.95 97.3525 197.95V197.35C95.2349 197.35 93.5725 199.167 93.5725 201.325H94.1725ZM97.3525 197.95C98.3732 197.95 99.291 198.467 99.8695 199.266L100.355 198.914C99.6739 197.973 98.5817 197.35 97.3525 197.35V197.95ZM100.412 199.09V198.01H99.8125V199.09H100.412ZM100.412 198.01C100.412 197.987 100.42 197.974 100.428 197.966C100.438 197.957 100.453 197.95 100.472 197.95V197.35C100.12 197.35 99.8125 197.626 99.8125 198.01H100.412ZM97.3525 204.58C99.0503 204.58 100.412 203.123 100.412 201.325H99.8125C99.8125 202.827 98.6846 203.98 97.3525 203.98V204.58ZM100.412 201.325C100.412 199.529 99.0522 198.055 97.3525 198.055V198.655C98.6827 198.655 99.8125 199.821 99.8125 201.325H100.412ZM97.3525 198.055C95.6687 198.055 94.2925 199.528 94.2925 201.325H94.8925C94.8925 199.822 96.0362 198.655 97.3525 198.655V198.055ZM94.2925 201.325C94.2925 203.124 95.6706 204.58 97.3525 204.58V203.98C96.0343 203.98 94.8925 202.826 94.8925 201.325H94.2925ZM107.675 199.645H107.375L107.943 199.779L107.675 199.645ZM107.78 199.465L108.02 199.645L108.026 199.636L108.032 199.626L107.78 199.465ZM108.59 199.585L108.352 199.402L108.35 199.405L108.59 199.585ZM107.705 201.295L107.973 201.429L107.981 201.412L107.988 201.394L107.705 201.295ZM107.255 204.64V198.025H106.655V204.64H107.255ZM107.255 198.025C107.255 198.002 107.262 197.991 107.269 197.984C107.278 197.976 107.297 197.965 107.33 197.965V197.365C106.97 197.365 106.655 197.633 106.655 198.025H107.255ZM107.33 197.965C107.344 197.965 107.375 197.981 107.375 198.025H107.975C107.975 197.649 107.675 197.365 107.33 197.365V197.965ZM107.375 198.025V199.645H107.975V198.025H107.375ZM107.943 199.779C107.974 199.717 107.993 199.68 108.02 199.645L107.54 199.285C107.476 199.37 107.435 199.453 107.406 199.511L107.943 199.779ZM108.032 199.626C108.561 198.797 109.456 197.965 110.72 197.965V197.365C109.163 197.365 108.108 198.393 107.527 199.304L108.032 199.626ZM110.72 197.965C110.74 197.965 110.754 197.972 110.764 197.981C110.772 197.989 110.78 198.002 110.78 198.025H111.38C111.38 197.641 111.072 197.365 110.72 197.365V197.965ZM110.78 198.025C110.78 198.037 110.775 198.052 110.761 198.066C110.747 198.08 110.731 198.085 110.72 198.085V198.685C111.08 198.685 111.38 198.386 111.38 198.025H110.78ZM110.72 198.085C109.626 198.085 108.889 198.707 108.352 199.402L108.827 199.768C109.311 199.143 109.893 198.685 110.72 198.685V198.085ZM108.35 199.405C107.827 200.102 107.529 200.887 107.421 201.196L107.988 201.394C108.09 201.103 108.363 200.388 108.83 199.765L108.35 199.405ZM107.436 201.161C107.412 201.209 107.394 201.257 107.384 201.307C107.374 201.358 107.375 201.4 107.375 201.415H107.975C107.975 201.411 107.975 201.409 107.975 201.408C107.975 201.407 107.975 201.408 107.975 201.41C107.974 201.413 107.974 201.419 107.972 201.425C107.971 201.431 107.97 201.435 107.969 201.436C107.969 201.438 107.97 201.435 107.973 201.429L107.436 201.161ZM107.375 201.415V204.64H107.975V201.415H107.375ZM107.375 204.64C107.375 204.684 107.344 204.7 107.33 204.7V205.3C107.675 205.3 107.975 205.016 107.975 204.64H107.375ZM107.33 204.7C107.297 204.7 107.278 204.689 107.269 204.681C107.262 204.674 107.255 204.663 107.255 204.64H106.655C106.655 205.032 106.97 205.3 107.33 205.3V204.7ZM117.806 198.37V198.07H117.506V198.37H117.806ZM117.056 198.37H117.356V198.07H117.056V198.37ZM117.056 197.65V197.95H117.356V197.65H117.056ZM117.806 197.65H117.506V197.95H117.806V197.65ZM118.751 197.95C118.746 197.95 118.748 197.949 118.757 197.953C118.765 197.957 118.776 197.964 118.787 197.975C118.797 197.985 118.805 197.996 118.809 198.005C118.812 198.013 118.811 198.015 118.811 198.01H119.411C119.411 197.822 119.321 197.66 119.211 197.55C119.101 197.441 118.939 197.35 118.751 197.35V197.95ZM118.811 198.01C118.811 198.005 118.812 198.007 118.809 198.015C118.805 198.024 118.797 198.035 118.787 198.045C118.776 198.056 118.765 198.063 118.757 198.067C118.748 198.071 118.746 198.07 118.751 198.07V198.67C118.939 198.67 119.101 198.579 119.211 198.47C119.321 198.36 119.411 198.198 119.411 198.01H118.811ZM118.751 198.07H117.806V198.67H118.751V198.07ZM117.506 198.37V203.725H118.106V198.37H117.506ZM117.506 203.725C117.506 204.017 117.655 204.231 117.821 204.364C117.978 204.49 118.177 204.565 118.346 204.565V203.965C118.347 203.965 118.327 203.964 118.293 203.951C118.261 203.939 118.227 203.92 118.196 203.896C118.137 203.849 118.106 203.793 118.106 203.725H117.506ZM118.346 204.565C118.338 204.565 118.339 204.563 118.35 204.568C118.361 204.574 118.375 204.583 118.389 204.597C118.403 204.611 118.413 204.625 118.418 204.636C118.423 204.647 118.421 204.649 118.421 204.64H119.021C119.021 204.447 118.922 204.281 118.813 204.173C118.705 204.064 118.539 203.965 118.346 203.965V204.565ZM118.421 204.64C118.421 204.631 118.424 204.63 118.42 204.638C118.416 204.646 118.408 204.658 118.395 204.67C118.382 204.682 118.369 204.691 118.357 204.696C118.346 204.701 118.342 204.7 118.346 204.7V205.3C118.531 205.3 118.696 205.212 118.808 205.105C118.919 204.999 119.021 204.836 119.021 204.64H118.421ZM118.346 204.7C117.772 204.7 117.356 204.29 117.356 203.725H116.756C116.756 204.63 117.45 205.3 118.346 205.3V204.7ZM117.356 203.725V198.37H116.756V203.725H117.356ZM117.056 198.07H116.141V198.67H117.056V198.07ZM116.141 198.07C116.074 198.07 116.046 198.061 116.042 198.059C116.041 198.059 116.046 198.061 116.054 198.067C116.062 198.073 116.07 198.082 116.076 198.091C116.088 198.109 116.087 198.119 116.084 198.103C116.083 198.095 116.082 198.084 116.082 198.068C116.081 198.051 116.081 198.033 116.081 198.01H115.481C115.481 198.074 115.472 198.266 115.577 198.424C115.704 198.615 115.922 198.67 116.141 198.67V198.07ZM116.081 198.01C116.081 197.987 116.081 197.969 116.082 197.952C116.082 197.936 116.083 197.925 116.084 197.917C116.087 197.901 116.088 197.911 116.076 197.929C116.07 197.938 116.062 197.947 116.054 197.953C116.046 197.959 116.041 197.961 116.042 197.961C116.046 197.959 116.074 197.95 116.141 197.95V197.35C115.922 197.35 115.704 197.405 115.577 197.596C115.472 197.754 115.481 197.946 115.481 198.01H116.081ZM116.141 197.95H117.056V197.35H116.141V197.95ZM117.356 197.65V194.92H116.756V197.65H117.356ZM117.356 194.92C117.356 194.925 117.355 194.923 117.359 194.915C117.363 194.906 117.37 194.895 117.381 194.885C117.392 194.874 117.403 194.867 117.411 194.863C117.419 194.859 117.421 194.86 117.416 194.86V194.26C117.229 194.26 117.066 194.351 116.957 194.46C116.847 194.57 116.756 194.732 116.756 194.92H117.356ZM117.416 194.86C117.419 194.86 117.428 194.861 117.441 194.866C117.454 194.872 117.468 194.881 117.481 194.893C117.494 194.905 117.501 194.916 117.505 194.923C117.509 194.93 117.506 194.929 117.506 194.92H118.106C118.106 194.724 118.004 194.559 117.888 194.452C117.771 194.344 117.603 194.26 117.416 194.26V194.86ZM117.506 194.92V197.65H118.106V194.92H117.506ZM117.806 197.95H118.751V197.35H117.806V197.95ZM133.004 201.325C133.004 199.478 134.447 197.95 136.184 197.95V197.35C134.082 197.35 132.404 199.182 132.404 201.325H133.004ZM136.184 197.95C137.936 197.95 139.364 199.477 139.364 201.325H139.964C139.964 199.183 138.303 197.35 136.184 197.35V197.95ZM139.364 201.325C139.364 203.173 137.936 204.7 136.184 204.7V205.3C138.303 205.3 139.964 203.467 139.964 201.325H139.364ZM136.184 204.7C134.447 204.7 133.004 203.172 133.004 201.325H132.404C132.404 203.468 134.082 205.3 136.184 205.3V204.7ZM133.124 201.325C133.124 203.108 134.501 204.58 136.184 204.58V203.98C134.867 203.98 133.724 202.812 133.724 201.325H133.124ZM136.184 204.58C137.867 204.58 139.244 203.108 139.244 201.325H138.644C138.644 202.812 137.501 203.98 136.184 203.98V204.58ZM139.244 201.325C139.244 199.544 137.869 198.055 136.184 198.055V198.655C137.5 198.655 138.644 199.836 138.644 201.325H139.244ZM136.184 198.055C134.5 198.055 133.124 199.544 133.124 201.325H133.724C133.724 199.836 134.869 198.655 136.184 198.655V198.055ZM147.344 204.97L147.439 204.685L147.392 204.67H147.344V204.97ZM147.284 204.94L147.496 204.728L147.452 204.684L147.395 204.661L147.284 204.94ZM147.134 204.775L147.412 204.664L147.41 204.659L147.134 204.775ZM144.374 198.205L144.097 198.32L144.097 198.321L144.374 198.205ZM144.554 197.74L144.438 197.463L144.43 197.467L144.554 197.74ZM145.019 197.935L144.734 198.03L144.738 198.041L144.742 198.052L145.019 197.935ZM147.464 203.725L147.187 203.842L147.464 204.498L147.74 203.841L147.464 203.725ZM149.159 199.69L148.885 199.568L148.882 199.574L149.159 199.69ZM149.864 199.69L150.14 199.574L150.138 199.568L149.864 199.69ZM151.559 203.725L151.282 203.841L151.559 204.5L151.835 203.841L151.559 203.725ZM153.989 197.935L154.265 198.051L154.266 198.05L153.989 197.935ZM154.454 197.74L154.33 198.013L154.338 198.017L154.454 197.74ZM154.649 198.205L154.925 198.321L154.926 198.32L154.649 198.205ZM151.904 204.745L151.627 204.629L151.625 204.634L151.904 204.745ZM151.769 204.925L151.949 205.165V205.165L151.769 204.925ZM151.514 205L151.477 205.298L151.495 205.3H151.514V205ZM151.229 204.775L151.52 204.702L151.5 204.622L151.441 204.563L151.229 204.775ZM151.214 204.76L150.937 204.876L150.96 204.931L151.002 204.972L151.214 204.76ZM149.504 200.695L149.78 200.579L149.503 199.92L149.227 200.579L149.504 200.695ZM147.809 204.745L148.021 204.957L148.063 204.915L148.085 204.861L147.809 204.745ZM147.794 204.775L148.078 204.87L148.094 204.824V204.775H147.794ZM147.344 204.67C147.384 204.67 147.426 204.682 147.462 204.703C147.49 204.72 147.507 204.739 147.496 204.728L147.072 205.152C147.09 205.17 147.182 205.27 147.344 205.27V204.67ZM147.395 204.661C147.399 204.663 147.404 204.666 147.409 204.669C147.413 204.672 147.417 204.676 147.419 204.678C147.422 204.682 147.419 204.68 147.412 204.664L146.855 204.886C146.903 205.006 146.995 205.147 147.172 205.219L147.395 204.661ZM147.41 204.659L144.65 198.089L144.097 198.321L146.857 204.891L147.41 204.659ZM144.651 198.09C144.646 198.079 144.645 198.063 144.652 198.045C144.66 198.025 144.672 198.016 144.678 198.013L144.43 197.467C144.12 197.608 143.958 197.988 144.097 198.32L144.651 198.09ZM144.669 198.017C144.679 198.013 144.697 198.011 144.717 198.019C144.736 198.027 144.736 198.035 144.734 198.03L145.303 197.84C145.182 197.475 144.76 197.329 144.438 197.463L144.669 198.017ZM144.742 198.052L147.187 203.842L147.74 203.608L145.295 197.818L144.742 198.052ZM147.74 203.841L149.435 199.806L148.882 199.574L147.187 203.609L147.74 203.841ZM149.433 199.812C149.436 199.806 149.445 199.792 149.464 199.78C149.484 199.767 149.5 199.765 149.504 199.765V199.165C149.255 199.165 148.995 199.321 148.885 199.568L149.433 199.812ZM149.504 199.765C149.546 199.765 149.582 199.795 149.59 199.812L150.138 199.568C150.025 199.315 149.761 199.165 149.504 199.165V199.765ZM149.587 199.806L151.282 203.841L151.835 203.609L150.14 199.574L149.587 199.806ZM151.835 203.841L154.265 198.051L153.712 197.819L151.282 203.609L151.835 203.841ZM154.266 198.05C154.269 198.043 154.28 198.028 154.302 198.019C154.325 198.01 154.335 198.016 154.33 198.013L154.578 197.467C154.25 197.318 153.848 197.492 153.712 197.82L154.266 198.05ZM154.338 198.017C154.352 198.023 154.364 198.034 154.37 198.05C154.377 198.065 154.376 198.079 154.372 198.09L154.926 198.32C155.066 197.983 154.897 197.6 154.569 197.463L154.338 198.017ZM154.372 198.089L151.627 204.629L152.18 204.861L154.925 198.321L154.372 198.089ZM151.625 204.634C151.614 204.662 151.601 204.676 151.589 204.685L151.949 205.165C152.056 205.084 152.133 204.978 152.182 204.856L151.625 204.634ZM151.589 204.685C151.58 204.692 151.573 204.696 151.568 204.7C151.562 204.703 151.559 204.704 151.558 204.705C151.557 204.705 151.568 204.7 151.589 204.7V205.3C151.747 205.3 151.871 205.223 151.949 205.165L151.589 204.685ZM151.589 204.7H151.559V205.3H151.589V204.7ZM151.559 204.7H151.514V205.3H151.559V204.7ZM151.551 204.702C151.55 204.702 151.545 204.701 151.538 204.698C151.53 204.695 151.523 204.691 151.517 204.687C151.512 204.683 151.51 204.68 151.511 204.681C151.512 204.682 151.517 204.689 151.52 204.702L150.938 204.848C150.974 204.993 151.067 205.099 151.157 205.167C151.249 205.235 151.361 205.283 151.477 205.298L151.551 204.702ZM151.441 204.563L151.426 204.548L151.002 204.972L151.017 204.987L151.441 204.563ZM151.49 204.644L149.78 200.579L149.227 200.811L150.937 204.876L151.49 204.644ZM149.227 200.579L147.532 204.629L148.085 204.861L149.78 200.811L149.227 200.579ZM147.809 204.745C147.597 204.533 147.597 204.533 147.596 204.533C147.596 204.533 147.596 204.533 147.596 204.533C147.596 204.533 147.596 204.533 147.596 204.533C147.596 204.533 147.596 204.534 147.596 204.534C147.595 204.534 147.595 204.534 147.595 204.535C147.594 204.535 147.594 204.536 147.593 204.537C147.592 204.538 147.59 204.539 147.589 204.541C147.586 204.544 147.582 204.548 147.579 204.552C147.571 204.561 147.562 204.573 147.552 204.588C147.538 204.609 147.494 204.677 147.494 204.775H148.094C148.094 204.82 148.083 204.855 148.075 204.875C148.066 204.896 148.057 204.912 148.051 204.921C148.044 204.93 148.039 204.938 148.034 204.943C148.032 204.946 148.03 204.948 148.027 204.95C148.026 204.952 148.025 204.953 148.024 204.954C148.024 204.954 148.023 204.955 148.022 204.955C148.022 204.956 148.022 204.956 148.022 204.956C148.022 204.956 148.021 204.957 148.021 204.957C148.021 204.957 148.021 204.957 148.021 204.957C148.021 204.957 148.021 204.957 148.021 204.957C148.021 204.957 148.021 204.957 147.809 204.745ZM147.509 204.68C147.511 204.676 147.512 204.675 147.509 204.678C147.507 204.681 147.503 204.685 147.496 204.69C147.489 204.694 147.483 204.698 147.477 204.699C147.472 204.701 147.472 204.7 147.479 204.7V205.3C147.608 205.3 147.733 205.254 147.833 205.187C147.933 205.118 148.031 205.013 148.078 204.87L147.509 204.68ZM147.479 204.7C147.489 204.7 147.492 204.702 147.484 204.7C147.48 204.699 147.475 204.697 147.467 204.695C147.459 204.692 147.45 204.689 147.439 204.685L147.249 205.255C147.284 205.266 147.376 205.3 147.479 205.3V204.7ZM161.449 200.65L161.149 200.643V200.65H161.449ZM161.449 204.7L161.74 204.773L161.749 204.737V204.7H161.449ZM161.374 204.865L161.161 204.653L161.14 204.674L161.124 204.699L161.374 204.865ZM161.014 205L160.931 205.288L160.972 205.3H161.014V205ZM160.774 204.805L161.042 204.671L161.02 204.627L160.986 204.593L160.774 204.805ZM160.744 204.73H160.444V204.854L160.532 204.942L160.744 204.73ZM161.449 198.73H161.149V199.556L161.679 198.923L161.449 198.73ZM166.294 204.64V200.65H165.694V204.64H166.294ZM166.294 200.65C166.294 199.241 165.156 198.085 163.729 198.085V198.685C164.822 198.685 165.694 199.569 165.694 200.65H166.294ZM163.729 198.085C162.314 198.085 161.182 199.242 161.149 200.643L161.749 200.657C161.775 199.568 162.653 198.685 163.729 198.685V198.085ZM161.149 200.65V204.64H161.749V200.65H161.149ZM161.149 204.64V204.7H161.749V204.64H161.149ZM161.158 204.627C161.154 204.643 161.151 204.653 161.148 204.662C161.146 204.671 161.144 204.675 161.144 204.677C161.143 204.678 161.144 204.676 161.147 204.671C161.15 204.666 161.155 204.66 161.161 204.653L161.586 205.077C161.699 204.964 161.728 204.818 161.74 204.773L161.158 204.627ZM161.124 204.699C161.127 204.695 161.129 204.694 161.126 204.696C161.122 204.698 161.114 204.7 161.104 204.7V205.3C161.288 205.3 161.497 205.221 161.623 205.031L161.124 204.699ZM161.104 204.7H161.014V205.3H161.104V204.7ZM161.096 204.712C161.085 204.708 161.072 204.702 161.061 204.693C161.05 204.684 161.044 204.675 161.042 204.671L160.505 204.939C160.589 205.107 160.748 205.236 160.931 205.288L161.096 204.712ZM160.986 204.593C161.018 204.625 161.041 204.666 161.052 204.71C161.06 204.744 161.059 204.773 161.059 204.76H160.459C160.459 204.779 160.453 204.909 160.562 205.017L160.986 204.593ZM161.059 204.76C161.059 204.662 161.014 204.594 161.001 204.573C160.991 204.558 160.981 204.546 160.974 204.537C160.97 204.533 160.967 204.529 160.964 204.526C160.962 204.524 160.961 204.523 160.959 204.522C160.959 204.521 160.958 204.52 160.957 204.52C160.957 204.519 160.957 204.519 160.957 204.519C160.956 204.519 160.956 204.518 160.956 204.518C160.956 204.518 160.956 204.518 160.956 204.518C160.956 204.518 160.956 204.518 160.956 204.518C160.956 204.518 160.956 204.518 160.744 204.73C160.532 204.942 160.531 204.942 160.531 204.942C160.531 204.942 160.531 204.942 160.531 204.942C160.531 204.942 160.531 204.942 160.531 204.942C160.531 204.942 160.531 204.941 160.531 204.941C160.53 204.941 160.53 204.941 160.53 204.94C160.529 204.94 160.529 204.939 160.528 204.939C160.527 204.938 160.526 204.937 160.525 204.935C160.523 204.933 160.521 204.931 160.518 204.928C160.514 204.923 160.508 204.915 160.502 204.906C160.495 204.897 160.486 204.881 160.478 204.86C160.47 204.84 160.459 204.805 160.459 204.76H161.059ZM161.044 204.73V204.64H160.444V204.73H161.044ZM161.044 204.64V200.65H160.444V204.64H161.044ZM161.044 200.65V200.53H160.444V200.65H161.044ZM161.044 200.53V198.025H160.444V200.53H161.044ZM161.044 198.025C161.044 198.005 161.051 197.99 161.06 197.981C161.068 197.973 161.08 197.965 161.104 197.965V197.365C160.72 197.365 160.444 197.673 160.444 198.025H161.044ZM161.104 197.965C161.113 197.965 161.122 197.968 161.131 197.978C161.141 197.988 161.149 198.005 161.149 198.025H161.749C161.749 197.681 161.481 197.365 161.104 197.365V197.965ZM161.149 198.025V198.73H161.749V198.025H161.149ZM161.679 198.923C162.164 198.343 162.906 197.965 163.729 197.965V197.365C162.721 197.365 161.813 197.827 161.219 198.537L161.679 198.923ZM163.729 197.965C165.212 197.965 166.414 199.18 166.414 200.65H167.014C167.014 198.85 165.545 197.365 163.729 197.365V197.965ZM166.414 200.65V204.64H167.014V200.65H166.414ZM166.414 204.64C166.414 204.663 166.406 204.676 166.398 204.684C166.388 204.693 166.374 204.7 166.354 204.7V205.3C166.706 205.3 167.014 205.024 167.014 204.64H166.414ZM166.354 204.7C166.334 204.7 166.319 204.693 166.31 204.684C166.302 204.676 166.294 204.663 166.294 204.64H165.694C165.694 205.024 166.001 205.3 166.354 205.3V204.7ZM179.528 201.07H179.828V201.058L179.827 201.047L179.528 201.07ZM173.138 201.46V201.16H172.824L172.838 201.474L173.138 201.46ZM178.358 202.945L178.615 203.099L178.617 203.096L178.358 202.945ZM178.838 202.825L179.014 202.582L179.004 202.575L178.992 202.568L178.838 202.825ZM178.958 203.335L179.212 203.494L179.217 203.486L178.958 203.335ZM173.183 200.755L172.888 200.698L172.819 201.055H173.183V200.755ZM178.748 200.755V201.055H179.105L179.043 200.704L178.748 200.755ZM175.988 204.7C174.182 204.7 172.718 203.192 172.718 201.34H172.118C172.118 203.508 173.834 205.3 175.988 205.3V204.7ZM172.718 201.34C172.718 199.456 174.183 197.95 175.988 197.95V197.35C173.833 197.35 172.118 199.144 172.118 201.34H172.718ZM175.988 197.95C177.707 197.95 179.09 199.315 179.229 201.093L179.827 201.047C179.666 198.985 178.049 197.35 175.988 197.35V197.95ZM179.228 201.07V201.085H179.828V201.07H179.228ZM179.228 201.085V201.13H179.828V201.085H179.228ZM179.228 201.13C179.228 201.136 179.227 201.138 179.227 201.138C179.226 201.139 179.225 201.141 179.222 201.144C179.215 201.15 179.197 201.16 179.168 201.16V201.76C179.493 201.76 179.828 201.524 179.828 201.13H179.228ZM179.168 201.16H173.138V201.76H179.168V201.16ZM172.838 201.474C172.92 203.231 174.305 204.58 175.988 204.58V203.98C174.641 203.98 173.505 202.899 173.438 201.446L172.838 201.474ZM175.988 204.58C177.068 204.58 178.066 204.015 178.615 203.099L178.101 202.791C177.66 203.525 176.858 203.98 175.988 203.98V204.58ZM178.617 203.096C178.621 203.089 178.625 203.086 178.628 203.083C178.631 203.081 178.636 203.079 178.643 203.077C178.66 203.074 178.676 203.078 178.684 203.082L178.992 202.568C178.72 202.404 178.3 202.449 178.099 202.794L178.617 203.096ZM178.661 203.068C178.691 203.089 178.704 203.113 178.708 203.13C178.712 203.145 178.711 203.162 178.699 203.184L179.217 203.486C179.41 203.156 179.287 202.781 179.014 202.582L178.661 203.068ZM178.704 203.176C178.125 204.099 177.123 204.7 175.988 204.7V205.3C177.343 205.3 178.531 204.581 179.212 203.494L178.704 203.176ZM175.988 198.07C174.456 198.07 173.184 199.17 172.888 200.698L173.477 200.812C173.722 199.55 174.76 198.67 175.988 198.67V198.07ZM173.183 201.055H178.748V200.455H173.183V201.055ZM179.043 200.704C178.78 199.186 177.49 198.07 175.988 198.07V198.67C177.186 198.67 178.236 199.564 178.452 200.806L179.043 200.704ZM185.481 199.645H185.181L185.75 199.779L185.481 199.645ZM185.586 199.465L185.826 199.645L185.833 199.636L185.839 199.626L185.586 199.465ZM186.396 199.585L186.159 199.402L186.156 199.405L186.396 199.585ZM185.511 201.295L185.78 201.429L185.788 201.412L185.794 201.394L185.511 201.295ZM185.061 204.64V198.025H184.461V204.64H185.061ZM185.061 198.025C185.061 198.002 185.069 197.991 185.076 197.984C185.085 197.976 185.103 197.965 185.136 197.965V197.365C184.777 197.365 184.461 197.633 184.461 198.025H185.061ZM185.136 197.965C185.151 197.965 185.181 197.981 185.181 198.025H185.781C185.781 197.649 185.482 197.365 185.136 197.365V197.965ZM185.181 198.025V199.645H185.781V198.025H185.181ZM185.75 199.779C185.781 199.717 185.8 199.68 185.826 199.645L185.346 199.285C185.283 199.37 185.242 199.453 185.213 199.511L185.75 199.779ZM185.839 199.626C186.368 198.797 187.263 197.965 188.526 197.965V197.365C186.97 197.365 185.915 198.393 185.333 199.304L185.839 199.626ZM188.526 197.965C188.546 197.965 188.561 197.972 188.57 197.981C188.578 197.989 188.586 198.002 188.586 198.025H189.186C189.186 197.641 188.879 197.365 188.526 197.365V197.965ZM188.586 198.025C188.586 198.037 188.581 198.052 188.567 198.066C188.553 198.08 188.538 198.085 188.526 198.085V198.685C188.887 198.685 189.186 198.386 189.186 198.025H188.586ZM188.526 198.085C187.433 198.085 186.695 198.707 186.159 199.402L186.634 199.768C187.117 199.143 187.699 198.685 188.526 198.685V198.085ZM186.156 199.405C185.633 200.102 185.336 200.887 185.228 201.196L185.794 201.394C185.896 201.103 186.169 200.388 186.636 199.765L186.156 199.405ZM185.243 201.161C185.219 201.209 185.201 201.257 185.191 201.307C185.181 201.358 185.181 201.4 185.181 201.415H185.781C185.781 201.411 185.781 201.409 185.781 201.408C185.781 201.407 185.781 201.408 185.781 201.41C185.781 201.413 185.78 201.419 185.779 201.425C185.778 201.431 185.777 201.435 185.776 201.436C185.776 201.438 185.776 201.435 185.78 201.429L185.243 201.161ZM185.181 201.415V204.64H185.781V201.415H185.181ZM185.181 204.64C185.181 204.684 185.151 204.7 185.136 204.7V205.3C185.482 205.3 185.781 205.016 185.781 204.64H185.181ZM185.136 204.7C185.103 204.7 185.085 204.689 185.076 204.681C185.069 204.674 185.061 204.663 185.061 204.64H184.461C184.461 205.032 184.777 205.3 185.136 205.3V204.7ZM193.888 203.95L193.687 204.173L193.694 204.179L193.701 204.184L193.888 203.95ZM193.843 203.47L194.077 203.657L193.843 203.47ZM194.353 203.425L194.163 203.657L194.169 203.662L194.175 203.667L194.353 203.425ZM197.998 203.83L197.832 203.58L197.819 203.589L197.808 203.598L197.998 203.83ZM198.553 202.93L198.853 202.93L198.853 202.917L198.553 202.93ZM198.028 202.03L198.221 201.8L198.215 201.796L198.21 201.791L198.028 202.03ZM196.468 201.49L196.334 201.758L196.374 201.779L196.419 201.786L196.468 201.49ZM196.438 201.475L196.572 201.207L196.534 201.188L196.492 201.18L196.438 201.475ZM194.773 200.905L194.947 200.661L194.936 200.653L194.924 200.646L194.773 200.905ZM194.773 198.145L194.603 197.898L194.594 197.904L194.773 198.145ZM198.763 198.445L198.939 198.202L198.932 198.197L198.923 198.191L198.763 198.445ZM198.373 199.06L198.207 199.31L198.212 199.313L198.373 199.06ZM195.178 198.745L195.365 198.979L195.367 198.978L195.178 198.745ZM195.133 200.32L194.947 200.555L194.955 200.562L194.964 200.568L195.133 200.32ZM196.633 200.83L196.587 201.126L196.61 201.13H196.633V200.83ZM196.663 200.83L196.707 200.533L196.685 200.53H196.663V200.83ZM198.448 201.43L198.613 201.179L198.604 201.173L198.594 201.168L198.448 201.43ZM198.433 204.415L198.611 204.657L198.614 204.654L198.433 204.415ZM196.603 205L196.599 205.3H196.603V205ZM194.089 203.727C194.065 203.705 194.063 203.691 194.063 203.689C194.063 203.687 194.062 203.677 194.077 203.657L193.609 203.283C193.387 203.56 193.422 203.934 193.687 204.173L194.089 203.727ZM194.077 203.657C194.085 203.647 194.097 203.641 194.112 203.639C194.125 203.638 194.143 203.64 194.163 203.657L194.543 203.193C194.25 202.953 193.834 203.001 193.609 203.283L194.077 203.657ZM194.175 203.667C194.7 204.053 195.575 204.58 196.603 204.58V203.98C195.771 203.98 195.026 203.547 194.531 203.183L194.175 203.667ZM196.603 204.58C197.233 204.58 197.798 204.382 198.188 204.062L197.808 203.598C197.538 203.818 197.113 203.98 196.603 203.98V204.58ZM198.164 204.08C198.586 203.799 198.853 203.384 198.853 202.93H198.253C198.253 203.136 198.13 203.381 197.832 203.58L198.164 204.08ZM198.853 202.917C198.843 202.704 198.796 202.509 198.685 202.318C198.578 202.134 198.422 201.969 198.221 201.8L197.835 202.26C198.009 202.406 198.108 202.519 198.166 202.619C198.22 202.713 198.248 202.811 198.253 202.943L198.853 202.917ZM198.21 201.791C197.835 201.506 197.25 201.316 196.517 201.194L196.419 201.786C197.126 201.904 197.591 202.074 197.846 202.269L198.21 201.791ZM196.602 201.222L196.572 201.207L196.304 201.743L196.334 201.758L196.602 201.222ZM196.492 201.18C195.831 201.06 195.307 200.918 194.947 200.661L194.599 201.149C195.079 201.492 195.725 201.65 196.384 201.77L196.492 201.18ZM194.924 200.646C194.536 200.421 194.278 200.032 194.278 199.585H193.678C193.678 200.278 194.08 200.849 194.622 201.164L194.924 200.646ZM194.278 199.585C194.278 199.119 194.541 198.69 194.952 198.386L194.594 197.904C194.075 198.29 193.678 198.881 193.678 199.585H194.278ZM194.943 198.392C195.32 198.132 195.874 197.95 196.573 197.95V197.35C195.772 197.35 195.096 197.558 194.603 197.898L194.943 198.392ZM196.573 197.95C197.421 197.95 198.028 198.336 198.603 198.699L198.923 198.191C198.358 197.834 197.615 197.35 196.573 197.35V197.95ZM198.587 198.688C198.63 198.719 198.631 198.769 198.615 198.794L199.121 199.116C199.315 198.811 199.227 198.411 198.939 198.202L198.587 198.688ZM198.615 198.794C198.609 198.803 198.599 198.812 198.582 198.815C198.565 198.819 198.547 198.815 198.534 198.807L198.212 199.313C198.51 199.503 198.923 199.427 199.121 199.116L198.615 198.794ZM198.539 198.81C198.014 198.46 197.399 198.025 196.573 198.025V198.625C197.187 198.625 197.652 198.94 198.207 199.31L198.539 198.81ZM196.573 198.025C195.921 198.025 195.369 198.204 194.989 198.512L195.367 198.978C195.617 198.776 196.025 198.625 196.573 198.625V198.025ZM194.991 198.511C194.64 198.791 194.413 199.17 194.413 199.585H195.013C195.013 199.4 195.116 199.179 195.365 198.979L194.991 198.511ZM194.413 199.585C194.413 199.784 194.459 199.965 194.557 200.133C194.653 200.295 194.789 200.431 194.947 200.555L195.319 200.085C195.192 199.984 195.118 199.903 195.075 199.829C195.034 199.76 195.013 199.686 195.013 199.585H194.413ZM194.964 200.568C195.344 200.827 195.887 201.018 196.587 201.126L196.679 200.534C196.029 200.432 195.582 200.263 195.302 200.072L194.964 200.568ZM196.633 201.13H196.663V200.53H196.633V201.13ZM196.619 201.127C197.287 201.226 197.822 201.424 198.302 201.692L198.594 201.168C198.054 200.866 197.449 200.644 196.707 200.533L196.619 201.127ZM198.283 201.681C198.686 201.945 198.973 202.425 198.973 202.93H199.573C199.573 202.205 199.17 201.545 198.613 201.179L198.283 201.681ZM198.973 202.93C198.973 203.419 198.702 203.835 198.252 204.176L198.614 204.654C199.154 204.245 199.573 203.671 199.573 202.93H198.973ZM198.255 204.173C197.797 204.51 197.259 204.7 196.603 204.7V205.3C197.387 205.3 198.049 205.07 198.611 204.657L198.255 204.173ZM196.607 204.7C195.516 204.686 194.649 204.175 194.075 203.716L193.701 204.184C194.327 204.685 195.32 205.284 196.599 205.3L196.607 204.7Z" fill="white" mask="url(#path-10-outside-1_284_1516)"/>
</g>
<defs>
<clipPath id="clip0_284_1516">
<rect width="264" height="206" fill="white"/>
</clipPath>
</defs>
</svg>
