<svg width="199" height="59" viewBox="0 0 199 59" fill="none" xmlns="http://www.w3.org/2000/svg">
<path fill-rule="evenodd" clip-rule="evenodd" d="M86.7152 36.2118H84.1465C82.0454 32.0924 82.3117 32.5126 79.7726 27.1917C78.2041 30.2576 76.6179 33.6668 75.4519 36.2118H72.8477L79.7726 22.1608L86.7152 36.2118ZM100.447 26.878C100.056 25.6114 98.967 25.0077 97.1677 25.055V25.0728H94.8002V22.7408H97.5524C99.2156 22.7408 100.5 23.1018 101.4 23.818C102.471 24.7413 103.027 26.0553 103.075 27.754C103.027 29.0206 102.613 30.0386 101.838 30.814L100.962 31.6899L104.17 36.2118H101.287L97.5347 30.8199C98.9907 30.6245 99.9377 29.9676 100.376 28.8489C100.666 28.1683 100.689 27.5113 100.447 26.878ZM126.738 29.9794C126.738 31.3407 126.377 32.56 125.655 33.6431C124.932 34.7262 123.932 35.5134 122.654 36.0106C121.778 36.348 120.973 36.5196 120.227 36.5196C119.481 36.5196 118.925 36.4723 118.469 36.3835V34.0693C118.925 34.2409 119.416 34.3297 119.931 34.3297C120.914 34.3297 121.807 34.0574 122.612 33.507C123.476 32.9092 123.991 32.1516 124.163 31.2283H120.718V29.0383H126.732V29.9676L126.738 29.9794ZM112.947 29.0265C113.03 27.3219 113.752 25.8245 115.107 24.5342C116.552 23.1551 118.197 22.4626 120.044 22.4626C121.405 22.4626 122.553 22.6875 123.488 23.1374L124.163 23.4451L122.577 25.1793C121.896 24.8005 121.079 24.617 120.132 24.617C118.884 24.617 117.765 25.0787 116.776 26.002C115.853 26.8721 115.362 27.8783 115.303 29.0265H112.935H112.947ZM148.525 36.2118H145.956C143.938 32.2522 144.026 32.3114 141.582 27.1917C140.031 30.2221 138.415 33.6904 137.261 36.2118H134.657L141.582 22.1608L148.525 36.2118ZM164.28 24.836L161.563 24.8893V36.2059H159.196V24.8893L156.408 24.836L156.479 22.723H164.28V24.836ZM175.62 36.2118H173.235V24.9071H175.62V36.2118ZM198.994 29.4645C198.994 31.4354 198.266 33.0986 196.804 34.4658C195.348 35.833 193.625 36.5137 191.648 36.5137C189.672 36.5137 187.937 35.8389 186.493 34.4836C185.049 33.1282 184.327 31.4532 184.327 29.4645C184.327 27.4758 185.061 25.8245 186.535 24.4513C187.967 23.1255 189.677 22.4626 191.654 22.4626C193.631 22.4626 195.348 23.1255 196.792 24.4513C198.26 25.8245 198.999 27.4935 198.999 29.4645H198.994ZM196.608 29.4645C196.608 28.1032 196.123 26.9549 195.158 26.0198C194.193 25.0846 193.022 24.617 191.648 24.617C190.275 24.617 189.103 25.0846 188.139 26.0139C187.174 26.9431 186.688 28.0973 186.688 29.4704C186.688 30.8435 187.18 31.9622 188.156 32.8973C189.133 33.8325 190.299 34.3001 191.648 34.3001C192.998 34.3001 194.158 33.8266 195.14 32.8855C196.123 31.9444 196.608 30.8021 196.608 29.4704V29.4645Z" fill="white"/>
<path fill-rule="evenodd" clip-rule="evenodd" d="M174.448 19.5447C175.354 19.5447 176.088 20.2786 176.088 21.1842C176.088 22.0897 175.354 22.8237 174.448 22.8237C173.543 22.8237 172.809 22.0897 172.809 21.1842C172.809 20.2786 173.543 19.5447 174.448 19.5447Z" fill="white"/>
<path fill-rule="evenodd" clip-rule="evenodd" d="M28.3383 43.6824C25.6001 42.7363 23.238 42.6129 20.4057 42.5659V48.6476C19.16 48.6888 17.9965 48.7064 16.5745 48.7064C8.63016 40.6386 7.67824 31.0489 18.0083 24.6205C18.6899 25.1729 19.3774 25.8839 19.9533 26.6772C20.5585 27.5174 21.0286 28.4341 21.2049 29.3214C21.1696 30.2322 20.8347 31.1606 20.2412 32.0596C19.7123 32.8529 18.9778 33.6167 18.0553 34.3042C16.5452 33.3171 15.2583 32.2418 14.183 31.1018C13.6483 31.9362 13.2193 32.8176 12.902 33.7578C14.1654 34.9741 15.6579 36.1082 17.3737 37.1541L18.1141 37.6066L18.8427 37.1424C20.4292 36.1258 21.6867 34.9095 22.5563 33.5991C23.473 32.2182 23.9666 30.7199 23.9783 29.2038V29.0628L23.9607 28.9629C23.7257 27.5997 23.0617 26.2482 22.1979 25.0554C21.2342 23.7215 20.0003 22.5581 18.8427 21.7942L18.1317 21.3241L17.3972 21.7413C4.81074 28.8924 5.03403 41.8667 14.8176 50.9922L14.8352 50.9745C15.2759 51.3153 16.1162 51.4799 17.3502 51.4799C18.3021 51.4799 19.8005 51.4387 21.8512 51.3565L23.191 51.3036V45.4158C24.1664 45.4981 25.1007 45.645 25.9879 45.8624C26.364 45.2278 27.3277 44.3699 28.3383 43.6589V43.6824Z" fill="white"/>
<path fill-rule="evenodd" clip-rule="evenodd" d="M37.8479 5.3178L38.0829 4.64206L37.6657 4.05446C36.8431 2.90276 35.8794 1.94496 34.7277 1.23984C33.576 0.534718 32.2422 0.0998924 30.6968 0C29.1514 0.0998924 27.8175 0.534718 26.6599 1.24572C25.5082 1.94496 24.5446 2.90863 23.7219 4.06033L23.3047 4.64794L23.5398 5.32368C24.2919 7.46843 25.3084 9.3135 26.5894 10.853C27.2358 10.5945 27.8351 10.236 28.4051 9.9011C28.6343 9.76596 28.8576 9.62493 29.075 9.47215C27.982 8.27345 27.0948 6.81031 26.419 5.10039C26.9185 4.50104 27.4767 4.00157 28.0996 3.61963C28.8399 3.16718 29.6978 2.87925 30.6909 2.79111C31.6898 2.87925 32.5477 3.16718 33.2881 3.61963C33.9109 4.00157 34.4692 4.50104 34.9686 5.10039C32.7769 10.6356 28.6989 13.0977 23.1989 13.556V7.77986L21.8592 7.72697C19.8085 7.64471 18.3101 7.60358 17.3582 7.60358C16.1242 7.60358 15.2839 7.77398 14.8432 8.10892L14.8256 8.09129C9.33153 13.2152 5.61788 19.7846 8.50888 27.3118C8.70279 27.0121 8.90258 26.7242 9.09649 26.4362C9.54894 25.7664 10.0484 25.1553 10.589 24.597C9.28452 18.8092 12.5222 14.3786 16.4121 10.3829C17.8283 10.3829 19.1621 10.4064 20.4078 10.4417V16.4117L21.824 16.3882C29.4981 16.2707 35.2389 12.751 37.8479 5.30605V5.3178Z" fill="white"/>
<path fill-rule="evenodd" clip-rule="evenodd" d="M46.5618 8.09721L46.5441 8.11484C46.1034 7.77403 45.2631 7.6095 44.0292 7.6095C43.0773 7.6095 41.5789 7.65063 39.5281 7.73289L38.1884 7.78578V13.5619C37.2247 13.4796 36.3022 13.3327 35.4267 13.1212C35.0212 13.7676 34.0399 14.6137 33.041 15.313C35.0154 15.9946 37.1895 16.3648 39.5575 16.4059L40.9737 16.4294V10.4594C42.2194 10.4182 43.3828 10.4006 44.8048 10.4006C52.7492 18.4684 53.7011 27.9464 43.3711 34.3748C42.6895 33.8224 42.002 33.1115 41.4261 32.3182C40.8209 31.4779 40.3508 30.5613 40.1745 29.674C40.2098 28.7632 40.5447 27.8348 41.1382 26.9357C41.667 26.1425 42.4015 25.3786 43.3241 24.6911C44.846 25.69 46.1504 26.7771 47.2257 27.9288C47.7546 27.0826 48.1659 26.1895 48.4715 25.2376H48.4832C47.2199 24.0271 45.7274 22.8872 44.0057 21.8412L43.2653 21.3888L42.5367 21.853C40.9501 22.8695 39.6927 24.0859 38.823 25.3962C37.9064 26.7771 37.4128 28.2755 37.401 29.7915V29.9325L37.4187 30.0324C37.6537 31.3957 38.3177 32.7471 39.1815 33.94C40.1451 35.2738 41.3791 36.4373 42.5367 37.2012L43.2477 37.6712L43.9822 37.254C56.3512 30.2263 56.5628 17.446 46.5618 8.11484V8.09721Z" fill="white"/>
<path fill-rule="evenodd" clip-rule="evenodd" d="M38.1887 45.4393V51.3271L39.5284 51.38C41.5791 51.4623 43.0775 51.5034 44.0294 51.5034C45.2634 51.5034 46.1037 51.333 46.5444 50.9981L46.562 51.0157C52.0385 45.9036 55.7521 39.246 52.8964 31.7365C52.6731 32.089 52.438 32.4239 52.2147 32.7589C51.7858 33.3876 51.3216 33.9693 50.8221 34.4982C52.0678 40.2508 48.836 44.7577 44.9755 48.724C43.5594 48.724 42.2255 48.7005 40.9798 48.6594V42.5777L39.5637 42.6012C31.8778 42.7187 26.1487 46.2385 23.5397 53.6834L23.3047 54.3592L23.7219 54.9468C24.5445 56.0985 25.5082 57.0562 26.6599 57.7614C27.8234 58.4665 29.1513 58.9072 30.6967 59.0071C32.2421 58.9072 33.576 58.4724 34.7336 57.7614C35.8853 57.0621 36.8489 56.0985 37.6716 54.9468L38.0888 54.3592L37.8537 53.6834C37.1016 51.5328 36.0792 49.6818 34.7864 48.1423C34.1753 48.4009 33.5995 48.7358 33.053 49.059C32.8003 49.2059 32.5536 49.3645 32.3126 49.5349C33.4056 50.7336 34.2929 52.1968 34.9686 53.9067C34.4691 54.5061 33.9109 55.0055 33.2881 55.3875C32.5477 55.8399 31.6898 56.1278 30.6967 56.216C29.6978 56.1278 28.8399 55.8399 28.0995 55.3875C27.4767 55.0055 26.9184 54.5061 26.419 53.9067C28.5344 48.5771 32.4772 45.9271 38.1887 45.4511V45.4393Z" fill="white"/>
<path fill-rule="evenodd" clip-rule="evenodd" d="M30.691 27.5586C31.7605 27.5586 32.6301 28.4282 32.6301 29.4977C32.6301 30.5671 31.7605 31.4368 30.691 31.4368C29.6216 31.4368 28.752 30.5671 28.752 29.4977C28.752 28.4282 29.6216 27.5586 30.691 27.5586Z" fill="white"/>
<path fill-rule="evenodd" clip-rule="evenodd" d="M59.5817 27.5586C60.6511 27.5586 61.5208 28.4282 61.5208 29.4977C61.5208 30.5671 60.6511 31.4368 59.5817 31.4368C58.5122 31.4368 57.6426 30.5671 57.6426 29.4977C57.6426 28.4282 58.5122 27.5586 59.5817 27.5586Z" fill="white"/>
<path fill-rule="evenodd" clip-rule="evenodd" d="M1.93909 27.5586C3.00852 27.5586 3.87818 28.4282 3.87818 29.4977C3.87818 30.5671 3.00852 31.4368 1.93909 31.4368C0.869651 31.4368 0 30.5671 0 29.4977C0 28.4282 0.869651 27.5586 1.93909 27.5586Z" fill="white"/>
</svg>
