<svg width="133" height="128" viewBox="0 0 133 128" fill="none" xmlns="http://www.w3.org/2000/svg">
<path fill-rule="evenodd" clip-rule="evenodd" d="M61.2643 94.4363C55.3446 92.3911 50.2379 92.1243 44.115 92.0227V105.171C41.4219 105.259 38.9067 105.298 35.8325 105.298C18.6577 87.8561 16.5998 67.1244 38.9321 53.2271C40.4056 54.4212 41.8919 55.9583 43.1368 57.6732C44.4453 59.4898 45.4615 61.4715 45.8426 63.3897C45.7664 65.3587 45.0423 67.3658 43.7593 69.3094C42.616 71.0243 41.0281 72.6757 39.0337 74.162C35.769 72.0279 32.987 69.7032 30.6623 67.2387C29.5063 69.0426 28.5789 70.9481 27.893 72.9806C30.6242 75.6102 33.8508 78.0619 37.5601 80.3231L39.1607 81.3012L40.7359 80.2976C44.1658 78.1 46.8843 75.4704 48.7644 72.6376C50.7461 69.6524 51.8131 66.413 51.8385 63.1356V62.8307L51.8004 62.6148C51.2923 59.6676 49.8568 56.7459 47.9895 54.1671C45.9061 51.2835 43.2385 48.7683 40.7359 47.1168L39.1988 46.1006L37.6109 47.0025C10.4006 62.4623 10.8834 90.511 32.0342 110.239L32.0723 110.201C33.0251 110.938 34.8416 111.294 37.5093 111.294C39.5672 111.294 42.8066 111.205 47.24 111.027L50.1363 110.912V98.1838C52.245 98.3616 54.2649 98.6792 56.183 99.1492C56.996 97.7773 59.0794 95.9226 61.2643 94.3855V94.4363Z" fill="white"/>
<path fill-rule="evenodd" clip-rule="evenodd" d="M81.8228 11.4964L82.3309 10.0355L81.429 8.76522C79.6505 6.27539 77.5672 4.20476 75.0774 2.68038C72.5875 1.15599 69.7039 0.215955 66.363 0C63.022 0.215955 60.1384 1.15599 57.6358 2.69308C55.146 4.20476 53.0627 6.28809 51.2842 8.77792L50.3823 10.0482L50.8904 11.5091C52.5164 16.1458 54.7141 20.1346 57.4834 23.4628C58.8808 22.9039 60.1765 22.129 61.4087 21.4049C61.9041 21.1127 62.3868 20.8079 62.8569 20.4776C60.4941 17.8861 58.5759 14.723 57.115 11.0264C58.1948 9.73066 59.4016 8.65089 60.7481 7.82518C62.3487 6.84703 64.2034 6.22458 66.3503 6.03403C68.5098 6.22458 70.3645 6.84703 71.9651 7.82518C73.3116 8.65089 74.5184 9.73066 75.5982 11.0264C70.8599 22.9928 62.0439 28.3155 50.1536 29.3063V16.8191L47.2573 16.7047C42.8239 16.5269 39.5846 16.438 37.5267 16.438C34.859 16.438 33.0424 16.8064 32.0897 17.5304L32.0516 17.4923C20.1741 28.5695 12.1456 42.7717 18.3956 59.0446C18.8148 58.3967 19.2467 57.7742 19.6659 57.1518C20.6441 55.7036 21.7238 54.3825 22.8925 53.1757C20.0724 40.663 27.0719 31.0848 35.4814 22.4466C38.5429 22.4466 41.4265 22.4974 44.1196 22.5736V35.4801L47.1811 35.4293C63.7715 35.1752 76.1825 27.566 81.8228 11.471V11.4964Z" fill="white"/>
<path fill-rule="evenodd" clip-rule="evenodd" d="M100.661 17.5046L100.623 17.5427C99.6699 16.8059 97.8534 16.4502 95.1857 16.4502C93.1278 16.4502 89.8884 16.5391 85.455 16.717L82.5587 16.8313V29.3186C80.4754 29.1407 78.481 28.8231 76.5882 28.3658C75.7117 29.7632 73.5902 31.5924 71.4307 33.1041C75.6989 34.5777 80.3991 35.378 85.5185 35.4669L88.58 35.5177V22.6113C91.2731 22.5223 93.7883 22.4842 96.8625 22.4842C114.037 39.9257 116.095 60.416 93.7629 74.3133C92.2893 73.1192 90.8031 71.5822 89.5582 69.8672C88.2497 68.0507 87.2335 66.069 86.8524 64.1508C86.9286 62.1818 87.6527 60.1747 88.9357 58.2311C90.079 56.5161 91.6669 54.8647 93.6613 53.3784C96.9514 55.538 99.7715 57.8881 102.096 60.3779C103.24 58.5487 104.129 56.6178 104.789 54.5598H104.815C102.084 51.943 98.8569 49.4786 95.1349 47.2174L93.5343 46.2392L91.9591 47.2428C88.5292 49.4404 85.8107 52.07 83.9306 54.9028C81.9489 57.8881 80.8819 61.1274 80.8565 64.4048V64.7097L80.8946 64.9257C81.4027 67.8728 82.8382 70.7946 84.7055 73.3733C86.7889 76.2569 89.4565 78.7722 91.9591 80.4236L93.4962 81.4399L95.0841 80.5379C121.824 65.3449 122.282 37.7154 100.661 17.5427V17.5046Z" fill="white"/>
<path fill-rule="evenodd" clip-rule="evenodd" d="M82.5591 98.2333V110.962L85.4554 111.076C89.8888 111.254 93.1282 111.343 95.1861 111.343C97.8538 111.343 99.6703 110.975 100.623 110.251L100.661 110.289C112.501 99.2368 120.529 84.8441 114.355 68.6094C113.873 69.3716 113.364 70.0957 112.882 70.8197C111.954 72.179 110.951 73.4366 109.871 74.5799C112.564 87.0163 105.577 96.7597 97.2313 105.334C94.1698 105.334 91.2862 105.284 88.5931 105.195V92.0468L85.5316 92.0976C68.9158 92.3517 56.5302 99.9609 50.89 116.056L50.3818 117.517L51.2838 118.787C53.0622 121.277 55.1455 123.348 57.6354 124.872C60.1506 126.396 63.0215 127.349 66.3625 127.565C69.7034 127.349 72.5871 126.409 75.0896 124.872C77.5794 123.36 79.6628 121.277 81.4412 118.787L82.3431 117.517L81.835 116.056C80.209 111.407 77.9986 107.405 75.2039 104.077C73.8828 104.636 72.6379 105.36 71.4565 106.058C70.9102 106.376 70.3767 106.719 69.8559 107.087C72.2187 109.679 74.1369 112.842 75.5977 116.539C74.518 117.834 73.3112 118.914 71.9646 119.74C70.364 120.718 68.5093 121.34 66.3625 121.531C64.2029 121.34 62.3483 120.718 60.7477 119.74C59.4011 118.914 58.1943 117.834 57.1145 116.539C61.6877 105.017 70.2116 99.2876 82.5591 98.2587V98.2333Z" fill="white"/>
<path fill-rule="evenodd" clip-rule="evenodd" d="M66.3503 59.5781C68.6622 59.5781 70.5423 61.4582 70.5423 63.7702C70.5423 66.0822 68.6622 67.9622 66.3503 67.9622C64.0383 67.9622 62.1582 66.0822 62.1582 63.7702C62.1582 61.4582 64.0383 59.5781 66.3503 59.5781Z" fill="white"/>
<path fill-rule="evenodd" clip-rule="evenodd" d="M128.808 59.5781C131.12 59.5781 133 61.4582 133 63.7702C133 66.0822 131.12 67.9622 128.808 67.9622C126.496 67.9622 124.616 66.0822 124.616 63.7702C124.616 61.4582 126.496 59.5781 128.808 59.5781Z" fill="white"/>
<path fill-rule="evenodd" clip-rule="evenodd" d="M4.19206 59.5781C6.50405 59.5781 8.38412 61.4582 8.38412 63.7702C8.38412 66.0822 6.50405 67.9622 4.19206 67.9622C1.88008 67.9622 0 66.0822 0 63.7702C0 61.4582 1.88008 59.5781 4.19206 59.5781Z" fill="white"/>
</svg>
