<svg width="264" height="206" viewBox="0 0 264 206" fill="none" xmlns="http://www.w3.org/2000/svg">
<g clip-path="url(#clip0_4278_1785)">
<path fill-rule="evenodd" clip-rule="evenodd" d="M126.903 92.0756C121.13 90.0815 116.151 89.8214 110.181 89.7223V102.542C107.555 102.628 105.102 102.665 102.104 102.665C85.3574 85.6598 83.3507 65.4462 105.127 51.8962C106.564 53.0604 108.013 54.5591 109.227 56.2312C110.503 58.0023 111.494 59.9345 111.865 61.8048C111.791 63.7246 111.085 65.6815 109.834 67.5765C108.719 69.2486 107.171 70.8588 105.226 72.3079C102.042 70.2271 99.3297 67.9605 97.0629 65.5577C95.9357 67.3164 95.0315 69.1743 94.3626 71.156C97.0258 73.7199 100.172 76.1103 103.789 78.315L105.35 79.2687L106.886 78.2902C110.23 76.1475 112.881 73.5836 114.714 70.8216C116.646 67.911 117.687 64.7526 117.712 61.5571V61.2598L117.675 61.0492C117.179 58.1757 115.779 55.327 113.959 52.8127C111.927 50.0011 109.326 47.5488 106.886 45.9386L105.387 44.9478L103.839 45.8271C77.306 60.9006 77.7767 88.2484 98.4007 107.483L98.4379 107.446C99.3669 108.165 101.138 108.511 103.739 108.511C105.746 108.511 108.905 108.425 113.228 108.251L116.052 108.14V95.7294C118.108 95.9028 120.078 96.2124 121.948 96.6707C122.741 95.333 124.772 93.5247 126.903 92.026V92.0756Z" fill="white"/>
<path fill-rule="evenodd" clip-rule="evenodd" d="M146.945 11.2091L147.44 9.78475L146.561 8.54618C144.826 6.11857 142.795 4.09969 140.367 2.6134C137.939 1.1271 135.128 0.210558 131.87 0C128.612 0.210558 125.8 1.1271 123.36 2.62578C120.932 4.09969 118.901 6.13095 117.167 8.55856L116.287 9.79714L116.783 11.2215C118.368 15.7423 120.511 19.6314 123.211 22.8765C124.574 22.3315 125.837 21.576 127.039 20.87C127.522 20.5851 127.993 20.2879 128.451 19.9658C126.147 17.4392 124.277 14.3551 122.852 10.7508C123.905 9.48749 125.082 8.4347 126.395 7.62963C127.956 6.67593 129.764 6.06902 131.857 5.88324C133.963 6.06902 135.772 6.67593 137.332 7.62963C138.645 8.4347 139.822 9.48749 140.875 10.7508C136.255 22.4182 127.658 27.6079 116.064 28.574V16.3987L113.24 16.2873C108.917 16.1139 105.758 16.0272 103.752 16.0272C101.151 16.0272 99.3792 16.3864 98.4502 17.0924L98.4131 17.0552C86.8314 27.8556 79.0029 41.7029 85.0972 57.569C85.506 56.9373 85.9272 56.3304 86.3359 55.7235C87.2897 54.3116 88.3426 53.0234 89.4822 51.8468C86.7323 39.6468 93.5574 30.308 101.757 21.8856C104.743 21.8856 107.555 21.9352 110.181 22.0095V34.5934L113.166 34.5439C129.343 34.2962 141.445 26.8771 146.945 11.1843V11.2091Z" fill="white"/>
<path fill-rule="evenodd" clip-rule="evenodd" d="M165.314 17.0676L165.277 17.1047C164.348 16.3864 162.577 16.0396 159.976 16.0396C157.969 16.0396 154.81 16.1263 150.487 16.2997L147.663 16.4111V28.5863C145.632 28.4129 143.687 28.1033 141.841 27.6574C140.987 29.0198 138.918 30.8034 136.812 32.2773C140.974 33.714 145.557 34.4943 150.549 34.581L153.534 34.6306V22.0466C156.16 21.9599 158.613 21.9228 161.611 21.9228C178.358 38.9284 180.364 58.9067 158.588 72.4567C157.151 71.2924 155.702 69.7938 154.488 68.1217C153.212 66.3505 152.221 64.4183 151.85 62.5481C151.924 60.6283 152.63 58.6713 153.881 56.7763C154.996 55.1042 156.544 53.4941 158.489 52.045C161.697 54.1505 164.447 56.4419 166.714 58.8695C167.829 57.086 168.696 55.2033 169.34 53.1968H169.365C166.702 50.6454 163.555 48.2425 159.926 46.0379L158.365 45.0842L156.829 46.0626C153.485 48.2054 150.834 50.7692 149.001 53.5313C147.069 56.4419 146.028 59.6003 146.003 62.7958V63.0931L146.04 63.3036C146.536 66.1771 147.936 69.0258 149.756 71.5401C151.788 74.3517 154.389 76.8041 156.829 78.4142L158.328 79.4051L159.877 78.5257C185.951 63.7123 186.397 36.7733 165.314 17.1047V17.0676Z" fill="white"/>
<path fill-rule="evenodd" clip-rule="evenodd" d="M147.663 95.7791V108.19L150.487 108.301C154.81 108.475 157.969 108.561 159.976 108.561C162.577 108.561 164.348 108.202 165.277 107.496L165.314 107.533C176.859 96.7576 184.687 82.7245 178.667 66.8955C178.197 67.6387 177.701 68.3446 177.23 69.0506C176.326 70.3759 175.348 71.6021 174.295 72.7168C176.921 84.8425 170.108 94.3424 161.97 102.703C158.985 102.703 156.173 102.653 153.547 102.567V89.7472L150.562 89.7968C134.36 90.0445 122.283 97.4636 116.783 113.156L116.287 114.581L117.167 115.819C118.901 118.247 120.932 120.266 123.36 121.752C125.813 123.238 128.612 124.167 131.87 124.378C135.128 124.167 137.939 123.251 140.38 121.752C142.808 120.278 144.839 118.247 146.573 115.819L147.453 114.581L146.957 113.156C145.372 108.623 143.216 104.722 140.491 101.477C139.203 102.022 137.989 102.728 136.837 103.409C136.304 103.718 135.784 104.053 135.276 104.412C137.58 106.939 139.451 110.023 140.875 113.627C139.822 114.89 138.646 115.943 137.333 116.748C135.772 117.702 133.963 118.309 131.87 118.495C129.764 118.309 127.956 117.702 126.395 116.748C125.082 115.943 123.905 114.89 122.852 113.627C127.312 102.393 135.623 96.8071 147.663 95.8039V95.7791Z" fill="white"/>
<path fill-rule="evenodd" clip-rule="evenodd" d="M131.857 58.0894C134.112 58.0894 135.945 59.9224 135.945 62.1767C135.945 64.4309 134.112 66.264 131.857 66.264C129.603 66.264 127.77 64.4309 127.77 62.1767C127.77 59.9224 129.603 58.0894 131.857 58.0894Z" fill="white"/>
<path fill-rule="evenodd" clip-rule="evenodd" d="M192.763 58.0894C195.018 58.0894 196.851 59.9224 196.851 62.1767C196.851 64.4309 195.018 66.264 192.763 66.264C190.509 66.264 188.676 64.4309 188.676 62.1767C188.676 59.9224 190.509 58.0894 192.763 58.0894Z" fill="white"/>
<path fill-rule="evenodd" clip-rule="evenodd" d="M71.249 58.0894C73.5034 58.0894 75.3367 59.9224 75.3367 62.1767C75.3367 64.4309 73.5034 66.264 71.249 66.264C68.9946 66.264 67.1614 64.4309 67.1614 62.1767C67.1614 59.9224 68.9946 58.0894 71.249 58.0894Z" fill="white"/>
<path fill-rule="evenodd" clip-rule="evenodd" d="M29.0223 176.708H23.6464C19.2491 168.087 19.8065 168.966 14.4926 157.832C11.2101 164.247 7.8904 171.382 5.45019 176.708H0L14.4926 147.304L29.0223 176.708ZM57.7597 157.175C56.9422 154.525 54.663 153.261 50.8974 153.36V153.398H45.9427V148.518H51.7025C55.1832 148.518 57.8712 149.273 59.754 150.772C61.996 152.704 63.1603 155.454 63.2594 159.008C63.1603 161.659 62.2932 163.789 60.6706 165.412L58.8373 167.245L65.551 176.708H59.5186L51.6654 165.424C54.7125 165.015 56.6944 163.641 57.611 161.3C58.218 159.875 58.2675 158.5 57.7597 157.175ZM112.782 163.665C112.782 166.514 112.026 169.065 110.515 171.332C109.004 173.599 106.911 175.246 104.235 176.286C102.402 176.992 100.717 177.352 99.1564 177.352C97.5956 177.352 96.4313 177.252 95.4775 177.067V172.224C96.4313 172.583 97.4594 172.769 98.537 172.769C100.593 172.769 102.464 172.199 104.148 171.047C105.957 169.796 107.034 168.211 107.394 166.279H100.184V161.696H112.769V163.641L112.782 163.665ZM83.9206 161.671C84.094 158.104 85.6052 154.97 88.4418 152.27C91.4642 149.385 94.9077 147.935 98.7724 147.935C101.621 147.935 104.024 148.406 105.982 149.347L107.394 149.991L104.074 153.62C102.649 152.828 100.94 152.444 98.9582 152.444C96.3446 152.444 94.0035 153.41 91.9349 155.342C90.0025 157.163 88.9744 159.268 88.8506 161.671H83.8958H83.9206ZM158.378 176.708H153.002C148.778 168.421 148.964 168.545 143.848 157.832C140.603 164.173 137.221 171.431 134.806 176.708H129.355L143.848 147.304L158.378 176.708ZM191.351 152.902L185.666 153.014V176.695H180.711V153.014L174.877 152.902L175.026 148.48H191.351V152.902ZM215.085 176.708H210.093V153.051H215.085V176.708ZM264 162.588C264 166.712 262.476 170.193 259.417 173.054C256.37 175.915 252.765 177.339 248.628 177.339C244.491 177.339 240.861 175.927 237.839 173.091C234.817 170.255 233.305 166.749 233.305 162.588C233.305 158.426 234.841 154.971 237.926 152.097C240.923 149.323 244.503 147.935 248.64 147.935C252.778 147.935 256.37 149.323 259.392 152.097C262.464 154.971 264.012 158.463 264.012 162.588H264ZM259.008 162.588C259.008 159.739 257.992 157.336 255.973 155.379C253.954 153.422 251.502 152.444 248.628 152.444C245.754 152.444 243.302 153.422 241.283 155.367C239.264 157.311 238.248 159.727 238.248 162.6C238.248 165.474 239.276 167.815 241.32 169.771C243.364 171.728 245.804 172.707 248.628 172.707C251.452 172.707 253.88 171.716 255.936 169.747C257.992 167.777 259.008 165.387 259.008 162.6V162.588Z" fill="white"/>
<path fill-rule="evenodd" clip-rule="evenodd" d="M212.632 141.83C214.528 141.83 216.063 143.365 216.063 145.26C216.063 147.155 214.528 148.691 212.632 148.691C210.737 148.691 209.201 147.155 209.201 145.26C209.201 143.365 210.737 141.83 212.632 141.83Z" fill="white"/>
<path fill-rule="evenodd" clip-rule="evenodd" d="M26.2852 191.249C27.078 191.249 27.784 191.397 28.391 191.695C28.9979 191.992 29.5058 192.413 29.9022 192.946C30.2985 193.478 30.6082 194.097 30.8064 194.791C31.0046 195.485 31.1037 196.215 31.1037 196.983C31.1037 198.036 30.9179 198.99 30.5587 199.857C30.1994 200.724 29.6668 201.417 28.9484 201.938C28.2423 202.458 27.3381 202.718 26.2604 202.718H22.1604C21.9746 202.718 21.8136 202.656 21.6897 202.52C21.5658 202.384 21.5039 202.235 21.5039 202.049V191.905C21.5039 191.719 21.5658 191.558 21.6897 191.435C21.8136 191.311 21.9746 191.249 22.1604 191.249H26.2604H26.2852ZM26.1242 201.442C26.9665 201.442 27.6478 201.244 28.1804 200.835C28.713 200.427 29.097 199.894 29.3448 199.213C29.5925 198.532 29.7164 197.788 29.7164 196.983C29.7164 196.389 29.6544 195.831 29.5058 195.286C29.3695 194.742 29.159 194.271 28.8617 193.85C28.5768 193.429 28.2052 193.107 27.7469 192.871C27.2885 192.636 26.7559 192.512 26.1118 192.512H22.755L22.8912 192.376V201.603L22.7921 201.442H26.1118H26.1242ZM43.4162 194.246C43.6144 194.246 43.7754 194.308 43.8869 194.432C44.0107 194.556 44.0727 194.717 44.0727 194.903V199.374C44.0727 200.476 43.763 201.331 43.1437 201.938C42.5243 202.545 41.6696 202.842 40.5672 202.842C39.4648 202.842 38.6225 202.545 38.0031 201.938C37.3838 201.331 37.0741 200.476 37.0741 199.374V194.903C37.0741 194.717 37.1361 194.556 37.2599 194.432C37.3838 194.308 37.5448 194.246 37.7306 194.246C37.9288 194.246 38.0898 194.308 38.2013 194.432C38.3252 194.556 38.3871 194.717 38.3871 194.903V199.374C38.3871 200.117 38.5729 200.674 38.9569 201.058C39.3409 201.442 39.8735 201.628 40.5672 201.628C41.2609 201.628 41.8183 201.442 42.2023 201.058C42.5739 200.674 42.772 200.117 42.772 199.374V194.903C42.772 194.717 42.834 194.556 42.9579 194.432C43.0817 194.308 43.2428 194.246 43.4286 194.246H43.4162ZM54.4156 202.879C53.5362 202.879 52.7806 202.693 52.1241 202.322C51.4676 201.95 50.9597 201.442 50.5881 200.786C50.2165 200.142 50.0431 199.386 50.0431 198.532C50.0431 197.578 50.2289 196.773 50.6129 196.104C50.9845 195.435 51.48 194.915 52.0869 194.568C52.6939 194.209 53.338 194.036 54.0069 194.036C54.5147 194.036 54.9978 194.122 55.4685 194.308C55.9392 194.494 56.348 194.766 56.7196 195.113C57.0788 195.472 57.3637 195.893 57.5867 196.389C57.8096 196.884 57.9211 197.442 57.9335 198.049C57.9335 198.222 57.8716 198.371 57.7353 198.494C57.5991 198.618 57.4504 198.68 57.277 198.68H50.8111L50.5138 197.553H56.8187L56.5586 197.788V197.429C56.509 196.983 56.3604 196.599 56.1126 196.277C55.8525 195.955 55.5428 195.708 55.1836 195.534C54.812 195.361 54.428 195.274 54.0317 195.274C53.7096 195.274 53.3752 195.336 53.0531 195.448C52.731 195.559 52.4461 195.745 52.186 196.005C51.9259 196.265 51.7277 196.587 51.5667 196.996C51.4057 197.404 51.3313 197.887 51.3313 198.457C51.3313 199.089 51.4552 199.646 51.7153 200.129C51.9754 200.612 52.3347 200.984 52.793 201.269C53.2513 201.541 53.7839 201.69 54.4033 201.69C54.7873 201.69 55.1217 201.64 55.4066 201.541C55.6915 201.442 55.9392 201.318 56.1498 201.17C56.3604 201.021 56.5338 200.872 56.67 200.724C56.8063 200.625 56.9426 200.575 57.0788 200.575C57.2398 200.575 57.3761 200.625 57.4752 200.736C57.5743 200.848 57.6362 200.972 57.6362 201.133C57.6362 201.318 57.5495 201.479 57.3761 201.628C57.0664 201.962 56.6577 202.26 56.125 202.52C55.6048 202.78 55.0474 202.904 54.4528 202.904L54.4156 202.879ZM68.1155 194.036C68.8587 194.036 69.4408 194.184 69.8744 194.494C70.2955 194.803 70.6052 195.212 70.7786 195.72C70.952 196.228 71.0511 196.81 71.0511 197.442V202.049C71.0511 202.235 70.9892 202.396 70.8653 202.52C70.7415 202.656 70.5804 202.718 70.3946 202.718C70.2088 202.718 70.0478 202.656 69.9239 202.52C69.8001 202.384 69.7381 202.235 69.7381 202.049V197.479C69.7381 197.058 69.6762 196.686 69.5523 196.352C69.4285 196.017 69.2179 195.757 68.933 195.547C68.6481 195.348 68.2517 195.249 67.7439 195.249C67.2855 195.249 66.8644 195.348 66.4804 195.547C66.0964 195.745 65.7867 196.017 65.5638 196.352C65.3284 196.686 65.2169 197.058 65.2169 197.479V202.049C65.2169 202.235 65.155 202.396 65.0311 202.52C64.9073 202.644 64.7462 202.718 64.5604 202.718C64.3746 202.718 64.2136 202.656 64.0897 202.52C63.9659 202.384 63.9039 202.235 63.9039 202.049V194.903C63.9039 194.717 63.9659 194.556 64.0897 194.432C64.2136 194.308 64.3746 194.246 64.5604 194.246C64.7586 194.246 64.9197 194.308 65.0311 194.432C65.155 194.556 65.2169 194.717 65.2169 194.903V196.067L64.8949 196.426C64.9444 196.141 65.0807 195.856 65.2665 195.571C65.4647 195.286 65.7124 195.026 66.0097 194.791C66.307 194.556 66.629 194.382 66.9883 194.246C67.3475 194.11 67.7315 194.036 68.1155 194.036ZM65.5514 193.156C65.3532 193.156 65.2046 193.082 65.1055 192.933C65.0064 192.785 64.9692 192.574 64.994 192.302C65.0435 191.955 65.2169 191.657 65.5142 191.435C65.7991 191.199 66.1831 191.088 66.6538 191.088C66.8892 191.088 67.0997 191.137 67.3227 191.236C67.5333 191.335 67.7315 191.447 67.9297 191.571C68.1155 191.695 68.3013 191.806 68.4747 191.918C68.6481 192.017 68.8091 192.079 68.9454 192.079C69.0816 192.079 69.1931 192.029 69.2798 191.942C69.3665 191.843 69.4037 191.719 69.4037 191.558C69.3665 191.385 69.4037 191.249 69.4904 191.15C69.5771 191.051 69.701 191.001 69.8372 191.001C70.0478 191.001 70.1964 191.075 70.2831 191.224C70.3699 191.373 70.407 191.571 70.3946 191.818C70.3699 192.054 70.2955 192.252 70.1717 192.45C70.0478 192.636 69.8744 192.797 69.6514 192.921C69.4285 193.045 69.1559 193.107 68.8339 193.107C68.6357 193.107 68.4375 193.057 68.2269 192.958C68.0164 192.859 67.8058 192.747 67.5952 192.624C67.3846 192.5 67.1864 192.388 67.0006 192.289C66.8148 192.19 66.6538 192.141 66.5052 192.141C66.3565 192.141 66.245 192.178 66.1583 192.264C66.0716 192.351 66.0097 192.475 65.9849 192.648C66.0097 192.809 65.9725 192.946 65.8734 193.032C65.7867 193.131 65.6629 193.169 65.539 193.169L65.5514 193.156ZM85.5189 198.457C85.5189 199.312 85.3331 200.067 84.9491 200.736C84.5775 201.405 84.0697 201.925 83.4255 202.309C82.7814 202.693 82.063 202.879 81.2702 202.879C80.4775 202.879 79.7467 202.693 79.1026 202.309C78.4584 201.925 77.9506 201.405 77.5666 200.736C77.195 200.067 76.9968 199.312 76.9968 198.457C76.9968 197.603 77.1826 196.847 77.5666 196.178C77.9382 195.509 78.4584 194.989 79.1026 194.605C79.7467 194.221 80.4651 194.036 81.2702 194.036C82.0754 194.036 82.7814 194.221 83.4255 194.605C84.0697 194.989 84.5775 195.509 84.9491 196.178C85.3207 196.847 85.5189 197.603 85.5189 198.457ZM84.2059 198.457C84.2059 197.826 84.082 197.268 83.8219 196.785C83.5618 196.302 83.215 195.931 82.769 195.658C82.3231 195.386 81.8277 195.249 81.2702 195.249C80.7128 195.249 80.2174 195.386 79.7714 195.658C79.3255 195.931 78.9787 196.302 78.7186 196.785C78.4584 197.268 78.3222 197.826 78.3222 198.457C78.3222 199.089 78.4584 199.634 78.7186 200.117C78.9787 200.6 79.3379 200.972 79.7714 201.256C80.2174 201.529 80.7128 201.678 81.2702 201.678C81.8277 201.678 82.3231 201.541 82.769 201.256C83.215 200.972 83.5618 200.6 83.8219 200.117C84.082 199.634 84.2059 199.089 84.2059 198.457ZM91.0187 201.38C90.9196 201.244 90.8824 201.083 90.8824 200.934C90.8824 200.773 90.9815 200.637 91.1673 200.513C91.2788 200.439 91.4027 200.402 91.5513 200.414C91.6999 200.414 91.8362 200.501 91.9477 200.625C92.2573 200.984 92.6042 201.269 93.0005 201.479C93.3969 201.69 93.88 201.801 94.4374 201.801C94.6975 201.801 94.9577 201.752 95.2178 201.665C95.4779 201.591 95.7009 201.455 95.8867 201.269C96.0725 201.083 96.1592 200.823 96.1592 200.501C96.1592 200.179 96.0725 199.956 95.8867 199.77C95.7009 199.584 95.4655 199.448 95.1682 199.324C94.871 199.213 94.5489 199.114 94.2021 199.027C93.8429 198.928 93.4836 198.816 93.1368 198.693C92.79 198.569 92.4679 198.408 92.1954 198.222C91.9229 198.036 91.6875 197.788 91.5265 197.504C91.3531 197.219 91.2788 196.859 91.2788 196.451C91.2788 195.955 91.415 195.534 91.6752 195.175C91.9477 194.816 92.3069 194.531 92.7528 194.345C93.2111 194.147 93.6942 194.048 94.2392 194.048C94.5489 194.048 94.8586 194.085 95.193 194.159C95.5275 194.234 95.8495 194.345 96.1716 194.519C96.4936 194.692 96.7661 194.915 97.0015 195.212C97.1006 195.324 97.1501 195.46 97.1625 195.621C97.1625 195.782 97.1006 195.931 96.9519 196.067C96.8281 196.153 96.7042 196.191 96.5556 196.178C96.4069 196.178 96.2831 196.116 96.184 196.017C95.9486 195.745 95.6637 195.534 95.3293 195.386C94.9824 195.237 94.6108 195.163 94.1897 195.163C93.9296 195.163 93.6694 195.2 93.4217 195.274C93.174 195.348 92.9634 195.485 92.79 195.658C92.6166 195.831 92.5422 196.092 92.5422 196.401C92.5422 196.698 92.6537 196.934 92.8395 197.12C93.0253 197.305 93.2731 197.454 93.5951 197.565C93.9172 197.677 94.264 197.788 94.648 197.9C94.9948 197.987 95.3293 198.086 95.6513 198.197C95.9734 198.309 96.2707 198.457 96.5308 198.643C96.7909 198.829 97.0015 199.064 97.1501 199.361C97.2988 199.646 97.3855 200.018 97.3855 200.451C97.3855 200.959 97.2492 201.393 96.9643 201.752C96.6794 202.123 96.3078 202.396 95.8371 202.582C95.3788 202.767 94.871 202.867 94.3383 202.867C93.7438 202.867 93.1492 202.755 92.5546 202.52C91.9724 202.284 91.4646 201.9 91.0434 201.356L91.0187 201.38ZM113.538 202.049C113.538 202.235 113.476 202.396 113.352 202.52C113.228 202.644 113.067 202.718 112.881 202.718C112.683 202.718 112.522 202.656 112.411 202.52C112.287 202.384 112.225 202.235 112.225 202.049V194.779C112.225 194.593 112.287 194.432 112.411 194.308C112.535 194.184 112.696 194.122 112.881 194.122C113.067 194.122 113.228 194.184 113.352 194.308C113.476 194.432 113.538 194.593 113.538 194.779V202.049ZM112.894 193.02C112.621 193.02 112.423 192.97 112.287 192.859C112.151 192.747 112.089 192.586 112.089 192.351V192.116C112.089 191.88 112.163 191.719 112.299 191.608C112.435 191.496 112.646 191.447 112.906 191.447C113.166 191.447 113.364 191.496 113.501 191.608C113.637 191.719 113.699 191.88 113.699 192.116V192.351C113.699 192.586 113.625 192.747 113.488 192.859C113.352 192.97 113.154 193.02 112.894 193.02ZM124.116 194.036C124.859 194.036 125.442 194.184 125.875 194.494C126.296 194.803 126.606 195.212 126.779 195.72C126.965 196.228 127.052 196.81 127.052 197.442V202.049C127.052 202.235 126.99 202.396 126.866 202.52C126.742 202.656 126.581 202.718 126.395 202.718C126.21 202.718 126.049 202.656 125.925 202.52C125.801 202.384 125.739 202.235 125.739 202.049V197.479C125.739 197.058 125.677 196.686 125.553 196.352C125.429 196.017 125.219 195.757 124.934 195.547C124.649 195.348 124.252 195.249 123.745 195.249C123.286 195.249 122.865 195.348 122.481 195.547C122.097 195.745 121.787 196.017 121.565 196.352C121.329 196.686 121.218 197.058 121.218 197.479V202.049C121.218 202.235 121.156 202.396 121.032 202.52C120.908 202.656 120.747 202.718 120.561 202.718C120.375 202.718 120.214 202.656 120.09 202.52C119.967 202.384 119.905 202.235 119.905 202.049V194.903C119.905 194.717 119.967 194.556 120.09 194.432C120.214 194.308 120.375 194.246 120.561 194.246C120.759 194.246 120.92 194.308 121.032 194.432C121.156 194.556 121.218 194.717 121.218 194.903V196.067L120.896 196.426C120.945 196.141 121.081 195.856 121.267 195.571C121.465 195.286 121.713 195.026 122.01 194.791C122.308 194.556 122.63 194.382 122.989 194.246C123.348 194.11 123.732 194.036 124.116 194.036ZM133.159 194.296H137.011C137.184 194.296 137.333 194.358 137.444 194.481C137.556 194.605 137.618 194.742 137.618 194.903C137.618 195.076 137.556 195.225 137.444 195.336C137.333 195.448 137.184 195.509 137.011 195.509H133.159C132.998 195.509 132.849 195.447 132.737 195.324C132.614 195.2 132.552 195.051 132.552 194.878C132.552 194.717 132.614 194.58 132.737 194.457C132.861 194.345 132.998 194.283 133.159 194.283V194.296ZM134.88 192.066C134.695 192.066 134.534 192.128 134.41 192.252C134.273 192.376 134.211 192.537 134.211 192.723V200.699C134.211 201.207 134.286 201.591 134.434 201.876C134.583 202.148 134.769 202.359 134.979 202.47C135.202 202.594 135.413 202.656 135.648 202.681C135.871 202.706 136.057 202.718 136.218 202.718C136.503 202.718 136.763 202.656 136.986 202.507C137.221 202.371 137.333 202.21 137.333 202.012C137.333 201.851 137.283 201.715 137.197 201.616C137.11 201.517 136.998 201.455 136.899 201.455C136.8 201.455 136.689 201.479 136.614 201.517C136.528 201.554 136.441 201.578 136.33 201.578C136.206 201.578 136.082 201.554 135.958 201.504C135.834 201.455 135.735 201.368 135.661 201.232C135.586 201.095 135.549 200.91 135.549 200.637V192.723C135.549 192.537 135.487 192.376 135.363 192.252C135.24 192.128 135.091 192.066 134.905 192.066H134.88ZM147.28 202.879C146.4 202.879 145.644 202.693 144.988 202.322C144.331 201.95 143.824 201.442 143.452 200.786C143.08 200.142 142.907 199.386 142.907 198.532C142.907 197.578 143.093 196.773 143.477 196.104C143.848 195.435 144.344 194.915 144.951 194.568C145.558 194.209 146.202 194.036 146.871 194.036C147.379 194.036 147.862 194.122 148.332 194.308C148.803 194.494 149.212 194.766 149.583 195.113C149.943 195.472 150.228 195.893 150.451 196.389C150.674 196.884 150.785 197.442 150.797 198.049C150.797 198.222 150.735 198.371 150.599 198.494C150.463 198.618 150.314 198.68 150.141 198.68H143.675L143.378 197.553H149.683L149.422 197.788V197.429C149.373 196.983 149.224 196.599 148.977 196.277C148.716 195.955 148.407 195.708 148.048 195.534C147.676 195.361 147.292 195.274 146.896 195.274C146.573 195.274 146.239 195.336 145.917 195.448C145.595 195.559 145.31 195.745 145.05 196.005C144.79 196.265 144.592 196.587 144.431 196.996C144.27 197.404 144.195 197.887 144.195 198.457C144.195 199.089 144.319 199.646 144.579 200.129C144.839 200.612 145.199 200.984 145.657 201.269C146.115 201.541 146.648 201.69 147.267 201.69C147.651 201.69 147.986 201.64 148.27 201.541C148.555 201.442 148.803 201.318 149.014 201.17C149.224 201.021 149.398 200.872 149.534 200.724C149.67 200.625 149.806 200.575 149.943 200.575C150.104 200.575 150.24 200.625 150.339 200.736C150.438 200.848 150.5 200.972 150.5 201.133C150.5 201.318 150.413 201.479 150.24 201.628C149.93 201.962 149.522 202.26 148.989 202.52C148.456 202.78 147.911 202.904 147.317 202.904L147.28 202.879ZM158.205 202.049C158.205 202.235 158.143 202.396 158.007 202.52C157.87 202.644 157.722 202.718 157.536 202.718C157.35 202.718 157.201 202.656 157.077 202.52C156.954 202.384 156.892 202.235 156.892 202.049V191.249C156.892 191.063 156.954 190.902 157.077 190.778C157.201 190.654 157.362 190.592 157.548 190.592C157.746 190.592 157.907 190.654 158.019 190.778C158.143 190.902 158.205 191.063 158.205 191.249V202.049ZM166.008 202.049C166.008 202.235 165.946 202.396 165.823 202.52C165.699 202.644 165.538 202.718 165.352 202.718C165.154 202.718 164.993 202.656 164.881 202.52C164.757 202.384 164.695 202.235 164.695 202.049V194.779C164.695 194.593 164.757 194.432 164.881 194.308C165.005 194.184 165.166 194.122 165.352 194.122C165.538 194.122 165.699 194.184 165.823 194.308C165.946 194.432 166.008 194.593 166.008 194.779V202.049ZM165.352 193.02C165.079 193.02 164.881 192.97 164.745 192.859C164.609 192.747 164.547 192.586 164.547 192.351V192.116C164.547 191.88 164.621 191.719 164.757 191.608C164.894 191.496 165.104 191.447 165.364 191.447C165.624 191.447 165.823 191.496 165.959 191.608C166.095 191.719 166.157 191.88 166.157 192.116V192.351C166.157 192.586 166.083 192.747 165.946 192.859C165.81 192.97 165.612 193.02 165.352 193.02ZM175.93 194.036C176.401 194.036 176.834 194.11 177.243 194.271C177.652 194.432 177.999 194.63 178.296 194.89C178.593 195.138 178.829 195.398 179.002 195.67C179.176 195.943 179.262 196.203 179.262 196.438L178.953 196.24V194.816C178.953 194.63 179.015 194.469 179.138 194.345C179.262 194.221 179.411 194.159 179.609 194.159C179.795 194.159 179.956 194.221 180.08 194.345C180.204 194.469 180.266 194.63 180.266 194.816V201.987C180.266 202.879 180.08 203.622 179.696 204.217C179.324 204.811 178.816 205.245 178.185 205.542C177.553 205.839 176.847 205.988 176.054 205.988C175.732 205.988 175.36 205.938 174.976 205.852C174.58 205.765 174.233 205.653 173.924 205.53C173.614 205.406 173.416 205.282 173.329 205.146C173.168 205.034 173.069 204.91 173.032 204.774C172.995 204.638 173.019 204.514 173.106 204.39C173.205 204.241 173.329 204.155 173.49 204.155C173.651 204.155 173.849 204.204 174.085 204.303C174.184 204.34 174.332 204.39 174.555 204.464C174.766 204.539 175.014 204.613 175.274 204.675C175.546 204.737 175.806 204.762 176.066 204.762C176.995 204.762 177.702 204.514 178.209 204.031C178.705 203.548 178.953 202.904 178.953 202.111V200.588L179.138 200.674C179.076 200.984 178.94 201.269 178.742 201.529C178.544 201.789 178.296 202.024 177.999 202.223C177.714 202.421 177.392 202.582 177.045 202.693C176.698 202.805 176.339 202.867 175.98 202.867C175.212 202.867 174.531 202.681 173.911 202.297C173.304 201.913 172.821 201.393 172.462 200.724C172.103 200.055 171.929 199.299 171.929 198.445C171.929 197.59 172.103 196.822 172.462 196.153C172.821 195.485 173.292 194.964 173.899 194.593C174.506 194.221 175.187 194.023 175.943 194.023L175.93 194.036ZM176.104 195.249C175.546 195.249 175.051 195.386 174.605 195.67C174.159 195.955 173.824 196.327 173.577 196.81C173.329 197.293 173.205 197.838 173.205 198.47C173.205 199.101 173.329 199.609 173.577 200.105C173.824 200.6 174.171 200.972 174.605 201.256C175.051 201.541 175.546 201.678 176.104 201.678C176.661 201.678 177.169 201.541 177.615 201.256C178.048 200.984 178.395 200.6 178.643 200.117C178.891 199.634 179.015 199.089 179.015 198.457C179.015 197.826 178.891 197.268 178.643 196.785C178.395 196.302 178.048 195.931 177.615 195.658C177.181 195.386 176.673 195.249 176.104 195.249ZM190.287 202.879C189.407 202.879 188.651 202.693 187.995 202.322C187.338 201.95 186.831 201.442 186.459 200.786C186.087 200.142 185.914 199.386 185.914 198.532C185.914 197.578 186.1 196.773 186.484 196.104C186.855 195.435 187.351 194.915 187.958 194.568C188.565 194.209 189.209 194.036 189.878 194.036C190.386 194.036 190.869 194.122 191.339 194.308C191.81 194.494 192.219 194.766 192.59 195.113C192.95 195.472 193.235 195.893 193.458 196.389C193.68 196.884 193.792 197.442 193.804 198.049C193.804 198.222 193.742 198.371 193.606 198.494C193.47 198.618 193.321 198.68 193.148 198.68H186.682L186.385 197.553H192.69L192.429 197.788V197.429C192.38 196.983 192.231 196.599 191.984 196.277C191.723 195.955 191.414 195.708 191.055 195.534C190.683 195.361 190.299 195.274 189.903 195.274C189.58 195.274 189.246 195.336 188.924 195.448C188.602 195.559 188.317 195.745 188.057 196.005C187.797 196.265 187.599 196.587 187.438 196.996C187.277 197.404 187.202 197.887 187.202 198.457C187.202 199.089 187.326 199.646 187.586 200.129C187.846 200.612 188.206 200.984 188.664 201.269C189.122 201.541 189.655 201.69 190.274 201.69C190.658 201.69 190.993 201.64 191.277 201.541C191.562 201.442 191.81 201.318 192.021 201.17C192.231 201.021 192.405 200.872 192.541 200.724C192.677 200.625 192.813 200.575 192.95 200.575C193.111 200.575 193.247 200.625 193.346 200.736C193.445 200.848 193.507 200.972 193.507 201.133C193.507 201.318 193.42 201.479 193.247 201.628C192.937 201.962 192.529 202.26 191.996 202.52C191.463 202.78 190.918 202.904 190.324 202.904L190.287 202.879ZM203.974 194.036C204.717 194.036 205.299 194.184 205.733 194.494C206.154 194.803 206.464 195.212 206.637 195.72C206.811 196.228 206.91 196.81 206.91 197.442V202.049C206.91 202.235 206.848 202.396 206.724 202.52C206.6 202.656 206.439 202.718 206.253 202.718C206.067 202.718 205.906 202.656 205.782 202.52C205.659 202.384 205.597 202.235 205.597 202.049V197.479C205.597 197.058 205.535 196.686 205.411 196.352C205.287 196.017 205.076 195.757 204.791 195.547C204.507 195.348 204.11 195.249 203.602 195.249C203.144 195.249 202.723 195.348 202.339 195.547C201.955 195.745 201.645 196.017 201.422 196.352C201.187 196.686 201.075 197.058 201.075 197.479V202.049C201.075 202.235 201.013 202.396 200.89 202.52C200.766 202.656 200.605 202.718 200.419 202.718C200.233 202.718 200.072 202.656 199.948 202.52C199.824 202.384 199.762 202.235 199.762 202.049V194.903C199.762 194.717 199.824 194.556 199.948 194.432C200.072 194.308 200.233 194.246 200.419 194.246C200.617 194.246 200.778 194.308 200.89 194.432C201.013 194.556 201.075 194.717 201.075 194.903V196.067L200.753 196.426C200.803 196.141 200.939 195.856 201.125 195.571C201.323 195.286 201.571 195.026 201.868 194.791C202.165 194.556 202.488 194.382 202.847 194.246C203.206 194.11 203.59 194.036 203.974 194.036ZM213.016 194.296H216.869C217.042 194.296 217.191 194.358 217.302 194.481C217.414 194.605 217.476 194.742 217.476 194.903C217.476 195.076 217.414 195.225 217.302 195.336C217.191 195.448 217.042 195.509 216.869 195.509H213.016C212.855 195.509 212.707 195.447 212.595 195.324C212.471 195.2 212.409 195.051 212.409 194.878C212.409 194.717 212.471 194.58 212.595 194.457C212.719 194.345 212.855 194.283 213.016 194.283V194.296ZM214.726 192.066C214.54 192.066 214.379 192.128 214.255 192.252C214.131 192.376 214.057 192.537 214.057 192.723V200.699C214.057 201.207 214.131 201.591 214.28 201.876C214.428 202.148 214.614 202.359 214.825 202.47C215.048 202.594 215.258 202.656 215.494 202.681C215.717 202.706 215.902 202.718 216.063 202.718C216.348 202.718 216.608 202.656 216.831 202.507C217.067 202.371 217.178 202.21 217.178 202.012C217.178 201.851 217.129 201.715 217.042 201.616C216.955 201.517 216.844 201.455 216.745 201.455C216.646 201.455 216.534 201.479 216.46 201.517C216.373 201.554 216.286 201.578 216.175 201.578C216.051 201.578 215.927 201.554 215.803 201.504C215.679 201.455 215.58 201.368 215.506 201.232C215.432 201.095 215.395 200.91 215.395 200.637V192.723C215.395 192.537 215.333 192.376 215.209 192.252C215.085 192.128 214.936 192.066 214.75 192.066H214.726ZM227.125 202.879C226.245 202.879 225.49 202.693 224.833 202.322C224.177 201.95 223.669 201.442 223.297 200.786C222.926 200.142 222.752 199.386 222.752 198.532C222.752 197.578 222.938 196.773 223.322 196.104C223.694 195.435 224.189 194.915 224.796 194.568C225.403 194.209 226.047 194.036 226.716 194.036C227.224 194.036 227.707 194.122 228.178 194.308C228.648 194.494 229.057 194.766 229.429 195.113C229.788 195.472 230.073 195.893 230.296 196.389C230.519 196.884 230.63 197.442 230.643 198.049C230.643 198.222 230.581 198.371 230.445 198.494C230.308 198.618 230.16 198.68 229.986 198.68H223.52L223.223 197.553H229.528L229.268 197.788V197.429C229.218 196.983 229.07 196.599 228.822 196.277C228.562 195.955 228.252 195.708 227.893 195.534C227.521 195.361 227.137 195.274 226.741 195.274C226.419 195.274 226.084 195.336 225.762 195.448C225.44 195.559 225.155 195.745 224.895 196.005C224.635 196.265 224.437 196.587 224.276 196.996C224.115 197.404 224.041 197.887 224.041 198.457C224.041 199.089 224.164 199.646 224.425 200.129C224.685 200.612 225.044 200.984 225.502 201.269C225.961 201.541 226.493 201.69 227.113 201.69C227.496 201.69 227.831 201.64 228.116 201.541C228.401 201.442 228.648 201.318 228.859 201.17C229.07 201.021 229.243 200.872 229.379 200.724C229.516 200.625 229.652 200.575 229.788 200.575C229.949 200.575 230.085 200.625 230.184 200.736C230.284 200.848 230.345 200.972 230.345 201.133C230.345 201.318 230.259 201.479 230.085 201.628C229.776 201.962 229.367 202.26 228.834 202.52C228.302 202.78 227.757 202.904 227.162 202.904L227.125 202.879Z" fill="white"/>
<path fill-rule="evenodd" clip-rule="evenodd" d="M236.129 201.38C236.03 201.244 235.993 201.083 235.993 200.934C235.993 200.773 236.092 200.637 236.266 200.513C236.377 200.439 236.501 200.402 236.65 200.414C236.798 200.414 236.935 200.501 237.046 200.625C237.356 200.984 237.703 201.269 238.099 201.479C238.495 201.69 238.978 201.801 239.536 201.801C239.796 201.801 240.056 201.752 240.316 201.665C240.576 201.591 240.799 201.455 240.985 201.269C241.171 201.083 241.258 200.823 241.258 200.501C241.258 200.179 241.171 199.956 240.985 199.77C240.799 199.584 240.564 199.448 240.267 199.324C239.969 199.213 239.647 199.114 239.3 199.027C238.941 198.928 238.582 198.816 238.235 198.693C237.888 198.569 237.566 198.408 237.294 198.222C237.021 198.036 236.786 197.788 236.625 197.503C236.451 197.219 236.377 196.859 236.377 196.451C236.377 195.955 236.513 195.534 236.774 195.175C237.046 194.816 237.405 194.531 237.851 194.345C238.309 194.147 238.805 194.048 239.338 194.048C239.647 194.048 239.957 194.085 240.291 194.159C240.626 194.234 240.948 194.345 241.27 194.519C241.592 194.692 241.865 194.915 242.1 195.212C242.199 195.324 242.248 195.46 242.261 195.621C242.261 195.782 242.199 195.93 242.05 196.067C241.926 196.153 241.803 196.191 241.654 196.178C241.505 196.178 241.381 196.116 241.282 196.017C241.047 195.745 240.762 195.534 240.428 195.386C240.081 195.237 239.709 195.163 239.288 195.163C239.028 195.163 238.768 195.2 238.52 195.274C238.272 195.348 238.062 195.485 237.888 195.658C237.715 195.844 237.641 196.092 237.641 196.401C237.641 196.698 237.752 196.934 237.938 197.12C238.124 197.305 238.371 197.454 238.693 197.565C239.016 197.677 239.362 197.788 239.746 197.9C240.093 197.987 240.428 198.086 240.75 198.197C241.072 198.309 241.369 198.457 241.629 198.643C241.889 198.829 242.1 199.064 242.249 199.361C242.397 199.646 242.484 200.018 242.484 200.451C242.484 200.959 242.348 201.393 242.063 201.752C241.778 202.123 241.406 202.396 240.935 202.582C240.477 202.767 239.969 202.867 239.437 202.867C238.842 202.867 238.248 202.755 237.653 202.52C237.071 202.284 236.563 201.9 236.142 201.355L236.129 201.38Z" fill="white"/>
</g>
<defs>
<clipPath id="clip0_4278_1785">
<rect width="264" height="206" fill="white"/>
</clipPath>
</defs>
</svg>
