<svg width="997" height="1039" viewBox="0 0 997 1039" fill="none" xmlns="http://www.w3.org/2000/svg">
<path d="M277.16 345.123L174.957 345.123L174.473 345.123L174.457 344.639C173.762 323.595 173.465 303.94 173.465 279.92L173.465 279.71L173.614 279.563C241.795 212.425 316.469 174.771 387.743 175.79C459.046 176.811 526.817 216.533 581.166 303.87L581.354 304.172L581.13 304.449C571.775 315.993 559.735 327.635 546.302 337.386L546.3 337.387C532.076 347.633 516.528 355.614 501.448 358.61L501.391 358.621L501.332 358.619C485.839 358.019 470.072 352.323 454.831 342.262L454.829 342.26C441.378 333.293 428.436 320.846 416.796 305.226L416.587 304.946L416.779 304.654C433.336 279.325 451.363 257.707 470.473 239.606C456.663 230.814 442.09 223.738 426.567 218.471C406.136 239.729 387.079 264.829 369.494 293.676L369.493 293.677L362.015 305.915L369.686 317.956L277.16 345.123ZM277.16 345.123C276.367 392.271 274.274 431.679 258.787 477.131M277.16 345.123L258.787 477.131M258.787 477.131C252.995 468.993 246.669 461.081 240.486 454.388C234.139 447.517 227.919 441.904 222.569 438.66C226.199 423.754 228.656 408.069 230.036 391.704L230.082 391.162L229.538 391.162L130.582 391.162L129.708 369.016C128.318 334.382 127.624 309.085 127.624 293.019C127.624 282.618 128.318 273.896 129.723 266.856C131.13 259.811 133.242 254.487 136.054 250.851L136.323 250.503L136.056 250.236C212.975 167.934 306.009 125.898 394.841 130.855C483.783 135.818 568.616 187.897 628.933 294.06L635.828 306.198L628.058 317.95L628.058 317.95C615.191 337.448 595.585 358.244 573.105 374.485L573.105 374.486C553.001 389.043 530.247 400.216 507.32 404.169L507.318 404.17L505.674 404.46L503.34 404.46C477.845 404.262 452.633 395.962 429.382 380.528L429.106 380.944L429.382 380.527C407.318 365.884 386.823 344.7 369.687 317.957L258.787 477.131Z" stroke="white" stroke-opacity="0.5"/>
<path d="M719.885 345.16L720.274 368.568L720.274 368.569C721.265 433.297 736.604 489.838 767.364 535.688C798.123 581.534 844.324 616.727 907.102 638.727L907.091 638.792L918.071 642.611L927.784 635.716C947.191 621.854 963.316 605.626 975.183 586.242C987.043 566.871 994.362 544.434 996.048 518.426C994.362 492.418 987.043 469.981 975.084 450.511L975.083 450.509C963.316 431.128 947.093 414.9 927.685 401.037L917.972 394.142L906.805 398.026L719.885 345.16ZM719.885 345.16L820.203 345.16L820.689 345.16L820.703 344.674C821.298 323.632 821.695 301.1 821.695 277.178L821.695 276.967L821.544 276.82C754.113 211.174 679.186 156.351 581.292 178.286C571.896 169.209 561.617 160.818 550.356 153.213L550.356 153.212C548.912 152.24 547.466 151.257 546.014 150.271C542.851 148.121 539.657 145.951 536.387 143.819C662.68 95.8178 772.976 158.058 859.203 250.372L858.938 250.637L859.202 250.984C861.967 254.622 864.08 259.948 865.499 266.994C866.916 274.034 867.635 282.756 867.635 293.156C867.635 309.222 866.94 334.519 865.551 369.152L865.551 369.152L864.677 391.298L767.607 391.298L767.063 391.298L767.108 391.84C770.984 438.346 783.334 478.876 806.443 512.421C829.555 545.969 863.406 572.498 910.226 591.037L910.502 591.146L910.73 590.956C920.888 582.491 929.362 573.023 935.844 562.452L935.845 562.451C943.528 549.878 948.414 535.314 949.909 518.371L949.913 518.327L949.909 518.283C948.414 501.438 943.528 486.875 935.845 474.302L935.844 474.302C929.362 463.73 920.888 454.262 910.73 445.797L910.502 445.607L910.226 445.716C881.499 457.068 856.877 471.955 836.661 490.284C834.215 486.772 831.945 483.168 829.764 479.47C829.502 479.025 829.24 478.579 828.977 478.132C823.607 469.002 817.992 459.454 813.856 449.21C839.748 427.729 870.76 410.666 906.803 398.026L719.885 345.16Z" stroke="white" stroke-opacity="0.5"/>
<path d="M570.321 818.096C590.602 796.869 609.71 771.818 627.253 742.94L627.254 742.939L634.732 730.702L627.061 718.66L570.321 818.096ZM570.321 818.096C554.547 813.02 539.732 806.218 525.687 797.502M570.321 818.096L525.687 797.502M525.687 797.502C544.994 779.397 563.216 757.485 579.968 731.963L580.16 731.67L579.951 731.39C568.311 715.77 555.369 703.323 541.918 694.356L541.917 694.355C526.675 684.293 510.908 678.597 495.415 677.997L495.357 677.995L495.299 678.006C480.219 681.002 464.672 688.983 450.447 699.229L450.445 699.23C437.012 708.981 424.972 720.623 415.617 732.167L415.393 732.444L415.581 732.746C469.929 820.081 537.228 859.805 608.061 860.826C678.865 861.846 753.068 824.19 821.248 757.053L821.397 756.906L821.397 756.696C821.397 732.676 821.099 713.021 820.404 691.977L820.388 691.493L819.905 691.493L719.587 691.493L719.976 668.085C720.663 628.51 726.799 592.154 738.088 559.111C743.853 567.287 750.18 575.36 756.406 582.261C762.712 589.25 768.935 595.059 774.38 598.543C770.846 613.253 768.389 628.741 767.009 644.912L766.962 645.454L767.507 645.454L864.577 645.454L865.452 667.6L865.452 667.601C866.841 702.234 867.535 727.531 867.535 743.597C867.535 753.998 866.842 762.72 865.436 769.76C864.029 776.805 861.917 782.129 859.105 785.765L858.836 786.113L858.949 786.227C780.269 870.463 687.126 911.637 598.885 905.762C510.588 899.883 427.091 846.887 367.814 742.556L360.919 730.418L368.689 718.666L368.689 718.666C381.556 699.168 401.162 678.372 423.642 662.131L423.643 662.131C443.746 647.573 466.501 636.4 489.428 632.447L489.429 632.447L491.073 632.156L493.409 632.156C518.903 632.354 544.115 640.655 567.365 656.089C589.429 670.732 609.925 691.916 627.06 718.659L525.687 797.502Z" stroke="white" stroke-opacity="0.5"/>
<path d="M276.571 668.185L276.96 691.593L174.757 691.593L174.273 691.593L174.257 692.076C173.562 713.12 173.165 735.653 173.165 759.575L173.165 759.786L173.316 759.933C240.256 825.087 316.468 879.806 413.769 858.861C422.67 867.247 432.451 875.043 443.013 882.249L443.018 882.252C444.885 883.497 446.756 884.766 448.64 886.044C452.179 888.444 455.762 890.875 459.451 893.233C333.452 940.634 221.685 878.393 135.657 786.381L135.922 786.116L135.658 785.769C132.894 782.131 130.781 776.805 129.362 769.76C127.944 762.719 127.226 753.997 127.226 743.597C127.226 727.531 127.92 702.234 129.309 667.601L130.183 645.455L228.481 645.455L228.941 645.455L229.139 645.455L229.139 644.955L229.139 644.938L229.439 644.913C225.414 596.616 212.194 555.763 188.686 522.504C165.177 489.243 131.402 463.609 86.3216 445.716L86.0454 445.607L85.8171 445.797C75.6589 454.262 67.1856 463.73 60.7029 474.302L60.7025 474.302C53.0189 486.875 48.1335 501.439 46.6385 518.382L46.6347 518.426L46.6386 518.47C48.1336 535.315 53.0191 549.878 60.7025 562.451L60.7029 562.452C67.1856 573.023 75.6589 582.491 85.8171 590.956L86.045 591.146L86.3209 591.037C115.049 579.684 139.671 564.797 159.888 546.468C162.634 550.378 165.197 554.379 167.576 558.472L167.578 558.475C172.977 567.604 178.553 577.191 182.885 587.351C156.993 609.027 125.883 626.187 89.7431 638.826L78.575 642.711L68.8626 635.815C49.4547 621.952 33.2314 605.724 21.4643 586.343L21.463 586.341C9.50433 566.871 2.18551 544.434 0.499567 518.426C2.18548 492.421 9.60263 470.081 21.4646 450.509C33.3316 431.127 49.4561 414.899 68.8621 401.038C68.8623 401.038 68.8625 401.038 68.8626 401.037L78.5751 394.142L89.7429 398.026C152.522 420.026 198.723 455.169 229.481 500.991C260.241 546.816 275.58 603.356 276.571 668.184L276.571 668.185Z" stroke="white" stroke-opacity="0.5"/>
<path d="M530.621 518.329C530.621 536.114 516.158 550.577 498.373 550.577C480.587 550.577 466.124 536.114 466.124 518.329C466.124 500.544 480.587 486.08 498.373 486.08C516.158 486.08 530.621 500.544 530.621 518.329Z" stroke="white" stroke-opacity="0.5"/>
<path d="M530.621 1006.25C530.621 1024.04 516.158 1038.5 498.373 1038.5C480.587 1038.5 466.124 1024.04 466.124 1006.25C466.124 988.466 480.587 974.003 498.373 974.003C516.158 974.003 530.621 988.466 530.621 1006.25Z" stroke="white" stroke-opacity="0.5"/>
<path d="M530.621 32.7486C530.621 50.5338 516.158 64.9971 498.373 64.9971C480.587 64.9971 466.124 50.5338 466.124 32.7486C466.124 14.9634 480.587 0.499998 498.373 0.499999C516.158 0.499999 530.621 14.9634 530.621 32.7486Z" stroke="white" stroke-opacity="0.5"/>
</svg>
