<svg width="200" height="200" viewBox="0 0 200 200" fill="none" xmlns="http://www.w3.org/2000/svg">
<path d="M196.496 100.032C188.554 108.268 182.186 114.929 176.617 120.754C154.397 143.995 144.912 153.915 99.0076 197.495C45.6169 196.963 2.5 153.517 2.5 100C2.5 46.4961 45.5966 3.05786 98.9698 2.50533L99.0196 2.55509L99.2804 2.8159L99.5404 3.07589L99.7996 3.33508L100.058 3.59347L100.316 3.85105L100.572 4.10784L100.828 4.36383L101.083 4.61903L101.338 4.87344L101.592 5.12707L101.844 5.37992L102.096 5.63198L102.348 5.88328L102.598 6.1338L102.848 6.38355L103.097 6.63254L103.345 6.88076L103.593 7.12823L103.839 7.37494L104.085 7.6209L104.331 7.86611L104.575 8.11057L104.819 8.35429L105.062 8.59727L105.304 8.83952L105.546 9.08103L105.786 9.32182L106.026 9.56188L106.266 9.80121L106.504 10.0398L106.742 10.2777L106.979 10.5149L107.216 10.7514L107.452 10.9872L107.687 11.2222L107.921 11.4566L108.155 11.6903L108.388 11.9232L108.62 12.1555L108.852 12.3871L109.083 12.6181L109.313 12.8483L109.542 13.0778L109.771 13.3067L109.999 13.5349L110.227 13.7625L110.454 13.9894L110.68 14.2156L110.906 14.4412L111.131 14.6661L111.355 14.8903L111.578 15.1139L111.801 15.3369L112.024 15.5592L112.245 15.7809L112.466 16.002L112.687 16.2224L112.907 16.4422L113.126 16.6614L113.344 16.8799L113.562 17.0978L113.78 17.3152L113.996 17.5319L114.212 17.748L114.428 17.9634L114.643 18.1783L114.857 18.3926L115.071 18.6063L115.284 18.8194L115.496 19.0319L115.708 19.2438L115.92 19.4552L116.13 19.6659L116.341 19.8761L116.55 20.0857L116.759 20.2948L116.968 20.5033L117.176 20.7112L117.383 20.9185L117.59 21.1253L117.796 21.3316L118.002 21.5373L118.207 21.7424L118.412 21.947L118.616 22.1511L118.819 22.3546L119.022 22.5576L119.225 22.7601L119.427 22.962L119.628 23.1635L119.829 23.3644L120.029 23.5647L120.229 23.7646L120.428 23.9639L120.627 24.1628L120.826 24.3611L121.023 24.559L121.221 24.7563L121.418 24.9532L121.614 25.1495L121.81 25.3454L122.005 25.5408L122.2 25.7357L122.395 25.9301L122.589 26.1241L122.782 26.3175L122.975 26.5105L123.168 26.7031L123.36 26.8952L123.551 27.0868L123.742 27.278L123.933 27.4687L124.123 27.659L124.313 27.8488L124.503 28.0382L124.692 28.2271L124.88 28.4156L125.068 28.6037L125.256 28.7913L125.443 28.9786L125.63 29.1654L125.816 29.3517L126.002 29.5377L126.188 29.7233L126.373 29.9084L126.558 30.0931L126.742 30.2775L126.926 30.4614L127.109 30.6449L127.293 30.8281L127.475 31.0108L127.658 31.1932L127.84 31.3752L128.021 31.5568L128.202 31.738L128.383 31.9188L128.564 32.0993L128.744 32.2794L128.924 32.4592L129.103 32.6386L129.282 32.8176L129.461 32.9963L129.639 33.1746L129.817 33.3526L129.995 33.5302L130.172 33.7075L130.349 33.8845L130.526 34.0611L130.702 34.2374L130.878 34.4133L131.053 34.589L131.229 34.7643L131.404 34.9393L131.578 35.114L131.753 35.2884L131.927 35.4624L132.101 35.6362L132.274 35.8096L132.447 35.9828L132.62 36.1557L132.793 36.3282L132.965 36.5005L133.137 36.6725L133.309 36.8442L133.48 37.0157L133.651 37.1868L133.822 37.3577L133.993 37.5283L134.163 37.6987L134.333 37.8688L134.503 38.0386L134.673 38.2082L134.842 38.3775L135.011 38.5465L135.18 38.7154L135.348 38.884L135.517 39.0523L135.685 39.2204L135.853 39.3883L136.02 39.5559L136.188 39.7233L136.355 39.8905L136.522 40.0575L136.689 40.2242L136.855 40.3908L137.022 40.5571L137.188 40.7232L137.354 40.8892L137.519 41.0549L137.685 41.2204L137.85 41.3857L138.015 41.5509L138.18 41.7158L138.345 41.8806L138.51 42.0452L138.674 42.2096L138.838 42.3738L139.002 42.5378L139.166 42.7017L139.33 42.8655L139.493 43.029L139.657 43.1924L139.82 43.3557L139.983 43.5188L140.146 43.6817L140.309 43.8445L140.472 44.0072L140.634 44.1697L140.797 44.3321L140.959 44.4944L141.121 44.6565L141.283 44.8185L141.445 44.9804L141.607 45.1422L141.768 45.3038L141.93 45.4653L142.091 45.6268L142.253 45.7881L142.414 45.9493L142.575 46.1104L142.736 46.2714L142.897 46.4324L143.058 46.5932L143.218 46.7539L143.379 46.9146L143.54 47.0752L143.7 47.2357L143.861 47.3961L144.021 47.5565L144.181 47.7168L144.342 47.877L144.502 48.0372L144.662 48.1973L144.822 48.3574L144.982 48.5174L145.142 48.6774L145.302 48.8373L145.462 48.9972L145.622 49.157L145.781 49.3169L145.941 49.4766L146.101 49.6364L146.261 49.7961L146.42 49.9558L146.58 50.1155L146.74 50.2752L146.899 50.4348L147.059 50.5945L147.219 50.7542L147.378 50.9138L147.538 51.0734L147.698 51.2331L147.857 51.3928L148.017 51.5524L148.177 51.7121L148.336 51.8718L148.496 52.0316L148.656 52.1913L148.816 52.3511L148.975 52.5109L149.135 52.6708L149.295 52.8306L149.455 52.9906L149.615 53.1505L149.775 53.3105L149.935 53.4706L150.095 53.6307L150.255 53.7909L150.416 53.9511L150.576 54.1114L150.736 54.2718L150.897 54.4323L151.057 54.5928L151.218 54.7534L151.378 54.914L151.539 55.0748L151.7 55.2356L151.861 55.3965L152.022 55.5576L152.183 55.7187L152.344 55.8799L152.506 56.0412L152.667 56.2026L152.829 56.3642L152.99 56.5258L153.152 56.6876L153.314 56.8495L153.476 57.0115L153.638 57.1736L153.8 57.3359L153.963 57.4983L154.125 57.6608L154.288 57.8235L154.451 57.9863L154.614 58.1492L154.777 58.3123L154.94 58.4756L155.103 58.639L155.267 58.8025L155.431 58.9663L155.595 59.1302L155.759 59.2942L155.923 59.4585L156.087 59.6229L156.252 59.7874L156.417 59.9522L156.582 60.1172L156.747 60.2823L156.912 60.4476L157.078 60.6132L157.243 60.7789L157.409 60.9448L157.575 61.1109L157.742 61.2773L157.908 61.4438L158.075 61.6106L158.242 61.7775L158.409 61.9447L158.577 62.1121L158.744 62.2798L158.912 62.4477L159.08 62.6158L159.249 62.7841L159.417 62.9527L159.586 63.1215L159.755 63.2906L159.924 63.4599L160.094 63.6295L160.264 63.7993L160.434 63.9694L160.604 64.1398L160.775 64.3104L160.946 64.4813L161.117 64.6525L161.288 64.8239L161.46 64.9956L161.632 65.1676L161.804 65.3399L161.977 65.5125L162.15 65.6853L162.323 65.8585L162.496 66.032L162.67 66.2057L162.844 66.3798L163.019 66.5542L163.193 66.7289L163.368 66.9039L163.544 67.0792L163.719 67.2548L163.895 67.4308L164.072 67.6071L164.248 67.7837L164.425 67.9607L164.602 68.138L164.78 68.3156L164.958 68.4936L165.136 68.6719L165.315 68.8506L165.494 69.0296L165.674 69.209L165.853 69.3888L166.033 69.5689L166.214 69.7494L166.395 69.9303L166.576 70.1115L166.758 70.2931L166.94 70.4751L167.122 70.6574L167.305 70.8402L167.488 71.0234L167.671 71.2069L167.855 71.3908L168.04 71.5752L168.224 71.7599L168.41 71.9451L168.595 72.1306L168.781 72.3166L168.967 72.503L169.154 72.6898L169.341 72.877L169.529 73.0646L169.717 73.2527L169.906 73.4412L170.095 73.6302L170.284 73.8196L170.474 74.0094L170.664 74.1997L170.855 74.3904L171.046 74.5816L171.238 74.7732L171.43 74.9653L171.622 75.1579L171.815 75.3509L172.009 75.5444L172.203 75.7383L172.397 75.9327L172.592 76.1277L172.788 76.3231L172.983 76.5189L173.18 76.7153L173.377 76.9121L173.574 77.1095L173.772 77.3073L173.97 77.5057L174.169 77.7045L174.368 77.9039L174.568 78.1038L174.769 78.3042L174.97 78.5051L175.171 78.7065L175.373 78.9084L175.575 79.1109L175.778 79.3139L175.982 79.5174L176.186 79.7215L176.391 79.9261L176.596 80.1313L176.801 80.337L177.008 80.5433L177.215 80.7501L177.422 80.9574L177.63 81.1653L177.838 81.3738L178.047 81.5829L178.257 81.7925L178.467 82.0027L178.678 82.2135L178.889 82.4248L179.101 82.6368L179.314 82.8493L179.527 83.0624L179.741 83.2761L179.955 83.4904L180.17 83.7053L180.385 83.9208L180.601 84.1369L180.818 84.3536L181.035 84.5709L181.253 84.7888L181.472 85.0074L181.691 85.2266L181.911 85.4464L182.131 85.6668L182.352 85.8879L182.574 86.1096L182.796 86.3319L183.019 86.5549L183.243 86.7785L183.467 87.0028L183.692 87.2277L183.918 87.4533L184.144 87.6795L184.371 87.9064L184.598 88.1339L184.827 88.3622L185.056 88.5911L185.285 88.8206L185.515 89.0509L185.746 89.2818L185.978 89.5134L186.21 89.7457L186.443 89.9787L186.677 90.2124L186.911 90.4467L187.146 90.6818L187.382 90.9176L187.619 91.1541L187.856 91.3913L188.094 91.6292L188.332 91.8678L188.572 92.1072L188.812 92.3472L189.053 92.588L189.294 92.8296L189.536 93.0718L189.779 93.3148L190.023 93.5585L190.267 93.803L190.513 94.0482L190.759 94.2942L191.005 94.5409L191.253 94.7884L191.501 95.0366L191.75 95.2856L192 95.5354L192.25 95.7859L192.502 96.0372L192.754 96.2893L193.007 96.5422L193.26 96.7958L193.515 97.0502L193.77 97.3054L194.026 97.5614L194.283 97.8182L194.54 98.0758L194.799 98.3342L195.058 98.5934L195.318 98.8534L195.579 99.1143L195.84 99.3759L196.103 99.6383L196.366 99.9016L196.496 100.032Z" stroke="white" stroke-width="5"/>
</svg>
