<svg width="120" height="120" viewBox="0 0 120 120" fill="none" xmlns="http://www.w3.org/2000/svg">
<circle cx="56.5" cy="59.5" r="20" stroke="white" stroke-width="5"/>
<mask id="path-2-inside-1_4574_5002" fill="white">
<path d="M60 0C49.1778 -1.29054e-07 38.5571 2.92706 29.2628 8.47114C19.9685 14.0152 12.3468 21.9699 7.20487 31.4926C2.06298 41.0152 -0.407612 51.7513 0.0547942 62.5636C0.5172 73.376 3.89539 83.8619 9.83152 92.9108L30.8839 79.1004C27.4388 73.8487 25.4782 67.763 25.2098 61.4879C24.9414 55.2127 26.3753 48.9819 29.3595 43.4552C32.3437 37.9286 36.7671 33.312 42.1611 30.0944C47.5552 26.8768 53.7192 25.178 60 25.178V0Z"/>
</mask>
<path d="M60 0C49.1778 -1.29054e-07 38.5571 2.92706 29.2628 8.47114C19.9685 14.0152 12.3468 21.9699 7.20487 31.4926C2.06298 41.0152 -0.407612 51.7513 0.0547942 62.5636C0.5172 73.376 3.89539 83.8619 9.83152 92.9108L30.8839 79.1004C27.4388 73.8487 25.4782 67.763 25.2098 61.4879C24.9414 55.2127 26.3753 48.9819 29.3595 43.4552C32.3437 37.9286 36.7671 33.312 42.1611 30.0944C47.5552 26.8768 53.7192 25.178 60 25.178V0Z" stroke="white" stroke-width="10" mask="url(#path-2-inside-1_4574_5002)"/>
</svg>
