<svg width="175" height="148" viewBox="0 0 175 148" fill="none" xmlns="http://www.w3.org/2000/svg">
<g clip-path="url(#clip0_670_1309)">
<path d="M160.55 109.829C164.478 94.5585 161.586 60.5411 123.967 49.6329C86.3457 38.737 31.4447 36.1143 20.328 0.0808766C20.328 0.0808766 11.7266 28.0912 24.2502 42.5612C36.7739 57.0312 74.2382 61.1991 96.605 60.7999C123.625 60.3098 140.991 68.3051 151.269 83.7939C160.358 97.4844 160.548 109.841 160.548 109.841L160.55 109.829Z" fill="white"/>
<path d="M153.095 120.84C156.455 105.83 147.435 76.6992 104.141 75.2568C60.8463 73.8143 49.3008 72.6439 36.1797 61.8809C36.1797 61.8809 38.7587 103.128 97.0152 95.8985C97.0152 95.8985 81.8106 104.519 58.912 100.828C58.912 100.828 70.6959 124.166 114.858 120.225C114.858 120.225 106.848 129.24 86.6379 125.982C86.6379 125.982 97.4299 136.496 110.99 140.489C128.262 145.569 148.272 142.368 153.093 120.853L153.095 120.84Z" fill="white"/>
</g>
<defs>
<clipPath id="clip0_670_1309">
<rect width="156.567" height="124.614" fill="white" transform="translate(19.8281) rotate(9.15572)"/>
</clipPath>
</defs>
</svg>
