<svg width="179" height="149" viewBox="0 0 179 149" fill="none" xmlns="http://www.w3.org/2000/svg">
<g clip-path="url(#clip0_670_1328)" filter="url(#filter0_d_670_1328)">
<path d="M6.89801 85.3416C7.96664 69.6106 21.3996 38.2243 60.541 39.6877C99.6804 41.1633 152.625 55.9223 174.5 25.2062C174.5 25.2062 173.866 54.5006 157.43 64.3032C140.994 74.1057 104.118 66.292 83.0087 58.8858C57.511 49.9312 38.5126 52.0657 23.8884 63.541C10.9585 73.6826 6.89604 85.3539 6.89604 85.3539L6.89801 85.3416Z" fill="white"/>
<path d="M10.5138 98.1376C12.0404 82.8318 29.7559 58.01 71.3111 70.243C112.866 82.4759 124.195 84.9921 140.033 78.8965C140.033 78.8965 124.626 117.245 71.5905 92.0782C71.5905 92.0782 83.3168 105.039 106.215 108.73C106.215 108.73 87.6959 127.183 47.0083 109.567C47.0083 109.567 51.7801 120.642 71.9905 123.899C71.9905 123.899 58.442 130.489 44.3138 130.02C26.3207 129.417 8.32959 120.09 10.5118 98.1499L10.5138 98.1376Z" fill="white"/>
</g>
<defs>
<filter id="filter0_d_670_1328" x="-3.40039" y="0.375" width="182.4" height="155.938" filterUnits="userSpaceOnUse" color-interpolation-filters="sRGB">
<feFlood flood-opacity="0" result="BackgroundImageFix"/>
<feColorMatrix in="SourceAlpha" type="matrix" values="0 0 0 0 0 0 0 0 0 0 0 0 0 0 0 0 0 0 127 0" result="hardAlpha"/>
<feOffset dy="4"/>
<feGaussianBlur stdDeviation="2"/>
<feComposite in2="hardAlpha" operator="out"/>
<feColorMatrix type="matrix" values="0 0 0 0 0 0 0 0 0 0 0 0 0 0 0 0 0 0 0.25 0"/>
<feBlend mode="normal" in2="BackgroundImageFix" result="effect1_dropShadow_670_1328"/>
<feBlend mode="normal" in="SourceGraphic" in2="effect1_dropShadow_670_1328" result="shape"/>
</filter>
<clipPath id="clip0_670_1328">
<rect width="156.567" height="124.614" fill="white" transform="matrix(-0.98726 -0.159118 -0.159118 0.98726 175 25.2871)"/>
</clipPath>
</defs>
</svg>
