<svg width="224" height="224" viewBox="0 0 224 224" fill="none" xmlns="http://www.w3.org/2000/svg">
<circle cx="112.19" cy="111.893" r="87.3763" transform="rotate(9.15572 112.19 111.893)" stroke="white" stroke-width="20"/>
<g filter="url(#filter0_d_808_748)">
<mask id="path-2-outside-1_808_748" maskUnits="userSpaceOnUse" x="55.2231" y="68.0895" width="114.45" height="89.6055" fill="black">
<rect fill="white" x="55.2231" y="68.0895" width="114.45" height="89.6055"/>
<path d="M75.6477 87.1311L72.9245 91.3286L69.3419 90.7512L81.3442 72.2604L84.9268 72.8379L90.4713 94.1566L86.8886 93.5792L85.6221 88.7387L75.6477 87.1311ZM84.7838 85.3874L82.4794 76.6203L77.5371 84.2194L84.7838 85.3874ZM106.015 89.2269L110.058 97.3134L105.783 96.6245L102.102 89.1393L97.7055 88.4307L96.6229 95.1481L93.2438 94.6035L96.4524 74.6955L103.862 75.8897C106.875 76.3752 108.949 77.2387 110.086 78.48C111.254 79.6986 111.654 81.4478 111.287 83.7276C110.757 87.0117 109 88.8448 106.015 89.2269ZM102.344 86.0873C104.216 86.3891 105.552 86.3119 106.349 85.8557C107.147 85.3995 107.655 84.4928 107.873 83.1357C108.083 81.833 107.873 80.894 107.241 80.3189C106.615 79.7166 105.392 79.2689 103.573 78.9758L99.3394 78.2934L98.1911 85.418L102.344 86.0873ZM129.355 90.4824L132.693 91.0205L131.597 97.8193C129.388 99.6074 126.532 100.219 123.031 99.655C120.073 99.1782 117.76 97.803 116.094 95.5295C114.428 93.256 113.831 90.6536 114.303 87.7224C114.775 84.7912 116.176 82.4967 118.503 80.8391C120.863 79.1588 123.481 78.5504 126.358 79.0141C129.235 79.4778 131.49 80.6905 133.123 82.6524L130.918 84.9285C129.722 83.5383 128.12 82.6814 126.111 82.3577C124.076 82.0296 122.259 82.419 120.66 83.5258C119.093 84.6099 118.141 86.1968 117.804 88.2867C117.467 90.3766 117.845 92.1779 118.938 93.6906C120.063 95.1806 121.602 96.0831 123.556 96.398C125.456 96.7042 127.096 96.5508 128.475 95.9378L129.355 90.4824ZM139.125 97.3619L136.402 101.559L132.82 100.982L144.822 82.4912L148.405 83.0687L153.949 104.387L150.366 103.81L149.1 98.9695L139.125 97.3619ZM148.262 95.6182L145.957 86.8511L141.015 94.4502L148.262 95.6182ZM68.772 124.012L66.0556 140.867L62.6765 140.322L65.393 123.467L59.3676 122.496L59.8598 119.443L75.2895 121.93L74.7974 124.983L68.772 124.012ZM87.7584 126.571C85.7771 126.252 83.9942 126.688 82.4097 127.881C80.8252 129.074 79.8711 130.674 79.5474 132.682C79.2237 134.691 79.6266 136.51 80.7562 138.14C81.8901 139.743 83.4478 140.704 85.4291 141.024C87.4104 141.343 89.1911 140.92 90.7713 139.754C92.3558 138.562 93.3099 136.961 93.6336 134.953C93.9573 132.944 93.5544 131.125 92.4248 129.495C91.2952 127.865 89.7398 126.89 87.7584 126.571ZM84.9304 144.118C81.9449 143.637 79.6054 142.257 77.9119 139.979C76.2228 137.674 75.6144 135.056 76.0869 132.125C76.5593 129.194 77.9572 126.913 80.2806 125.282C82.6084 123.625 85.265 123.036 88.2506 123.518C91.2361 123.999 93.5734 125.392 95.2625 127.697C96.956 129.975 97.5665 132.579 97.0941 135.511C96.6217 138.442 95.2102 140.72 92.8597 142.347C90.5047 144 87.8617 144.59 84.9304 144.118ZM102.92 126.383L106.299 126.928L104.737 136.617L115.418 128.397L119.652 129.08L110.269 136.506L116.566 149.008L112.576 148.365L107.385 138.589L103.989 141.258L103.09 146.836L99.7111 146.291L102.92 126.383ZM136.978 131.872L136.473 135.007L125.847 133.295L124.994 138.587L134.521 140.122L134.042 143.094L124.515 141.559L123.656 146.892L134.607 148.657L134.095 151.833L119.765 149.523L122.973 129.615L136.978 131.872ZM156.541 135.025L159.88 135.563L156.671 155.471L153.048 154.887L144.113 138.536L141.771 153.07L138.392 152.525L141.6 132.617L144.979 133.162L154.146 149.885L156.541 135.025Z"/>
</mask>
<path d="M75.6477 87.1311L72.9245 91.3286L69.3419 90.7512L81.3442 72.2604L84.9268 72.8379L90.4713 94.1566L86.8886 93.5792L85.6221 88.7387L75.6477 87.1311ZM84.7838 85.3874L82.4794 76.6203L77.5371 84.2194L84.7838 85.3874ZM106.015 89.2269L110.058 97.3134L105.783 96.6245L102.102 89.1393L97.7055 88.4307L96.6229 95.1481L93.2438 94.6035L96.4524 74.6955L103.862 75.8897C106.875 76.3752 108.949 77.2387 110.086 78.48C111.254 79.6986 111.654 81.4478 111.287 83.7276C110.757 87.0117 109 88.8448 106.015 89.2269ZM102.344 86.0873C104.216 86.3891 105.552 86.3119 106.349 85.8557C107.147 85.3995 107.655 84.4928 107.873 83.1357C108.083 81.833 107.873 80.894 107.241 80.3189C106.615 79.7166 105.392 79.2689 103.573 78.9758L99.3394 78.2934L98.1911 85.418L102.344 86.0873ZM129.355 90.4824L132.693 91.0205L131.597 97.8193C129.388 99.6074 126.532 100.219 123.031 99.655C120.073 99.1782 117.76 97.803 116.094 95.5295C114.428 93.256 113.831 90.6536 114.303 87.7224C114.775 84.7912 116.176 82.4967 118.503 80.8391C120.863 79.1588 123.481 78.5504 126.358 79.0141C129.235 79.4778 131.49 80.6905 133.123 82.6524L130.918 84.9285C129.722 83.5383 128.12 82.6814 126.111 82.3577C124.076 82.0296 122.259 82.419 120.66 83.5258C119.093 84.6099 118.141 86.1968 117.804 88.2867C117.467 90.3766 117.845 92.1779 118.938 93.6906C120.063 95.1806 121.602 96.0831 123.556 96.398C125.456 96.7042 127.096 96.5508 128.475 95.9378L129.355 90.4824ZM139.125 97.3619L136.402 101.559L132.82 100.982L144.822 82.4912L148.405 83.0687L153.949 104.387L150.366 103.81L149.1 98.9695L139.125 97.3619ZM148.262 95.6182L145.957 86.8511L141.015 94.4502L148.262 95.6182ZM68.772 124.012L66.0556 140.867L62.6765 140.322L65.393 123.467L59.3676 122.496L59.8598 119.443L75.2895 121.93L74.7974 124.983L68.772 124.012ZM87.7584 126.571C85.7771 126.252 83.9942 126.688 82.4097 127.881C80.8252 129.074 79.8711 130.674 79.5474 132.682C79.2237 134.691 79.6266 136.51 80.7562 138.14C81.8901 139.743 83.4478 140.704 85.4291 141.024C87.4104 141.343 89.1911 140.92 90.7713 139.754C92.3558 138.562 93.3099 136.961 93.6336 134.953C93.9573 132.944 93.5544 131.125 92.4248 129.495C91.2952 127.865 89.7398 126.89 87.7584 126.571ZM84.9304 144.118C81.9449 143.637 79.6054 142.257 77.9119 139.979C76.2228 137.674 75.6144 135.056 76.0869 132.125C76.5593 129.194 77.9572 126.913 80.2806 125.282C82.6084 123.625 85.265 123.036 88.2506 123.518C91.2361 123.999 93.5734 125.392 95.2625 127.697C96.956 129.975 97.5665 132.579 97.0941 135.511C96.6217 138.442 95.2102 140.72 92.8597 142.347C90.5047 144 87.8617 144.59 84.9304 144.118ZM102.92 126.383L106.299 126.928L104.737 136.617L115.418 128.397L119.652 129.08L110.269 136.506L116.566 149.008L112.576 148.365L107.385 138.589L103.989 141.258L103.09 146.836L99.7111 146.291L102.92 126.383ZM136.978 131.872L136.473 135.007L125.847 133.295L124.994 138.587L134.521 140.122L134.042 143.094L124.515 141.559L123.656 146.892L134.607 148.657L134.095 151.833L119.765 149.523L122.973 129.615L136.978 131.872ZM156.541 135.025L159.88 135.563L156.671 155.471L153.048 154.887L144.113 138.536L141.771 153.07L138.392 152.525L141.6 132.617L144.979 133.162L154.146 149.885L156.541 135.025Z" fill="white"/>
<path d="M75.6477 87.1311L75.8068 86.1439L75.1635 86.0402L74.8088 86.5869L75.6477 87.1311ZM72.9245 91.3286L72.7654 92.3159L73.4087 92.4196L73.7634 91.8729L72.9245 91.3286ZM69.3419 90.7512L68.5031 90.2067L67.6674 91.4942L69.1827 91.7384L69.3419 90.7512ZM81.3442 72.2604L81.5033 71.2732L80.8601 71.1695L80.5054 71.716L81.3442 72.2604ZM84.9268 72.8379L85.8946 72.5862L85.7304 71.9545L85.086 71.8506L84.9268 72.8379ZM90.4713 94.1566L90.3121 95.1439L91.8247 95.3877L91.4391 93.9049L90.4713 94.1566ZM86.8886 93.5792L85.9212 93.8324L86.0861 94.4628L86.7295 94.5665L86.8886 93.5792ZM85.6221 88.7387L86.5895 88.4856L86.4246 87.8551L85.7812 87.7514L85.6221 88.7387ZM84.7838 85.3874L84.6247 86.3746L86.1416 86.6191L85.751 85.1331L84.7838 85.3874ZM82.4794 76.6203L83.4465 76.3661L82.8724 74.1819L81.6411 76.0751L82.4794 76.6203ZM77.5371 84.2194L76.6988 83.6742L75.8612 84.9622L77.378 85.2067L77.5371 84.2194ZM74.8088 86.5869L72.0856 90.7843L73.7634 91.8729L76.4866 87.6754L74.8088 86.5869ZM73.0836 90.3413L69.501 89.7639L69.1827 91.7384L72.7654 92.3159L73.0836 90.3413ZM70.1806 91.2956L82.183 72.8049L80.5054 71.716L68.5031 90.2067L70.1806 91.2956ZM81.1851 73.2477L84.7677 73.8251L85.086 71.8506L81.5033 71.2732L81.1851 73.2477ZM83.959 73.0896L89.5034 94.4083L91.4391 93.9049L85.8946 72.5862L83.959 73.0896ZM90.6304 93.1694L87.0477 92.592L86.7295 94.5665L90.3121 95.1439L90.6304 93.1694ZM87.8561 93.3261L86.5895 88.4856L84.6546 88.9918L85.9212 93.8324L87.8561 93.3261ZM85.7812 87.7514L75.8068 86.1439L75.4886 88.1184L85.463 89.726L85.7812 87.7514ZM85.751 85.1331L83.4465 76.3661L81.5122 76.8745L83.8167 85.6416L85.751 85.1331ZM81.6411 76.0751L76.6988 83.6742L78.3754 84.7646L83.3177 77.1655L81.6411 76.0751ZM77.378 85.2067L84.6247 86.3746L84.943 84.4001L77.6963 83.2321L77.378 85.2067ZM106.015 89.2269L105.888 88.2349L104.49 88.4138L105.12 89.6741L106.015 89.2269ZM110.058 97.3134L109.899 98.3007L111.825 98.6111L110.952 96.8662L110.058 97.3134ZM105.783 96.6245L104.886 97.0657L105.114 97.5295L105.624 97.6117L105.783 96.6245ZM102.102 89.1393L103 88.6981L102.772 88.2343L102.262 88.1521L102.102 89.1393ZM97.7055 88.4307L97.8646 87.4434L96.8774 87.2843L96.7183 88.2715L97.7055 88.4307ZM96.6229 95.1481L96.4637 96.1354L97.451 96.2945L97.6101 95.3072L96.6229 95.1481ZM93.2438 94.6035L92.2565 94.4444L92.0974 95.4316L93.0847 95.5908L93.2438 94.6035ZM96.4524 74.6955L96.6115 73.7082L95.6243 73.5491L95.4651 74.5363L96.4524 74.6955ZM110.086 78.48L109.348 79.1553L109.356 79.1637L109.364 79.172L110.086 78.48ZM106.349 85.8557L105.853 84.9877L105.853 84.9877L106.349 85.8557ZM107.241 80.3189L106.549 81.04L106.558 81.0492L106.568 81.0581L107.241 80.3189ZM99.3393 78.2934L99.4985 77.3062L98.5112 77.1471L98.3521 78.1343L99.3393 78.2934ZM98.1911 85.418L97.2038 85.2589L97.0447 86.2461L98.032 86.4053L98.1911 85.418ZM105.12 89.6741L109.163 97.7606L110.952 96.8662L106.909 88.7797L105.12 89.6741ZM110.217 96.3262L105.942 95.6372L105.624 97.6117L109.899 98.3007L110.217 96.3262ZM106.68 96.1832L103 88.6981L101.205 89.5806L104.886 97.0657L106.68 96.1832ZM102.262 88.1521L97.8646 87.4434L97.5464 89.4179L101.943 90.1266L102.262 88.1521ZM96.7183 88.2715L95.6356 94.989L97.6101 95.3072L98.6928 88.5898L96.7183 88.2715ZM96.782 94.1608L93.4029 93.6162L93.0847 95.5908L96.4637 96.1354L96.782 94.1608ZM94.231 94.7626L97.4397 74.8546L95.4651 74.5363L92.2565 94.4444L94.231 94.7626ZM96.2933 75.6827L103.703 76.8769L104.021 74.9024L96.6115 73.7082L96.2933 75.6827ZM103.703 76.8769C106.653 77.3523 108.445 78.1693 109.348 79.1553L110.823 77.8047C109.453 76.308 107.097 75.3981 104.021 74.9024L103.703 76.8769ZM109.364 79.172C110.242 80.0876 110.637 81.476 110.299 83.5685L112.274 83.8868C112.672 81.4196 112.266 79.3095 110.808 77.788L109.364 79.172ZM110.299 83.5685C110.057 85.0716 109.55 86.1428 108.85 86.8735C108.157 87.5957 107.197 88.0673 105.888 88.2349L106.142 90.2188C107.817 90.0043 109.229 89.3684 110.294 88.2575C111.35 87.1551 111.987 85.6678 112.274 83.8868L110.299 83.5685ZM102.185 87.0745C104.083 87.3806 105.726 87.3642 106.846 86.7237L105.853 84.9877C105.377 85.2596 104.349 85.3976 102.503 85.1L102.185 87.0745ZM106.846 86.7237C108.015 86.055 108.618 84.7987 108.861 83.2949L106.886 82.9766C106.691 84.187 106.279 84.7439 105.853 84.9877L106.846 86.7237ZM108.861 83.2949C109.094 81.8495 108.911 80.4871 107.915 79.5797L106.568 81.0581C106.835 81.301 107.073 81.8164 106.886 82.9766L108.861 83.2949ZM107.934 79.5977C107.069 78.7661 105.571 78.2849 103.732 77.9886L103.414 79.9631C105.213 80.253 106.161 80.6672 106.549 81.04L107.934 79.5977ZM103.732 77.9886L99.4985 77.3062L99.1802 79.2807L103.414 79.9631L103.732 77.9886ZM98.3521 78.1343L97.2038 85.2589L99.1783 85.5771L100.327 78.4526L98.3521 78.1343ZM98.032 86.4053L102.185 87.0745L102.503 85.1L98.3502 84.4307L98.032 86.4053ZM129.355 90.4824L129.514 89.4952L128.526 89.3361L128.367 90.3233L129.355 90.4824ZM132.693 91.0205L133.68 91.1796L133.839 90.1923L132.852 90.0332L132.693 91.0205ZM131.597 97.8193L132.226 98.5967L132.524 98.3561L132.584 97.9785L131.597 97.8193ZM116.094 95.5295L116.9 94.9383L116.094 95.5295ZM118.503 80.8391L119.083 81.6537L119.083 81.6537L118.503 80.8391ZM133.123 82.6524L133.841 83.3481L134.466 82.7029L133.891 82.0126L133.123 82.6524ZM130.918 84.9285L130.16 85.5807L130.874 86.4109L131.636 85.6242L130.918 84.9285ZM120.66 83.5258L121.229 84.3482L121.229 84.348L120.66 83.5258ZM118.938 93.6906L118.128 94.2762L118.134 94.2846L118.14 94.293L118.938 93.6906ZM128.475 95.9378L128.881 96.8517L129.376 96.6317L129.463 96.0969L128.475 95.9378ZM129.195 91.4697L132.534 92.0077L132.852 90.0332L129.514 89.4952L129.195 91.4697ZM131.706 90.8614L130.61 97.6602L132.584 97.9785L133.68 91.1796L131.706 90.8614ZM130.968 97.042C129.032 98.6086 126.485 99.1988 123.19 98.6677L122.872 100.642C126.579 101.24 129.743 100.606 132.226 98.5967L130.968 97.042ZM123.19 98.6677C120.473 98.2298 118.401 96.9855 116.9 94.9383L115.287 96.1207C117.12 98.6205 119.672 100.127 122.872 100.642L123.19 98.6677ZM116.9 94.9383C115.401 92.8932 114.858 90.5643 115.29 87.8815L113.316 87.5633C112.803 90.743 113.454 93.6188 115.287 96.1207L116.9 94.9383ZM115.29 87.8815C115.722 85.2029 116.983 83.1495 119.083 81.6537L117.923 80.0246C115.368 81.844 113.829 84.3794 113.316 87.5633L115.29 87.8815ZM119.083 81.6537C121.227 80.1268 123.579 79.5792 126.199 80.0014L126.517 78.0269C123.382 77.5216 120.498 78.1907 117.923 80.0246L119.083 81.6537ZM126.199 80.0014C128.873 80.4324 130.897 81.5421 132.354 83.2921L133.891 82.0126C132.082 79.8389 129.596 78.5232 126.517 78.0269L126.199 80.0014ZM132.404 81.9566L130.2 84.2327L131.636 85.6242L133.841 83.3481L132.404 81.9566ZM131.676 84.2763C130.309 82.6874 128.484 81.7273 126.27 81.3704L125.952 83.345C127.755 83.6355 129.135 84.3892 130.16 85.5807L131.676 84.2763ZM126.27 81.3704C123.997 81.004 121.915 81.4403 120.091 82.7037L121.229 84.348C122.602 83.3977 124.155 83.0552 125.952 83.345L126.27 81.3704ZM120.091 82.7034C118.274 83.9604 117.192 85.8018 116.817 88.1276L118.792 88.4458C119.09 86.5919 119.912 85.2594 121.229 84.3482L120.091 82.7034ZM116.817 88.1276C116.444 90.441 116.858 92.5189 118.128 94.2762L119.749 93.105C118.833 91.8368 118.491 90.3121 118.792 88.4458L116.817 88.1276ZM118.14 94.293C119.43 96.0022 121.205 97.032 123.397 97.3853L123.715 95.4108C121.999 95.1341 120.695 94.359 119.736 93.0883L118.14 94.293ZM123.397 97.3853C125.436 97.7139 127.282 97.5625 128.881 96.8517L128.069 95.024C126.91 95.5392 125.476 95.6945 123.715 95.4108L123.397 97.3853ZM129.463 96.0969L130.342 90.6416L128.367 90.3233L127.488 95.7787L129.463 96.0969ZM139.125 97.3619L139.285 96.3747L138.641 96.271L138.286 96.8177L139.125 97.3619ZM136.402 101.559L136.243 102.547L136.886 102.65L137.241 102.104L136.402 101.559ZM132.82 100.982L131.981 100.438L131.145 101.725L132.66 101.969L132.82 100.982ZM144.822 82.4912L144.981 81.504L144.338 81.4003L143.983 81.9468L144.822 82.4912ZM148.405 83.0687L149.372 82.817L149.208 82.1853L148.564 82.0814L148.405 83.0687ZM153.949 104.387L153.79 105.375L155.302 105.618L154.917 104.136L153.949 104.387ZM150.366 103.81L149.399 104.063L149.564 104.694L150.207 104.797L150.366 103.81ZM149.1 98.9695L150.067 98.7164L149.902 98.0859L149.259 97.9822L149.1 98.9695ZM148.262 95.6182L148.102 96.6054L149.619 96.8499L149.229 95.3639L148.262 95.6182ZM145.957 86.8511L146.924 86.5969L146.35 84.4127L145.119 86.3059L145.957 86.8511ZM141.015 94.4502L140.177 93.905L139.339 95.193L140.856 95.4375L141.015 94.4502ZM138.286 96.8177L135.563 101.015L137.241 102.104L139.964 97.9062L138.286 96.8177ZM136.561 100.572L132.979 99.9947L132.66 101.969L136.243 102.547L136.561 100.572ZM133.658 101.526L145.661 83.0357L143.983 81.9468L131.981 100.438L133.658 101.526ZM144.663 83.4785L148.245 84.0559L148.564 82.0814L144.981 81.504L144.663 83.4785ZM147.437 83.3204L152.981 104.639L154.917 104.136L149.372 82.817L147.437 83.3204ZM154.108 103.4L150.525 102.823L150.207 104.797L153.79 105.375L154.108 103.4ZM151.334 103.557L150.067 98.7164L148.132 99.2226L149.399 104.063L151.334 103.557ZM149.259 97.9822L139.285 96.3747L138.966 98.3492L148.941 99.9568L149.259 97.9822ZM149.229 95.3639L146.924 86.5969L144.99 87.1053L147.294 95.8724L149.229 95.3639ZM145.119 86.3059L140.177 93.905L141.853 94.9954L146.795 87.3963L145.119 86.3059ZM140.856 95.4375L148.102 96.6054L148.421 94.6309L141.174 93.4629L140.856 95.4375ZM68.772 124.012L68.9312 123.025L67.9439 122.866L67.7848 123.853L68.772 124.012ZM66.0556 140.867L65.8964 141.854L66.8837 142.013L67.0428 141.026L66.0556 140.867ZM62.6765 140.322L61.6892 140.163L61.5301 141.15L62.5174 141.309L62.6765 140.322ZM65.393 123.467L66.3802 123.627L66.5394 122.639L65.5521 122.48L65.393 123.467ZM59.3676 122.496L58.3804 122.337L58.2213 123.325L59.2085 123.484L59.3676 122.496ZM59.8598 119.443L60.0189 118.456L59.0316 118.297L58.8725 119.284L59.8598 119.443ZM75.2895 121.93L76.2768 122.089L76.4359 121.102L75.4486 120.943L75.2895 121.93ZM74.7974 124.983L74.6383 125.97L75.6255 126.13L75.7846 125.142L74.7974 124.983ZM67.7848 123.853L65.0683 140.708L67.0428 141.026L69.7593 124.171L67.7848 123.853ZM66.2147 139.88L62.8356 139.335L62.5174 141.309L65.8964 141.854L66.2147 139.88ZM63.6637 140.481L66.3802 123.627L64.4057 123.308L61.6892 140.163L63.6637 140.481ZM65.5521 122.48L59.5268 121.509L59.2085 123.484L65.2339 124.455L65.5521 122.48ZM60.3549 122.656L60.847 119.602L58.8725 119.284L58.3804 122.337L60.3549 122.656ZM59.7006 120.43L75.1304 122.917L75.4486 120.943L60.0189 118.456L59.7006 120.43ZM74.3022 121.771L73.8101 124.824L75.7846 125.142L76.2768 122.089L74.3022 121.771ZM74.9565 123.996L68.9312 123.025L68.6129 124.999L74.6383 125.97L74.9565 123.996ZM82.4097 127.881L81.8083 127.082L82.4097 127.881ZM80.7562 138.14L79.9342 138.71L79.9398 138.718L80.7562 138.14ZM90.7713 139.754L91.3649 140.559L91.3726 140.553L90.7713 139.754ZM92.4248 129.495L93.2467 128.925L92.4248 129.495ZM77.9119 139.979L77.1053 140.57L77.1094 140.576L77.9119 139.979ZM80.2806 125.282L80.8551 126.101L80.8607 126.097L80.2806 125.282ZM95.2625 127.697L94.4559 128.288L94.46 128.293L95.2625 127.697ZM92.8597 142.347L92.2907 141.524L92.2851 141.528L92.8597 142.347ZM87.9176 125.584C85.6713 125.222 83.6131 125.724 81.8083 127.082L83.0111 128.68C84.3753 127.653 85.883 127.282 87.5993 127.558L87.9176 125.584ZM81.8083 127.082C80.0115 128.434 78.9237 130.267 78.5601 132.523L80.5346 132.842C80.8184 131.081 81.6389 129.713 83.0111 128.68L81.8083 127.082ZM78.5601 132.523C78.1965 134.78 78.6533 136.861 79.9342 138.71L81.5781 137.571C80.5999 136.159 80.2509 134.602 80.5346 132.842L78.5601 132.523ZM79.9398 138.718C81.2327 140.545 83.03 141.65 85.27 142.011L85.5882 140.036C83.8655 139.759 82.5476 138.941 81.5726 137.563L79.9398 138.718ZM85.27 142.011C87.5099 142.372 89.5632 141.888 91.3649 140.559L90.1777 138.95C88.8191 139.952 87.3109 140.314 85.5882 140.036L85.27 142.011ZM91.3726 140.553C93.1695 139.201 94.2572 137.368 94.6209 135.112L92.6464 134.794C92.3626 136.554 91.5421 137.923 90.1699 138.955L91.3726 140.553ZM94.6209 135.112C94.9845 132.856 94.5277 130.774 93.2467 128.925L91.6029 130.065C92.5811 131.476 92.9301 133.033 92.6464 134.794L94.6209 135.112ZM93.2467 128.925C91.9601 127.069 90.1638 125.946 87.9176 125.584L87.5993 127.558C89.3157 127.835 90.6303 128.661 91.6029 130.065L93.2467 128.925ZM85.0895 143.13C82.3426 142.688 80.2416 141.437 78.7144 139.382L77.1094 140.576C78.9691 143.077 81.5472 144.585 84.7713 145.105L85.0895 143.13ZM78.7185 139.388C77.1943 137.308 76.6424 134.962 77.0741 132.284L75.0996 131.966C74.5864 135.15 75.2512 138.04 77.1053 140.57L78.7185 139.388ZM77.0741 132.284C77.5058 129.605 78.7637 127.568 80.855 126.101L79.7062 124.464C77.1507 126.257 75.6128 128.782 75.0996 131.966L77.0741 132.284ZM80.8607 126.097C82.9609 124.601 85.3487 124.063 88.0914 124.505L88.4097 122.53C85.1814 122.01 82.2559 122.648 79.7006 124.468L80.8607 126.097ZM88.0914 124.505C90.8342 124.947 92.9319 126.208 94.4559 128.288L96.0691 127.106C94.2149 124.575 91.638 123.051 88.4097 122.53L88.0914 124.505ZM94.46 128.293C95.9843 130.344 96.5385 132.673 96.1069 135.351L98.0814 135.67C98.5946 132.486 97.9277 129.606 96.065 127.1L94.46 128.293ZM96.1069 135.351C95.6759 138.026 94.4078 140.06 92.2907 141.524L93.4286 143.169C96.0126 141.381 97.5675 138.858 98.0814 135.67L96.1069 135.351ZM92.2851 141.528C90.1508 143.026 87.7727 143.563 85.0895 143.13L84.7713 145.105C87.9506 145.617 90.8586 144.973 93.4342 143.165L92.2851 141.528ZM102.92 126.383L103.079 125.396L102.092 125.237L101.932 126.224L102.92 126.383ZM106.299 126.928L107.286 127.087L107.445 126.1L106.458 125.94L106.299 126.928ZM104.737 136.617L103.75 136.458L103.349 138.947L105.347 137.41L104.737 136.617ZM115.418 128.397L115.577 127.41L115.151 127.341L114.808 127.605L115.418 128.397ZM119.652 129.08L120.273 129.864L122.054 128.454L119.811 128.093L119.652 129.08ZM110.269 136.506L109.648 135.722L109.009 136.228L109.375 136.956L110.269 136.506ZM116.566 149.008L116.407 149.995L118.34 150.306L117.459 148.558L116.566 149.008ZM112.576 148.365L111.693 148.834L111.926 149.273L112.417 149.352L112.576 148.365ZM107.385 138.589L108.268 138.12L107.707 137.064L106.767 137.803L107.385 138.589ZM103.989 141.258L103.371 140.472L103.064 140.713L103.002 141.099L103.989 141.258ZM103.09 146.836L102.931 147.823L103.918 147.982L104.077 146.995L103.09 146.836ZM99.7111 146.291L98.7239 146.132L98.5647 147.119L99.552 147.278L99.7111 146.291ZM102.761 127.37L106.14 127.915L106.458 125.94L103.079 125.396L102.761 127.37ZM105.312 126.769L103.75 136.458L105.724 136.776L107.286 127.087L105.312 126.769ZM105.347 137.41L116.028 129.19L114.808 127.605L104.127 135.825L105.347 137.41ZM115.259 129.385L119.493 130.067L119.811 128.093L115.577 127.41L115.259 129.385ZM119.032 128.296L109.648 135.722L110.889 137.29L120.273 129.864L119.032 128.296ZM109.375 136.956L115.673 149.457L117.459 148.558L111.162 136.056L109.375 136.956ZM116.725 148.02L112.735 147.377L112.417 149.352L116.407 149.995L116.725 148.02ZM113.459 147.896L108.268 138.12L106.502 139.058L111.693 148.834L113.459 147.896ZM106.767 137.803L103.371 140.472L104.607 142.044L108.003 139.375L106.767 137.803ZM103.002 141.099L102.103 146.677L104.077 146.995L104.976 141.417L103.002 141.099ZM103.249 145.848L99.8702 145.304L99.552 147.278L102.931 147.823L103.249 145.848ZM100.698 146.45L103.907 126.542L101.932 126.224L98.7239 146.132L100.698 146.45ZM136.978 131.872L137.966 132.031L138.125 131.044L137.137 130.885L136.978 131.872ZM136.473 135.007L136.314 135.994L137.301 136.153L137.46 135.166L136.473 135.007ZM125.847 133.295L126.006 132.307L125.019 132.148L124.86 133.135L125.847 133.295ZM124.994 138.587L124.007 138.428L123.848 139.415L124.835 139.574L124.994 138.587ZM134.521 140.122L135.508 140.282L135.667 139.294L134.68 139.135L134.521 140.122ZM134.042 143.094L133.883 144.082L134.87 144.241L135.029 143.254L134.042 143.094ZM124.515 141.559L124.674 140.572L123.687 140.413L123.528 141.4L124.515 141.559ZM123.656 146.892L122.668 146.733L122.509 147.72L123.497 147.88L123.656 146.892ZM134.607 148.657L135.594 148.816L135.754 147.829L134.766 147.67L134.607 148.657ZM134.095 151.833L133.936 152.82L134.923 152.979L135.083 151.992L134.095 151.833ZM119.765 149.523L118.778 149.364L118.618 150.351L119.606 150.51L119.765 149.523ZM122.973 129.615L123.133 128.628L122.145 128.469L121.986 129.456L122.973 129.615ZM135.991 131.713L135.486 134.848L137.46 135.166L137.966 132.031L135.991 131.713ZM136.632 134.02L126.006 132.307L125.688 134.282L136.314 135.994L136.632 134.02ZM124.86 133.135L124.007 138.428L125.982 138.746L126.835 133.454L124.86 133.135ZM124.835 139.574L134.362 141.11L134.68 139.135L125.153 137.6L124.835 139.574ZM133.534 139.963L133.055 142.935L135.029 143.254L135.508 140.282L133.534 139.963ZM134.201 142.107L124.674 140.572L124.356 142.546L133.883 144.082L134.201 142.107ZM123.528 141.4L122.668 146.733L124.643 147.051L125.503 141.718L123.528 141.4ZM123.497 147.88L134.448 149.645L134.766 147.67L123.815 145.905L123.497 147.88ZM133.62 148.498L133.108 151.674L135.083 151.992L135.594 148.816L133.62 148.498ZM134.254 150.846L119.924 148.536L119.606 150.51L133.936 152.82L134.254 150.846ZM120.752 149.682L123.961 129.774L121.986 129.456L118.778 149.364L120.752 149.682ZM122.814 130.602L136.819 132.86L137.137 130.885L123.133 128.628L122.814 130.602ZM156.541 135.025L156.701 134.038L155.713 133.879L155.554 134.866L156.541 135.025ZM159.88 135.563L160.867 135.723L161.026 134.735L160.039 134.576L159.88 135.563ZM156.671 155.471L156.512 156.459L157.499 156.618L157.658 155.631L156.671 155.471ZM153.048 154.887L152.17 155.367L152.405 155.797L152.889 155.875L153.048 154.887ZM144.113 138.536L144.991 138.056L143.591 135.494L143.126 138.377L144.113 138.536ZM141.771 153.07L141.612 154.057L142.599 154.216L142.758 153.229L141.771 153.07ZM138.392 152.525L137.404 152.366L137.245 153.353L138.233 153.513L138.392 152.525ZM141.6 132.617L141.759 131.63L140.772 131.471L140.613 132.458L141.6 132.617ZM144.979 133.162L145.856 132.681L145.621 132.252L145.138 132.175L144.979 133.162ZM154.146 149.885L153.27 150.366L154.67 152.921L155.134 150.044L154.146 149.885ZM156.382 136.013L159.721 136.551L160.039 134.576L156.701 134.038L156.382 136.013ZM158.893 135.404L155.684 155.312L157.658 155.631L160.867 135.723L158.893 135.404ZM156.83 154.484L153.207 153.9L152.889 155.875L156.512 156.459L156.83 154.484ZM153.925 154.408L144.991 138.056L143.236 139.015L152.17 155.367L153.925 154.408ZM143.126 138.377L140.783 152.911L142.758 153.229L145.1 138.695L143.126 138.377ZM141.93 152.083L138.551 151.538L138.233 153.513L141.612 154.057L141.93 152.083ZM139.379 152.684L142.588 132.776L140.613 132.458L137.404 152.366L139.379 152.684ZM141.441 133.605L144.82 134.149L145.138 132.175L141.759 131.63L141.441 133.605ZM144.102 133.643L153.27 150.366L155.023 149.404L145.856 132.681L144.102 133.643ZM155.134 150.044L157.529 135.184L155.554 134.866L153.159 149.726L155.134 150.044Z" fill="black" mask="url(#path-2-outside-1_808_748)"/>
</g>
<defs>
<filter id="filter0_d_808_748" x="52.6191" y="69.5918" width="119.295" height="94.083" filterUnits="userSpaceOnUse" color-interpolation-filters="sRGB">
<feFlood flood-opacity="0" result="BackgroundImageFix"/>
<feColorMatrix in="SourceAlpha" type="matrix" values="0 0 0 0 0 0 0 0 0 0 0 0 0 0 0 0 0 0 127 0" result="hardAlpha"/>
<feOffset dy="4"/>
<feGaussianBlur stdDeviation="2"/>
<feComposite in2="hardAlpha" operator="out"/>
<feColorMatrix type="matrix" values="0 0 0 0 0 0 0 0 0 0 0 0 0 0 0 0 0 0 0.25 0"/>
<feBlend mode="normal" in2="BackgroundImageFix" result="effect1_dropShadow_808_748"/>
<feBlend mode="normal" in="SourceGraphic" in2="effect1_dropShadow_808_748" result="shape"/>
</filter>
</defs>
</svg>
