<svg width="644" height="873" viewBox="0 0 644 873" fill="none" xmlns="http://www.w3.org/2000/svg">
<path d="M179.779 718.956V629.584C218.453 630.279 250.781 632.115 288.048 645.616C281.385 650.67 274.909 656.186 269.427 661.577C263.8 667.111 259.197 672.537 256.521 677.213C244.286 674.045 231.415 671.901 217.987 670.695L217.442 670.646V671.193V757.728L199.324 758.49L199.324 758.49C170.858 759.706 150.067 760.313 136.865 760.313C128.321 760.313 121.16 759.706 115.384 758.479C109.604 757.25 105.245 755.407 102.272 752.959L101.911 752.661L101.698 752.888C34.1139 685.605 -0.40543 604.238 3.66688 526.542C7.74574 448.722 50.5437 374.506 137.776 321.739L147.693 315.742L157.295 322.502L157.295 322.502C173.312 333.755 190.399 350.905 203.743 370.57L203.744 370.571C215.705 388.157 224.886 408.063 228.134 428.119L228.134 428.12L228.372 429.556L228.372 431.596C228.372 431.596 228.372 431.597 228.372 431.598C228.209 453.9 221.389 475.955 208.708 496.292L209.133 496.556L208.708 496.292C196.677 515.592 179.273 533.519 157.302 548.508C157.301 548.508 157.301 548.508 157.301 548.508L147.463 555.181L137.464 548.676L137.463 548.676C113.768 533.297 93.15 516.632 75.6867 498.766C80.0002 485.236 85.7895 472.532 92.9793 460.49C107.842 477.18 125.586 492.924 146.367 507.388L146.672 507.6L146.964 507.369C159.809 497.177 170.045 485.846 177.419 474.069L177.421 474.067C185.695 460.722 190.379 446.918 190.872 433.354L190.874 433.299L190.864 433.244C188.4 420.042 181.838 406.43 173.413 393.977L173.412 393.976C165.394 382.216 155.821 371.676 146.327 363.485L146.04 363.237L145.724 363.446C73.918 411.021 41.2613 470.344 40.4226 532.751C39.5843 595.133 70.5393 660.49 125.731 720.164L125.88 720.324H126.098C145.842 720.324 161.998 720.064 179.297 719.456L179.779 719.439V718.956Z" stroke="white"/>
<path d="M420.95 78.2697L424.083 68.6798L418.427 60.1988C407.037 43.2213 393.705 29.1191 377.786 18.7423C361.881 8.37439 343.459 1.97623 322.105 0.501187C300.751 1.97621 282.329 8.37429 266.342 18.8287L266.34 18.8302C250.423 29.1189 237.092 43.3063 225.701 60.2845L420.95 78.2697ZM420.95 78.2697L420.896 78.261C402.816 133.191 373.896 173.607 336.231 200.51C298.564 227.415 252.114 240.832 198.931 241.699L198.931 241.699L179.782 242.038V154.316V153.831L179.297 153.817C162.001 153.295 143.48 152.948 123.817 152.948H123.597L123.448 153.111C69.4894 212.12 24.4211 277.696 42.4427 363.369C34.9855 371.589 28.0928 380.581 21.8446 390.43L21.8443 390.43C21.0454 391.693 20.2383 392.958 19.4276 394.228C17.6954 396.942 15.947 399.681 14.2282 402.484C-25.0863 292.097 26.0015 195.687 101.782 120.297L101.992 120.521L102.353 120.229C105.328 117.822 109.689 115.979 115.47 114.739C121.246 113.5 128.406 112.872 136.949 112.872C150.152 112.872 170.942 113.48 199.408 114.695L199.408 114.695L217.526 115.457V200.342V200.888L218.07 200.84C256.311 197.447 289.643 186.635 317.231 166.4C344.821 146.163 366.632 116.529 381.872 75.5522L381.97 75.29L381.797 75.0698C374.836 66.1759 367.048 58.7545 358.349 53.0753L358.348 53.0749C348.001 46.3426 336.014 42.0616 322.07 40.7516L322.023 40.7472L321.976 40.7517C308.113 42.0616 296.127 46.3427 285.78 53.0749L285.779 53.0753C277.08 58.7545 269.292 66.1759 262.331 75.0698L262.158 75.2899L262.256 75.5519C271.581 100.676 283.809 122.215 298.865 139.906C295.996 142.032 293.05 144.006 290.029 145.903C289.663 146.132 289.297 146.361 288.931 146.59C281.447 151.276 273.631 156.171 265.247 159.784C247.618 137.145 233.611 110.032 223.232 78.5226L420.95 78.2697ZM220.045 68.7666L225.701 60.2856L223.232 78.5215L220.045 68.7666Z" stroke="white"/>
<path d="M445.115 241.96C445.115 241.96 445.115 241.96 445.114 241.96C412.64 241.359 382.806 236.005 355.687 226.155C369.149 216.04 382.312 203.922 388.002 194.493C400.076 197.577 412.787 199.721 426.055 200.927L426.601 200.976V200.429V115.544L444.719 114.782L444.719 114.782C473.185 113.566 493.975 112.959 507.177 112.959C515.721 112.959 522.882 113.566 528.658 114.793C534.438 116.022 538.797 117.866 541.77 120.313L542.132 120.611L542.218 120.519L445.106 242.46L445.115 241.96ZM445.115 241.96L464.263 242.298M445.115 241.96L464.263 242.298M464.263 242.298V154.577V154.094L464.745 154.077C482.044 153.469 498.2 153.208 517.944 153.208H518.163L518.311 153.369C573.502 213.041 604.458 277.986 603.62 339.956C602.781 401.953 570.123 460.863 498.318 508.436L498.002 508.646L497.715 508.398C488.221 500.207 478.649 489.667 470.631 477.907L470.63 477.905C462.205 465.453 455.642 451.841 453.178 438.638L453.168 438.584L453.17 438.529C453.663 424.965 458.348 411.16 466.622 397.815L466.623 397.814C473.998 386.036 484.233 374.706 497.079 364.514L497.371 364.282L497.676 364.496C518.616 379.129 536.6 395.043 551.468 411.904" stroke="white"/>
<path d="M464.346 629.759L445.197 630.097L445.196 630.097C391.932 630.964 345.482 644.382 307.836 671.286C270.191 698.189 241.312 738.605 223.232 793.535L464.346 629.759ZM464.346 629.759V719.13V719.613L464.828 719.63C482.126 720.238 500.647 720.585 520.311 720.585H520.531L520.68 720.423C574.234 661.843 619.217 595.143 602.009 509.989C608.898 502.202 615.302 493.646 621.222 484.408L621.224 484.404C622.247 482.771 623.29 481.134 624.34 479.486C626.278 476.444 628.24 473.364 630.146 470.196C668.965 580.326 617.877 678.02 542.346 753.236L542.135 753.012L541.774 753.304C538.8 755.711 534.439 757.555 528.658 758.794C522.882 760.033 515.721 760.661 507.179 760.661C493.976 760.661 473.186 760.054 444.72 758.838L444.72 758.838L426.602 758.077V672.173V671.715V671.541H426.102H426.086L426.058 671.217C386.344 674.741 352.746 686.315 325.393 706.899C298.039 727.483 276.964 757.05 262.256 796.505L262.158 796.767L262.331 796.987C269.292 805.881 277.08 813.303 285.779 818.982L285.78 818.982C296.127 825.715 308.114 829.996 322.058 831.305L322.105 831.31L322.152 831.305C336.014 829.995 348.001 825.714 358.348 818.982L358.349 818.982C367.048 813.303 374.836 805.881 381.797 796.987L381.969 796.767L381.872 796.505C372.546 771.38 360.318 749.841 345.261 732.15C348.459 729.761 351.73 727.532 355.076 725.461L355.079 725.459C362.56 720.748 370.409 715.888 378.724 712.105C396.513 734.744 410.599 761.941 420.977 793.535L464.346 629.759ZM220.045 803.291L223.232 793.536L418.508 811.773C407.117 828.751 393.786 842.938 377.869 853.227L377.867 853.228C361.88 863.683 343.458 870.081 322.105 871.556C300.754 870.081 282.413 863.598 266.342 853.228C250.422 842.851 237.091 828.749 225.701 811.772L220.045 803.291ZM424.164 803.291L418.509 811.772L420.977 793.535L424.164 803.291ZM378.875 711.488C370.392 715.309 362.398 720.259 354.813 725.035L378.875 711.488Z" stroke="white"/>
<path d="M322.022 407.783C336.562 407.783 348.439 420.382 348.439 435.941C348.439 451.5 336.562 464.098 322.022 464.098C307.482 464.098 295.605 451.5 295.605 435.941C295.605 420.382 307.482 407.783 322.022 407.783Z" stroke="white"/>
</svg>
