<svg width="194" height="194" viewBox="0 0 194 194" fill="none" xmlns="http://www.w3.org/2000/svg">
<mask id="path-1-inside-1_10_503" fill="white">
<path d="M51.9373 11.1026C72.5989 0.263335 96.4753 -2.76532 119.189 2.57197C141.902 7.90925 161.931 21.2548 175.603 40.1618C189.275 59.0689 195.673 82.2704 193.626 105.513C191.578 128.755 181.221 150.48 164.455 166.706C147.688 182.931 125.634 192.569 102.337 193.853C79.0403 195.137 56.0613 187.98 37.613 173.695C19.1648 159.411 6.48373 138.955 1.89468 116.078C-2.69437 93.2017 1.11618 69.4376 12.6277 49.1428L18.7409 52.6103C8.06348 71.4346 4.52903 93.4769 8.78557 114.696C13.0421 135.915 24.8044 154.889 41.916 168.138C59.0275 181.388 80.3416 188.026 101.95 186.836C123.559 185.645 144.015 176.705 159.567 161.655C175.119 146.605 184.725 126.454 186.625 104.896C188.524 83.3377 182.589 61.8172 169.908 44.2801C157.227 26.743 138.649 14.3644 117.581 9.41379C96.5133 4.46322 74.3669 7.27243 55.2024 17.3264L51.9373 11.1026Z"/>
</mask>
<path d="M51.9373 11.1026C72.5989 0.263335 96.4753 -2.76532 119.189 2.57197C141.902 7.90925 161.931 21.2548 175.603 40.1618C189.275 59.0689 195.673 82.2704 193.626 105.513C191.578 128.755 181.221 150.48 164.455 166.706C147.688 182.931 125.634 192.569 102.337 193.853C79.0403 195.137 56.0613 187.98 37.613 173.695C19.1648 159.411 6.48373 138.955 1.89468 116.078C-2.69437 93.2017 1.11618 69.4376 12.6277 49.1428L18.7409 52.6103C8.06348 71.4346 4.52903 93.4769 8.78557 114.696C13.0421 135.915 24.8044 154.889 41.916 168.138C59.0275 181.388 80.3416 188.026 101.95 186.836C123.559 185.645 144.015 176.705 159.567 161.655C175.119 146.605 184.725 126.454 186.625 104.896C188.524 83.3377 182.589 61.8172 169.908 44.2801C157.227 26.743 138.649 14.3644 117.581 9.41379C96.5133 4.46322 74.3669 7.27243 55.2024 17.3264L51.9373 11.1026Z" stroke="white" stroke-width="10" mask="url(#path-1-inside-1_10_503)"/>
<circle cx="29" cy="29" r="26.5" stroke="white" stroke-width="5"/>
</svg>
