<svg width="438" height="50" viewBox="0 0 438 50" fill="none" xmlns="http://www.w3.org/2000/svg">
<path fill-rule="evenodd" clip-rule="evenodd" d="M48.0407 48.6733H39.142C31.8631 34.4034 32.7858 35.8591 23.9896 17.4272C18.556 28.0476 13.061 39.8571 9.02172 48.6733H0L23.9896 0L48.0407 48.6733ZM95.6098 16.3406C94.2565 11.953 90.4838 9.86177 84.2506 10.0258V10.0873H76.049V2.00927H85.5834C91.345 2.00927 95.7943 3.25993 98.9109 5.74075C102.622 8.93916 104.549 13.4908 104.714 19.375C104.549 23.7626 103.114 27.289 100.428 29.9749L97.3936 33.0093L108.507 48.6733H98.5213L85.5218 29.9954C90.5658 29.3188 93.8464 27.043 95.3637 23.168C96.3684 20.8102 96.4504 18.5344 95.6098 16.3406ZM186.688 27.084C186.688 31.7996 185.437 36.0232 182.936 39.7751C180.434 43.5271 176.969 46.254 172.54 47.9762C169.506 49.1448 166.717 49.7394 164.134 49.7394C161.55 49.7394 159.623 49.5754 158.044 49.2679V41.2513C159.623 41.8459 161.325 42.1535 163.109 42.1535C166.512 42.1535 169.608 41.2103 172.397 39.3036C175.391 37.2328 177.174 34.6085 177.769 31.4101H165.836V23.8241H186.668V27.043L186.688 27.084ZM138.914 23.7831C139.201 17.8783 141.703 12.6911 146.398 8.22157C151.401 3.44445 157.101 1.04564 163.498 1.04564C168.214 1.04564 172.192 1.82474 175.432 3.38294L177.769 4.44907L172.274 10.4563C169.916 9.14418 167.086 8.5086 163.806 8.5086C159.479 8.5086 155.604 10.1078 152.18 13.3062C148.981 16.3201 147.28 19.8056 147.075 23.7831H138.873H138.914ZM262.163 48.6733H253.264C246.273 34.957 246.58 35.162 238.112 17.4272C232.74 27.9246 227.142 39.9391 223.144 48.6733H214.122L238.112 0L262.163 48.6733ZM316.745 9.26719L307.333 9.45172V48.6528H299.132V9.45172L289.474 9.26719L289.72 1.94775H316.745V9.26719ZM356.03 48.6733H347.767V9.51323H356.03V48.6733ZM437 25.3003C437 32.1277 434.478 37.8889 429.414 42.625C424.37 47.3611 418.403 49.7189 411.555 49.7189C404.706 49.7189 398.699 47.3816 393.696 42.6865C388.693 37.9914 386.191 32.1892 386.191 25.3003C386.191 18.4114 388.734 12.6911 393.839 7.93453C398.801 3.34194 404.727 1.04564 411.575 1.04564C418.423 1.04564 424.37 3.34194 429.373 7.93453C434.458 12.6911 437.021 18.4729 437.021 25.3003H437ZM428.737 25.3003C428.737 20.5847 427.056 16.6071 423.713 13.3677C420.371 10.1283 416.312 8.5086 411.555 8.5086C406.798 8.5086 402.738 10.1283 399.396 13.3472C396.054 16.5661 394.372 20.5642 394.372 25.3208C394.372 30.0774 396.074 33.9524 399.457 37.1918C402.841 40.4312 406.88 42.0509 411.555 42.0509C416.23 42.0509 420.248 40.4107 423.652 37.1508C427.056 33.8909 428.737 29.9339 428.737 25.3208V25.3003Z" fill="black"/>
</svg>
