<svg width="409" height="392" viewBox="0 0 409 392" fill="none" xmlns="http://www.w3.org/2000/svg">
<path fill-rule="evenodd" clip-rule="evenodd" d="M188.716 290.124C170.537 283.844 154.856 283.024 136.053 282.712V323.084C127.783 323.357 120.06 323.474 110.619 323.474C57.879 269.918 51.5595 206.259 120.138 163.586C124.663 167.253 129.227 171.972 133.05 177.238C137.068 182.816 140.188 188.901 141.359 194.791C141.124 200.837 138.901 207 134.961 212.968C131.45 218.234 126.574 223.305 120.45 227.869C110.424 221.316 101.881 214.178 94.7426 206.61C91.1928 212.149 88.3451 218 86.2386 224.241C94.6256 232.316 104.534 239.844 115.925 246.787L120.84 249.791L125.677 246.709C136.209 239.961 144.557 231.887 150.331 223.188C156.416 214.022 159.693 204.075 159.771 194.011V193.075L159.654 192.412C158.093 183.362 153.685 174.391 147.951 166.472C141.554 157.618 133.362 149.895 125.677 144.824L120.957 141.703L116.081 144.473C32.5231 191.944 34.0054 278.071 98.9556 338.648L99.0727 338.531C101.998 340.793 107.577 341.886 115.769 341.886C122.088 341.886 132.035 341.613 145.65 341.066L154.544 340.715V301.631C161.019 302.177 167.222 303.152 173.112 304.595C175.609 300.382 182.006 294.687 188.716 289.968V290.124Z" fill="white"/>
<path fill-rule="evenodd" clip-rule="evenodd" d="M251.833 35.4485L253.394 30.9628L250.624 27.0621C245.163 19.4168 238.765 13.0587 231.119 8.37788C223.474 3.69707 214.619 0.810575 204.359 0.147461C194.1 0.810575 185.245 3.69707 177.56 8.41688C169.914 13.0587 163.517 19.4558 158.055 27.1011L155.286 31.0018L156.846 35.4875C161.839 49.725 168.588 61.9731 177.092 72.1928C181.383 70.4766 185.362 68.0971 189.146 65.8738C190.667 64.9766 192.149 64.0405 193.593 63.0263C186.337 55.0689 180.447 45.3562 175.961 34.0053C179.276 30.0266 182.982 26.711 187.117 24.1756C192.032 21.1721 197.728 19.2607 204.32 18.6756C210.952 19.2607 216.647 21.1721 221.562 24.1756C225.697 26.711 229.403 30.0266 232.719 34.0053C218.168 70.7496 191.096 87.0934 154.584 90.1359V51.7923L145.689 51.4413C132.075 50.8952 122.128 50.6221 115.808 50.6221C107.617 50.6221 102.038 51.7533 99.1126 53.9767L98.9955 53.8597C62.522 87.8736 37.8682 131.483 57.0607 181.451C58.348 179.461 59.6743 177.55 60.9616 175.639C63.9653 171.192 67.2811 167.135 70.8699 163.43C62.2099 125.008 83.7039 95.5969 109.528 69.0723C118.929 69.0723 127.784 69.2283 136.054 69.4624V109.093L145.455 108.937C196.401 108.157 234.513 84.792 251.833 35.3705V35.4485Z" fill="white"/>
<path fill-rule="evenodd" clip-rule="evenodd" d="M309.684 53.8987L309.567 54.0157C306.641 51.7533 301.063 50.6611 292.871 50.6611C286.551 50.6611 276.604 50.9342 262.99 51.4803L254.096 51.8313V90.1749C247.698 89.6288 241.574 88.6537 235.762 87.2494C233.07 91.5402 226.555 97.1571 219.924 101.799C233.031 106.324 247.464 108.781 263.185 109.054L272.586 109.21V69.5794C280.856 69.3063 288.58 69.1893 298.02 69.1893C350.76 122.746 357.08 185.663 288.502 228.337C283.977 224.67 279.413 219.95 275.59 214.684C271.572 209.106 268.451 203.021 267.281 197.131C267.515 191.085 269.739 184.922 273.678 178.954C277.189 173.688 282.065 168.617 288.19 164.054C298.293 170.685 306.953 177.901 314.092 185.546C317.603 179.929 320.333 174 322.362 167.681H322.44C314.053 159.646 304.145 152.079 292.715 145.135L287.8 142.132L282.963 145.213C272.43 151.962 264.082 160.036 258.309 168.734C252.223 177.901 248.947 187.848 248.869 197.911V198.848L248.986 199.511C250.546 208.56 254.954 217.532 260.688 225.45C267.086 234.305 275.278 242.028 282.963 247.099L287.683 250.219L292.559 247.45C374.673 200.798 376.077 115.958 309.684 54.0157V53.8987Z" fill="white"/>
<path fill-rule="evenodd" clip-rule="evenodd" d="M254.096 301.786V340.871L262.99 341.222C276.605 341.768 286.552 342.041 292.871 342.041C301.063 342.041 306.642 340.91 309.567 338.686L309.684 338.803C346.041 304.867 370.695 260.673 351.736 210.822C350.254 213.163 348.693 215.386 347.211 217.609C344.363 221.783 341.282 225.645 337.966 229.155C346.236 267.343 324.781 297.261 299.152 323.591C289.751 323.591 280.896 323.435 272.626 323.162V282.79L263.224 282.946C212.2 283.726 174.167 307.091 156.847 356.512L155.286 360.998L158.056 364.899C163.517 372.544 169.915 378.902 177.56 383.583C185.284 388.264 194.1 391.189 204.36 391.852C214.619 391.189 223.474 388.303 231.159 383.583C238.805 378.941 245.202 372.544 250.663 364.899L253.433 360.998L251.873 356.512C246.88 342.236 240.092 329.949 231.51 319.729C227.453 321.445 223.63 323.669 220.002 325.814C218.325 326.789 216.687 327.842 215.087 328.974C222.343 336.931 228.233 346.644 232.719 357.995C229.404 361.973 225.698 365.289 221.563 367.824C216.648 370.828 210.952 372.739 204.36 373.324C197.728 372.739 192.033 370.828 187.118 367.824C182.983 365.289 179.277 361.973 175.961 357.995C190.004 322.616 216.179 305.023 254.096 301.864V301.786Z" fill="white"/>
<path fill-rule="evenodd" clip-rule="evenodd" d="M204.32 183.089C211.42 183.089 217.193 188.862 217.193 195.961C217.193 203.06 211.42 208.833 204.32 208.833C197.221 208.833 191.447 203.06 191.447 195.961C191.447 188.862 197.221 183.089 204.32 183.089Z" fill="white"/>
<path fill-rule="evenodd" clip-rule="evenodd" d="M396.127 183.089C403.227 183.089 409 188.862 409 195.961C409 203.06 403.227 208.833 396.127 208.833C389.027 208.833 383.254 203.06 383.254 195.961C383.254 188.862 389.027 183.089 396.127 183.089Z" fill="white"/>
<path fill-rule="evenodd" clip-rule="evenodd" d="M13.4472 183.089C20.5469 183.089 26.3202 188.862 26.3202 195.961C26.3202 203.06 20.5469 208.833 13.4472 208.833C6.34757 208.833 0.574219 203.06 0.574219 195.961C0.574219 188.862 6.34757 183.089 13.4472 183.089Z" fill="white"/>
</svg>
